<?xml version="1.0" encoding="utf-8"?>
<!-- Generator: Adobe Illustrator 15.1.0, SVG Export Plug-In  -->
<!DOCTYPE svg PUBLIC "-//W3C//DTD SVG 1.1//EN" "http://www.w3.org/Graphics/SVG/1.1/DTD/svg11.dtd" [
	<!ENTITY ns_flows "http://ns.adobe.com/Flows/1.0/">
]>
<svg version="1.1"
	 xmlns="http://www.w3.org/2000/svg" xmlns:xlink="http://www.w3.org/1999/xlink" xmlns:a="http://ns.adobe.com/AdobeSVGViewerExtensions/3.0/"
	 x="0px" y="0px" width="231px" height="231px" viewBox="173.919 37.521 73 231"
	 overflow="visible" enable-background="new 173.919 37.521 73 231" xml:space="preserve">
<defs>
</defs>
<path fill="#FFFFFF" d="M242.085,173.844c-0.164,5.734-5.08,10.486-10.813,10.486h-41.947c-5.733,0-10.649-4.752-10.813-10.486
	l-4.587-125.836c-0.164-5.734,4.424-10.486,10.158-10.486h52.432c5.734,0,10.322,4.752,10.158,10.486L242.085,173.844z
	 M241.757,257.734c0,5.734-4.752,10.486-10.485,10.486h-41.947c-5.733,0-10.485-4.752-10.485-10.486v-36.702
	c0-5.735,4.752-10.485,10.485-10.485h41.947c5.733,0,10.485,4.75,10.485,10.485V257.734z"/>
<rect fill="none" width="862" height="862"/>
</svg>
