<?xml version="1.0" encoding="utf-8"?>
<!-- Generator: Adobe Illustrator 15.1.0, SVG Export Plug-In  -->
<!DOCTYPE svg PUBLIC "-//W3C//DTD SVG 1.1//EN" "http://www.w3.org/Graphics/SVG/1.1/DTD/svg11.dtd" [
	<!ENTITY ns_flows "http://ns.adobe.com/Flows/1.0/">
]>
<svg version="1.1"
	 xmlns="http://www.w3.org/2000/svg" xmlns:xlink="http://www.w3.org/1999/xlink" xmlns:a="http://ns.adobe.com/AdobeSVGViewerExtensions/3.0/"
	 x="0px" y="0px" width="231px" height="231px" viewBox="0 0 231 198" overflow="visible" enable-background="new 0 0 231 198"
	 xml:space="preserve">
<defs>
</defs>
<path fill="#F5CC11" d="M0,82.6C0,36.912,51.754,0,115.64,0s115.64,37.041,115.64,82.6c0,26.2-17.036,49.561-43.623,64.661
	c6.065,21.554,15.358,29.297,23.49,38.46c1.936,2.323,4.128,4.26,3.483,7.485v0.129c-0.645,3.098-3.355,5.163-6.195,4.905
	c-5.033-0.646-10.066-1.549-14.713-2.84c-22.326-5.679-42.461-16.262-59.367-31.233c-6.066,0.646-12.391,1.033-18.715,1.033
	C51.754,165.2,0,128.288,0,82.6"/>
</svg>
