<?xml version="1.0" encoding="utf-8"?>
<!-- Generator: Adobe Illustrator 15.1.0, SVG Export Plug-In  -->
<!DOCTYPE svg PUBLIC "-//W3C//DTD SVG 1.1//EN" "http://www.w3.org/Graphics/SVG/1.1/DTD/svg11.dtd" [
	<!ENTITY ns_flows "http://ns.adobe.com/Flows/1.0/">
]>
<svg version="1.1"
	 xmlns="http://www.w3.org/2000/svg" xmlns:xlink="http://www.w3.org/1999/xlink" xmlns:a="http://ns.adobe.com/AdobeSVGViewerExtensions/3.0/"
	 x="0px" y="0px" width="231px" height="231px" viewBox="37.282 350.43 231 198"
	 overflow="visible" enable-background="new 37.282 350.43 231 198" xml:space="preserve">
<defs>
</defs>
<path fill="#2E52A0" d="M37.282,433.107c0-45.73,51.803-82.678,115.749-82.678c63.947,0,115.75,37.075,115.75,82.678
	c0,26.226-17.053,49.607-43.664,64.723c6.07,21.574,15.373,29.324,23.512,38.497c1.938,2.325,4.133,4.263,3.487,7.493v0.128
	c-0.646,3.101-3.358,5.168-6.2,4.909c-5.039-0.646-10.076-1.55-14.729-2.842c-22.348-5.684-42.502-16.277-59.424-31.263
	c-6.072,0.646-12.402,1.034-18.732,1.034C89.085,515.787,37.282,478.839,37.282,433.107"/>
<rect fill="none" width="862" height="862"/>
</svg>
