<?xml version="1.0" encoding="utf-8"?>
<!-- Generator: Adobe Illustrator 15.1.0, SVG Export Plug-In  -->
<!DOCTYPE svg PUBLIC "-//W3C//DTD SVG 1.1//EN" "http://www.w3.org/Graphics/SVG/1.1/DTD/svg11.dtd" [
	<!ENTITY ns_flows "http://ns.adobe.com/Flows/1.0/">
]>
<svg version="1.1"
	 xmlns="http://www.w3.org/2000/svg" xmlns:xlink="http://www.w3.org/1999/xlink" xmlns:a="http://ns.adobe.com/AdobeSVGViewerExtensions/3.0/"
	 x="0px" y="0px" width="230px" height="230px" viewBox="329.486 583.239 217 230"
	 overflow="visible" enable-background="new 329.486 583.239 217 230" xml:space="preserve">
<defs>
</defs>
<path fill="#FFFFFF" d="M533.271,709.423c4.418-6.626,8.244-12.301,8.244-20.307c0-19.05-16.291-35.199-35.338-35.199H481.88
	c4.143-8.56,6.627-16.842,6.627-26.505c0-9.248-0.553-17.255-4.832-25.676c-6.764-13.39-20.566-18.497-34.924-18.497
	c-4.693,0-9.109,1.934-12.424,5.107c-13.802,13.529-9.386,35.339-17.671,44.173c-5.246,5.66-10.073,11.596-14.767,17.669
	c-4.144,5.384-13.528,17.808-18.914,21.397h-37.821c-9.799,0-17.668,7.867-17.668,17.669l10.291,78.704
	c0.681,9.681,7.344,27.31,17.144,27.31h29.989c3.865,0,15.045,4.141,19.048,5.521c18.223,6.351,36.443,12.148,56.045,12.148h12.838
	h4.969c25.539,0,43.344-15.323,43.068-41.411c5.385-6.901,8.283-15.737,8.283-24.572c0-1.932-0.139-4.002-0.414-5.936
	c3.448-6.074,5.246-12.976,5.246-19.876C535.993,717.967,534.099,712.46,533.271,709.423 M511.134,703.897
	c2.897,3.313,6.24,12.689,6.24,17.106c0,6.486-1.674,12.147-6.367,16.563c1.658,2.899,2.484,6.212,2.484,9.526
	c0,6.348-3.176,14.217-8.973,17.392c0.414,2.484,0.691,5.107,0.691,7.73c0,16.842-10.906,23.053-26.504,23.053h-16.703
	c-16.289,0-32.022-4.831-47.209-10.077c-7.455-2.623-20.154-7.592-27.884-7.592h-4.418v-88.345h4.418
	c10.906,0,27.33-23.605,33.543-31.611c3.451-4.28,6.763-8.559,10.628-12.562c13.391-14.079,8.836-35.199,17.67-44.173
	c12.756-5.72,22.086,10.354,22.086,26.504c0,16.289-13.252,28.022-13.252,44.174h48.592c9.248,0,17.668,8.281,17.668,17.669
	C523.845,694.361,517.62,703.759,511.134,703.897"/>
<rect fill="none" width="862" height="862"/>
</svg>
