<?xml version="1.0" encoding="utf-8"?>
<!-- Generator: Adobe Illustrator 15.1.0, SVG Export Plug-In  -->
<!DOCTYPE svg PUBLIC "-//W3C//DTD SVG 1.1//EN" "http://www.w3.org/Graphics/SVG/1.1/DTD/svg11.dtd" [
	<!ENTITY ns_flows "http://ns.adobe.com/Flows/1.0/">
]>
<svg version="1.1"
	 xmlns="http://www.w3.org/2000/svg" xmlns:xlink="http://www.w3.org/1999/xlink" xmlns:a="http://ns.adobe.com/AdobeSVGViewerExtensions/3.0/"
	 x="0px" y="0px" width="231px" height="231px" viewBox="51.114 37.521 73 231"
	 overflow="visible" enable-background="new 51.114 37.521 73 231" xml:space="preserve">
<defs>
</defs>
<path fill="#2E52A0" d="M119.293,173.848c-0.164,5.736-5.081,10.488-10.816,10.488H66.524c-5.736,0-10.653-4.752-10.817-10.488
	L51.119,47.988C50.955,42.253,55.544,37.5,61.279,37.5h52.442c5.735,0,10.324,4.753,10.16,10.488L119.293,173.848z M118.965,257.754
	c0,5.736-4.753,10.488-10.488,10.488H66.524c-5.736,0-10.489-4.752-10.489-10.488v-36.709c0-5.736,4.753-10.488,10.489-10.488
	h41.953c5.735,0,10.488,4.752,10.488,10.488V257.754z"/>
<rect fill="none" width="862" height="862"/>
</svg>
