<?xml version="1.0" encoding="utf-8"?>
<!-- Generator: Adobe Illustrator 15.1.0, SVG Export Plug-In . SVG Version: 6.00 Build 0)  -->
<!DOCTYPE svg PUBLIC "-//W3C//DTD SVG 1.1//EN" "http://www.w3.org/Graphics/SVG/1.1/DTD/svg11.dtd">
<svg version="1.1" id="Layer_1" xmlns="http://www.w3.org/2000/svg" xmlns:xlink="http://www.w3.org/1999/xlink" x="0px" y="0px"
	 width="231px" height="231px" viewBox="0 0 231 231" enable-background="new 0 0 231 231" xml:space="preserve">
<path d="M154.408,136.848c-0.164,5.736-5.081,10.488-10.816,10.488h-41.953c-5.735,0-10.652-4.752-10.816-10.488l-4.588-125.86
	C86.07,5.253,90.659,0.5,96.395,0.5h52.441c5.735,0,10.324,4.753,10.16,10.488L154.408,136.848z M154.08,220.754
	c0,5.736-4.753,10.488-10.488,10.488h-41.953c-5.735,0-10.488-4.752-10.488-10.488v-36.709c0-5.736,4.753-10.488,10.488-10.488
	h41.953c5.735,0,10.488,4.752,10.488,10.488V220.754z"/>
<rect x="79" fill="none" width="862" height="862"/>
</svg>
