<?xml version="1.0" encoding="utf-8"?>
<!-- Generator: Adobe Illustrator 15.1.0, SVG Export Plug-In . SVG Version: 6.00 Build 0)  -->
<!DOCTYPE svg PUBLIC "-//W3C//DTD SVG 1.1//EN" "http://www.w3.org/Graphics/SVG/1.1/DTD/svg11.dtd">
<svg version="1.1" id="Layer_1" xmlns="http://www.w3.org/2000/svg" xmlns:xlink="http://www.w3.org/1999/xlink" x="0px" y="0px"
	 width="231px" height="231px" viewBox="0 0 231 231" enable-background="new 0 0 231 231" xml:space="preserve">
<path fill="#FFFFFF" d="M0,99.1c0-45.688,51.754-82.6,115.64-82.6c63.885,0,115.639,37.041,115.639,82.6
	c0,26.2-17.035,49.561-43.622,64.661c6.065,21.554,15.358,29.298,23.489,38.46c1.937,2.323,4.129,4.26,3.483,7.485v0.129
	c-0.646,3.099-3.354,5.163-6.194,4.905c-5.033-0.646-10.066-1.549-14.713-2.84c-22.326-5.68-42.461-16.262-59.367-31.233
	c-6.066,0.646-12.392,1.033-18.715,1.033C51.754,181.7,0,144.788,0,99.1"/>
</svg>
