<?xml version="1.0" encoding="utf-8"?>
<!-- Generator: Adobe Illustrator 15.1.0, SVG Export Plug-In  -->
<!DOCTYPE svg PUBLIC "-//W3C//DTD SVG 1.1//EN" "http://www.w3.org/Graphics/SVG/1.1/DTD/svg11.dtd" [
	<!ENTITY ns_flows "http://ns.adobe.com/Flows/1.0/">
]>
<svg version="1.1"
	 xmlns="http://www.w3.org/2000/svg" xmlns:xlink="http://www.w3.org/1999/xlink" xmlns:a="http://ns.adobe.com/AdobeSVGViewerExtensions/3.0/"
	 x="0px" y="0px" width="226px" height="226px" viewBox="593.605 583.239 226 226"
	 overflow="visible" enable-background="new 593.605 583.239 226 226" xml:space="preserve">
<defs>
</defs>
<path fill="#FFFFFF" d="M593.605,696.003c0-62.257,50.511-112.764,112.764-112.764c62.255,0,112.764,50.507,112.764,112.764
	c0,62.253-50.509,112.763-112.764,112.763C644.116,808.766,593.605,758.256,593.605,696.003 M622.213,695.827
	c0,46.505,37.826,84.33,84.331,84.33c46.507,0,84.331-37.825,84.331-84.33c0-46.508-37.824-84.33-84.331-84.33
	C660.039,611.497,622.213,649.319,622.213,695.827"/>
<path fill="#FFFFFF" d="M717.088,697.616c0,7.383-5.7,13.37-12.734,13.37c-7.035,0-12.734-4.396-12.734-11.777v-57.646
	c0-7.383,5.699-13.368,12.734-13.368c7.034,0,12.734,5.985,12.734,13.368V697.616z"/>
<path fill="#FFFFFF" d="M704.986,713.841c-7.382,0-13.367-5.702-13.367-12.736c0-7.033,4.393-12.734,11.777-12.734h50.51
	c7.382,0,13.367,5.701,13.367,12.734c0,7.034-5.985,12.736-13.367,12.736H704.986z"/>
<rect fill="none" width="862" height="862"/>
</svg>
