<?xml version="1.0" encoding="UTF-8"?>
<svg xmlns="http://www.w3.org/2000/svg" xmlns:xlink="http://www.w3.org/1999/xlink" version="1.2" >
<font id="MetaComp-NormalIta">
<font-face  font-family="MetaComp-NormalIta" units-per-em="1000" ascent="763" descent="-237" font-style="italic" font-weight="400" font-stretch="normal" slope="-12" cap-height="686" x-height="498" underline-position="-70" underline-thickness="98" />
<missing-glyph  horiz-adv-x="556" d="M45 686 L511 686 L511 0 L45 0 L45 686 Z M461 50 L461 636 L95 636 L95 50 L461 50 Z " />
<glyph glyph-name="space" unicode="&#x20;" horiz-adv-x="225" d="" />
<glyph glyph-name="exclam" unicode="&#x21;" horiz-adv-x="294" d="M158 198 L98 198 L183 686 L284 699 L158 198 Z M170 56 Q170 30 152.5 11.5 Q135 -7 109 -7 Q83 -7 65.5 11 Q48 29 48 55 Q48 81 65.5 98.5 Q83 116 109 116 Q135 116 152.5 98.5 Q170 81 170 56 Z " />
<glyph glyph-name="quotedbl" unicode="&#x22;" horiz-adv-x="409" d="M364 468 L292 468 L343 708 L415 708 L364 468 Z M217 468 L145 468 L196 708 L268 708 L217 468 Z " />
<glyph glyph-name="numbersign" unicode="&#x23;" horiz-adv-x="581" d="M474 431 L421 279 L511 279 L511 213 L396 213 L321 0 L254 0 L329 213 L203 213 L128 0 L61 0 L136 213 L45 213 L45 279 L161 279 L213 431 L122 431 L122 497 L237 497 L312 708 L379 708 L304 497 L430 497 L505 708 L572 708 L497 497 L588 497 L588 431 L474 431 Z M281 431 L228 279 L354 279 L407 431 L281 431 Z " />
<glyph glyph-name="dollar" unicode="&#x24;" horiz-adv-x="622" d="M547 581 Q513 606 483.5 618 Q454 630 419 633 L367 390 L400 376 Q463 349 488 307.5 Q513 266 513 204 Q513 163 497.5 127 Q482 91 452 62.5 Q422 34 379 15 Q336 -4 281 -10 L261 -107 L202 -107 L222 -13 Q168 -12 125.5 1 Q83 14 42 41 L82 106 Q118 81 153 68.5 Q188 56 236 54 L295 330 L270 340 Q209 365 181 402.5 Q153 440 153 502 Q153 542 169.5 576.5 Q186 611 215.5 637 Q245 663 285.5 679.5 Q326 696 374 700 L392 783 L451 783 L433 700 Q478 696 518 681 Q558 666 590 642 L547 581 Z M427 192 Q427 231 411 257.5 Q395 284 349 306 L296 58 Q357 70 392 106.5 Q427 143 427 192 Z M360 631 Q306 623 272.5 592.5 Q239 562 239 519 Q239 480 254.5 457 Q270 434 313 414 L360 631 Z " />
<glyph glyph-name="percent" unicode="&#x25;" horiz-adv-x="860" d="M804 212 Q804 161 788.5 119.5 Q773 78 746 49.5 Q719 21 681.5 5.5 Q644 -10 601 -10 Q543 -10 507.5 20 Q472 50 472 114 Q472 160 487 200 Q502 240 529 269 Q556 298 592.5 315 Q629 332 673 332 Q739 332 771.5 297.5 Q804 263 804 212 Z M434 573 Q434 522 418.5 480.5 Q403 439 376 410.5 Q349 382 311.5 366.5 Q274 351 231 351 Q173 351 137.5 381 Q102 411 102 475 Q102 521 117 561 Q132 601 159 630 Q186 659 222.5 676 Q259 693 303 693 Q369 693 401.5 658.5 Q434 624 434 573 Z M249 0 L183 0 L664 686 L730 686 L249 0 Z M366 564 Q366 638 290 638 Q259 638 236.5 626 Q214 614 199.5 592 Q185 570 178 540.5 Q171 511 171 477 Q171 437 191 421.5 Q211 406 246 406 Q275 406 297.5 418 Q320 430 335 451.5 Q350 473 358 502 Q366 531 366 564 Z M736 203 Q736 277 660 277 Q629 277 606.5 265 Q584 253 569.5 231 Q555 209 548 179.5 Q541 150 541 116 Q541 76 561 60.5 Q581 45 616 45 Q645 45 667.5 57 Q690 69 705 90.5 Q720 112 728 141 Q736 170 736 203 Z " />
<glyph glyph-name="ampersand" unicode="&#x26;" horiz-adv-x="685" d="M512 0 L459 65 Q421 28 364.5 6.5 Q308 -15 248 -15 Q154 -15 101.5 24.5 Q49 64 49 136 Q49 164 56 191.5 Q63 219 83 245 Q103 271 137.5 296 Q172 321 228 344 Q190 385 178 415.5 Q166 446 166 475 Q166 509 181 542 Q196 575 223.5 600 Q251 625 290 640.5 Q329 656 378 656 Q448 656 490 621.5 Q532 587 532 534 Q532 484 502.5 442 Q473 400 415 370 L349 336 L475 178 Q484 189 493 211 Q502 233 509 257 Q516 281 521 302.5 Q526 324 528 333 L597 333 Q583 262 564 214 Q545 166 514 124 L615 0 L512 0 Z M268 302 Q199 273 167.5 237.5 Q136 202 136 149 Q136 107 167.5 76.5 Q199 46 261 46 Q312 46 356 65 Q400 84 426 110 L268 302 Z M448 527 Q448 560 425.5 579 Q403 598 367 598 Q349 598 329 591.5 Q309 585 291.5 572.5 Q274 560 263 542.5 Q252 525 252 503 Q252 484 254 470.5 Q256 457 262.5 444 Q269 431 280.5 416.5 Q292 402 311 381 Q349 398 379.5 417.5 Q410 437 424 457 Q435 472 441.5 489.5 Q448 507 448 527 Z " />
<glyph glyph-name="quotesingle" unicode="&#x27;" horiz-adv-x="262" d="M216 468 L144 468 L195 708 L267 708 L216 468 Z " />
<glyph glyph-name="parenleft" unicode="&#x28;" horiz-adv-x="332" d="M457 725 Q398 695 358.5 664.5 Q319 634 293 595 Q263 550 238.5 485 Q214 420 194 327 Q182 271 175 219.5 Q168 168 168 122 Q168 41 192 -17 Q216 -75 274 -113 L245 -155 Q175 -120 133 -49 Q91 22 91 124 Q91 174 97.5 226 Q104 278 113 321 Q126 386 143.5 437.5 Q161 489 181.5 530 Q202 571 226.5 604 Q251 637 279 665 Q316 701 359 728.5 Q402 756 442 770 L457 725 Z " />
<glyph glyph-name="parenright" unicode="&#x29;" horiz-adv-x="332" d="M272 493 Q272 443 265.5 391 Q259 339 250 296 Q236 231 219 179.5 Q202 128 181.5 87 Q161 46 136.5 13 Q112 -20 84 -48 Q47 -84 4 -111.5 Q-39 -139 -79 -153 L-94 -104 Q-35 -74 4.5 -43.5 Q44 -13 70 26 Q100 71 124.5 136 Q149 201 169 294 Q181 350 188 401.5 Q195 453 195 499 Q195 580 171 638 Q147 696 89 734 L118 772 Q188 737 230 666 Q272 595 272 493 Z " />
<glyph glyph-name="asterisk" unicode="&#x2a;" horiz-adv-x="468" d="M352 501 L441 382 L392 344 L302 467 L215 344 L165 382 L252 501 L111 549 L130 607 L272 559 L272 708 L332 708 L332 559 L474 607 L493 549 L352 501 Z " />
<glyph glyph-name="plus" unicode="&#x2b;" horiz-adv-x="539" d="M479 214 L304 214 L266 36 L190 36 L228 214 L51 214 L67 286 L243 286 L281 464 L357 464 L319 286 L495 286 L479 214 Z " />
<glyph glyph-name="comma" unicode="&#x2c;" horiz-adv-x="290" d="M173 50 Q173 18 158 -16 Q143 -50 114 -79 Q91 -103 65 -118.5 Q39 -134 19 -143 L-7 -99 Q25 -85 47.5 -60.5 Q70 -36 79 -10 Q56 -10 41.5 8.5 Q27 27 27 52 Q28 85 49 105 Q70 125 102 125 Q132 125 152.5 104.5 Q173 84 173 50 Z " />
<glyph glyph-name="hyphen" unicode="&#x2d;" horiz-adv-x="341" d="M265 229 L74 229 L90 305 L281 305 L265 229 Z " />
<glyph glyph-name="period" unicode="&#x2e;" horiz-adv-x="286" d="M172 56 Q172 27 152 7 Q132 -13 105 -13 Q76 -13 57 7 Q38 27 38 56 Q38 84 57 103 Q76 122 104 122 Q133 122 152.5 103 Q172 84 172 56 Z " />
<glyph glyph-name="slash" unicode="&#x2f;" horiz-adv-x="413" d="M30 -148 L-36 -148 L415 757 L481 757 L30 -148 Z " />
<glyph glyph-name="zero" unicode="0" horiz-adv-x="570" d="M550 440 Q550 331 521.5 243 Q493 155 449 100 Q401 40 349.5 12 Q298 -16 233 -16 Q198 -16 167.5 -1.5 Q137 13 115 42 Q93 71 80.5 115 Q68 159 68 219 Q68 325 101.5 413 Q135 501 187 562 Q229 612 276.5 639 Q324 666 379 666 Q414 666 445 653 Q476 640 499.5 613 Q523 586 536.5 543 Q550 500 550 440 Z M467 455 Q467 525 444.5 564 Q422 603 377 603 Q347 603 313 585.5 Q279 568 243 518 Q222 489 205 449 Q188 409 176 364.5 Q164 320 157.5 275.5 Q151 231 151 192 Q151 119 179 82 Q207 45 245 45 Q279 45 316 69 Q353 93 384 139 Q402 165 417 200.5 Q432 236 443 277.5 Q454 319 460.5 364 Q467 409 467 455 Z " />
<glyph glyph-name="one" unicode="1" horiz-adv-x="570" d="M336 63 L437 63 L424 0 L140 0 L153 63 L257 63 L363 557 Q349 547 332.5 537 Q316 527 295 516.5 Q274 506 248 494 Q222 482 189 469 L179 518 L400 653 L462 653 L336 63 Z " />
<glyph glyph-name="two" unicode="2" horiz-adv-x="570" d="M547 509 Q547 456 522 405 Q497 354 449 303 Q420 272 380.5 235.5 Q341 199 301 165 Q261 131 226 102.5 Q191 74 170 60 Q178 61 204.5 62.5 Q231 64 256 64 L456 64 L434 0 L47 0 L57 45 Q90 65 133.5 99.5 Q177 134 237 188 Q295 240 336.5 283 Q378 326 405 362.5 Q432 399 445 430.5 Q458 462 458 491 Q458 548 430.5 572 Q403 596 358 596 Q324 596 287.5 580 Q251 564 195 525 L165 571 Q229 619 282 642 Q335 665 389 665 Q423 665 452 654.5 Q481 644 502 624 Q523 604 535 575 Q547 546 547 509 Z " />
<glyph glyph-name="three" unicode="3" horiz-adv-x="570" d="M533 533 Q533 501 521.5 472 Q510 443 489.5 419.5 Q469 396 440.5 379 Q412 362 378 353 Q404 349 424.5 336 Q445 323 459 305 Q473 287 480.5 265.5 Q488 244 488 222 Q488 183 467 142 Q446 101 411 68 Q356 16 276 -8.5 Q196 -33 95 -33 Q82 -33 68.5 -32.5 Q55 -32 46 -30 L37 28 Q45 26 59 25.5 Q73 25 88 25 Q154 25 211.5 35 Q269 45 319 82 Q355 109 378 147 Q401 185 401 223 Q401 256 384.5 282.5 Q368 309 338 319 Q327 323 315 325 Q303 327 288.5 328 Q274 329 254 329 L209 329 L221 385 Q281 384 312.5 386.5 Q344 389 365 397 Q400 410 423 443 Q446 476 446 520 Q446 558 419 578.5 Q392 599 347 599 Q306 599 263 581 Q220 563 176 534 L149 581 Q213 624 265.5 644 Q318 664 375 664 Q450 664 491.5 626.5 Q533 589 533 533 Z " />
<glyph glyph-name="four" unicode="4" horiz-adv-x="570" d="M510 125 L455 125 Q446 125 438 125.5 Q430 126 428 126 L420 87 L401 -4 L319 -27 L343 86 L353 126 Q350 126 339 125.5 Q328 125 313 125 L55 125 L68 187 L404 655 L491 655 L199 247 Q184 226 168.5 207.5 Q153 189 149 184 Q153 185 165.5 186 Q178 187 189 187 L344 187 Q352 187 358 186.5 Q364 186 366 186 L370 214 Q373 227 376.5 239.5 Q380 252 385 269 L435 446 L501 465 L448 217 L441 186 Q443 186 449.5 186.5 Q456 187 464 187 L523 187 L510 125 Z " />
<glyph glyph-name="five" unicode="5" horiz-adv-x="570" d="M524 580 L308 580 L249 387 Q261 389 281 390.5 Q301 392 321 392 Q400 392 447 349 Q494 306 494 234 Q494 176 466.5 126.5 Q439 77 391.5 41 Q344 5 281.5 -15.5 Q219 -36 149 -36 Q126 -36 110 -33.5 Q94 -31 78 -26 L76 36 Q87 30 105.5 26 Q124 22 148 22 Q207 22 255 40.5 Q303 59 336.5 88.5 Q370 118 388.5 155 Q407 192 407 228 Q407 277 374.5 304.5 Q342 332 282 332 Q245 332 209.5 326 Q174 320 150 310 L254 646 L550 646 L524 580 Z " />
<glyph glyph-name="six" unicode="6" horiz-adv-x="570" d="M547 635 Q459 609 387.5 564.5 Q316 520 273 469 Q252 444 234.5 418 Q217 392 199 350 Q220 367 261.5 382.5 Q303 398 355 398 Q389 398 418 386.5 Q447 375 469 353.5 Q491 332 503.5 301.5 Q516 271 516 234 Q516 177 495 131 Q474 85 438.5 52 Q403 19 355.5 1 Q308 -17 256 -17 Q214 -17 180 -2 Q146 13 122 39.5 Q98 66 85 103 Q72 140 72 184 Q72 270 110.5 357.5 Q149 445 228 520 Q305 592 382 631 Q459 670 537 692 L547 635 Z M426 228 Q426 286 398.5 312 Q371 338 326 338 Q292 338 255 324.5 Q218 311 180 285 Q173 265 169 250.5 Q165 236 162.5 224 Q160 212 159.5 200.5 Q159 189 159 176 Q159 117 188.5 80.5 Q218 44 269 44 Q303 44 332 57 Q361 70 382 94 Q403 118 414.5 152 Q426 186 426 228 Z " />
<glyph glyph-name="seven" unicode="7" horiz-adv-x="570" d="M593 570 Q540 514 483 444 Q426 374 373 297.5 Q320 221 275.5 142.5 Q231 64 203 -9 L102 -34 Q118 13 146 68 Q174 123 210 181.5 Q246 240 287 298.5 Q328 357 369.5 409.5 Q411 462 451.5 506.5 Q492 551 526 582 Q521 582 510.5 581.5 Q500 581 486.5 581 Q473 581 459 580.5 Q445 580 433 580 L169 580 L198 646 L604 646 L593 570 Z " />
<glyph glyph-name="eight" unicode="8" horiz-adv-x="570" d="M566 541 Q566 510 552.5 481.5 Q539 453 515.5 428 Q492 403 460 382.5 Q428 362 391 348 L440 323 Q473 306 495 275.5 Q517 245 517 210 Q517 164 498.5 123 Q480 82 446 51 Q412 20 364 1.5 Q316 -17 257 -17 Q212 -17 176 -4.5 Q140 8 114.5 29.5 Q89 51 75 80 Q61 109 61 142 Q61 182 78 215.5 Q95 249 121.5 274.5 Q148 300 180.5 318 Q213 336 243 347 Q196 372 175 403 Q154 434 154 472 Q154 509 170 543.5 Q186 578 216.5 605 Q247 632 291.5 648.5 Q336 665 394 665 Q433 665 464.5 655 Q496 645 518.5 628 Q541 611 553.5 588.5 Q566 566 566 541 Z M436 192 Q436 220 419 241 Q412 250 402 258 Q392 266 377 275 Q362 284 340.5 295 Q319 306 289 321 Q220 290 181 248.5 Q142 207 142 142 Q142 96 175 69 Q208 42 265 42 Q344 42 390 82.5 Q436 123 436 192 Z M489 530 Q489 564 461.5 586 Q434 608 381 608 Q316 608 275 575.5 Q234 543 234 490 Q234 452 257 426 Q280 400 340 375 Q419 413 454 450.5 Q489 488 489 530 Z " />
<glyph glyph-name="nine" unicode="9" horiz-adv-x="570" d="M566 468 Q566 382 528 290 Q490 198 411 123 Q334 51 242 6.5 Q150 -38 60 -53 L29 -3 Q76 4 124.5 22 Q173 40 217.5 65 Q262 90 300 119.5 Q338 149 364 180 Q374 192 382.5 202.5 Q391 213 399 224.5 Q407 236 414.5 250 Q422 264 431 285 Q400 261 363 247 Q326 233 274 233 Q242 233 213.5 245 Q185 257 164 280 Q143 303 130.5 336 Q118 369 118 410 Q118 467 139 514 Q160 561 196 594.5 Q232 628 279 647 Q326 666 379 666 Q467 666 516.5 616 Q566 566 566 468 Z M476 473 Q476 532 449.5 568.5 Q423 605 366 605 Q331 605 302 591.5 Q273 578 252 553 Q231 528 219.5 493 Q208 458 208 416 Q208 358 233 325.5 Q258 293 303 293 Q337 293 374 306.5 Q411 320 449 346 Q463 386 469.5 416.5 Q476 447 476 473 Z " />
<glyph glyph-name="colon" unicode="&#x3a;" horiz-adv-x="305" d="M248 372 Q248 343 228 323 Q208 303 181 303 Q152 303 133 323 Q114 343 114 372 Q114 400 133 419 Q152 438 180 438 Q209 438 228.5 419 Q248 400 248 372 Z M181 56 Q181 27 161 7 Q141 -13 114 -13 Q85 -13 66 7 Q47 27 47 56 Q47 84 66 103 Q85 122 113 122 Q142 122 161.5 103 Q181 84 181 56 Z " />
<glyph glyph-name="semicolon" unicode="&#x3b;" horiz-adv-x="321" d="M193 50 Q193 18 178 -16 Q163 -50 134 -79 Q114 -98 86.5 -116 Q59 -134 39 -143 L13 -99 Q45 -85 67.5 -60.5 Q90 -36 99 -10 Q76 -10 61.5 8.5 Q47 27 47 52 Q48 85 69 105 Q90 125 122 125 Q152 125 172.5 104.5 Q193 84 193 50 Z M248 372 Q248 343 228 323 Q208 303 181 303 Q152 303 133 323 Q114 343 114 372 Q114 400 133 419 Q152 438 180 438 Q209 438 228.5 419 Q248 400 248 372 Z " />
<glyph glyph-name="less" unicode="&#x3c;" horiz-adv-x="330" d="M135 296 L245 83 L175 43 L39 300 L284 557 L345 512 L135 296 Z " />
<glyph glyph-name="equal" unicode="&#x3d;" horiz-adv-x="633" d="M602 348 L80 348 L94 414 L616 414 L602 348 Z M569 192 L47 192 L61 258 L583 258 L569 192 Z " />
<glyph glyph-name="greater" unicode="&#x3e;" horiz-adv-x="330" d="M75 43 L14 88 L224 309 L114 517 L184 557 L320 300 L75 43 Z " />
<glyph glyph-name="question" unicode="&#x3f;" horiz-adv-x="444" d="M458 571 Q458 528 428 484.5 Q398 441 333 398 Q277 360 256 319.5 Q235 279 235 222 L168 222 Q167 254 172 284.5 Q177 315 190 342.5 Q203 370 225.5 395 Q248 420 283 441 Q334 473 355 499.5 Q376 526 376 552 Q376 590 354.5 608.5 Q333 627 295 627 Q261 627 229 616.5 Q197 606 156 581 L130 634 Q174 663 220 679 Q266 695 311 695 Q386 695 422 661.5 Q458 628 458 571 Z M234 54 Q234 28 216.5 9.5 Q199 -9 173 -9 Q147 -9 129.5 9 Q112 27 112 53 Q112 79 129.5 96.5 Q147 114 173 114 Q199 114 216.5 96.5 Q234 79 234 54 Z " />
<glyph glyph-name="at" unicode="&#x40;" horiz-adv-x="916" d="M850 277 Q850 211 832.5 157 Q815 103 785 65 Q755 27 715.5 6.5 Q676 -14 633 -14 Q603 -14 583 -6 Q563 2 550.5 15.5 Q538 29 532.5 46 Q527 63 527 81 L527 92 Q528 97 528 102 Q517 82 501 64 Q484 45 463 30.5 Q442 16 417.5 7 Q393 -2 368 -2 Q348 -2 328 6.5 Q308 15 292 33 Q276 51 266.5 78 Q257 105 257 141 Q257 201 274 257 Q291 313 324 356.5 Q357 400 406.5 426.5 Q456 453 521 453 Q557 453 587.5 444 Q618 435 644 421 Q639 405 632.5 378 Q626 351 621 329 L583 148 Q580 132 578 119.5 Q576 107 576 96 Q576 65 590.5 52 Q605 39 636 39 Q666 39 692.5 57.5 Q719 76 738 108.5 Q757 141 768 184 Q779 227 779 277 Q779 339 756 392.5 Q733 446 691.5 486 Q650 526 592 548.5 Q534 571 463 571 Q387 571 327.5 540 Q268 509 226.5 458 Q185 407 163 341 Q141 275 141 204 Q141 134 164 76 Q187 18 227.5 -23 Q268 -64 324 -87 Q380 -110 445 -110 Q486 -110 521.5 -104.5 Q557 -99 582 -91 L595 -145 Q566 -155 526.5 -160 Q487 -165 445 -165 Q367 -165 298.5 -141 Q230 -117 179 -70 Q128 -23 98.5 46 Q69 115 69 204 Q69 292 97.5 369 Q126 446 178 503 Q230 560 302.5 592.5 Q375 625 463 625 Q545 625 615.5 600.5 Q686 576 738 530.5 Q790 485 820 420.5 Q850 356 850 277 Z M565 387 Q555 393 542.5 397 Q530 401 514 401 Q463 401 427.5 376 Q392 351 369.5 312 Q347 273 337 226.5 Q327 180 327 137 Q327 93 342.5 75 Q358 57 389 57 Q407 57 427.5 65.5 Q448 74 467 91.5 Q486 109 501.5 135.5 Q517 162 525 198 L565 387 Z " />
<glyph glyph-name="A" unicode="A" horiz-adv-x="573" d="M429 0 L409 211 L153 211 L42 0 L-45 0 L330 686 L437 686 L518 0 L429 0 Z M367 616 Q365 612 360.5 602.5 Q356 593 350 581 Q344 569 337 555.5 Q330 542 324 531 L189 278 L402 278 L367 616 Z " />
<glyph glyph-name="B" unicode="B" horiz-adv-x="595" d="M578 536 Q578 473 539 428 Q500 383 422 363 Q484 352 511.5 312 Q539 272 539 217 Q539 172 516 130.5 Q493 89 451 55 Q431 39 410.5 28.5 Q390 18 363.5 11.5 Q337 5 303 2.5 Q269 0 222 0 L45 0 L191 686 L368 686 Q430 686 470.5 674.5 Q511 663 535 642.5 Q559 622 568.5 594.5 Q578 567 578 536 Z M449 216 Q449 240 443 259.5 Q437 279 422 293.5 Q407 308 380.5 315.5 Q354 323 314 323 L193 323 L138 67 L273 67 Q317 67 346.5 76.5 Q376 86 397 103 Q424 126 436.5 154 Q449 182 449 216 Z M486 522 Q486 567 458.5 592 Q431 617 362 617 L255 617 L207 391 L331 391 Q368 391 395 399 Q422 407 440 421 Q486 458 486 522 Z " />
<glyph glyph-name="C" unicode="C" horiz-adv-x="561" d="M557 587 Q531 610 502.5 619.5 Q474 629 436 629 Q376 629 326.5 599 Q277 569 240 511 Q221 482 206 447 Q191 412 180.5 375.5 Q170 339 164.5 302.5 Q159 266 159 233 Q159 151 199.5 104.5 Q240 58 321 58 Q359 58 392.5 68.5 Q426 79 464 102 L496 45 Q448 18 396 3.5 Q344 -11 293 -11 Q242 -11 201 6.5 Q160 24 132 56.5 Q104 89 89 135 Q74 181 74 237 Q74 280 82 326 Q90 372 105.5 416.5 Q121 461 144 502.5 Q167 544 198 578 Q248 634 313.5 664.5 Q379 695 445 695 Q493 695 533.5 680 Q574 665 603 638 L557 587 Z " />
<glyph glyph-name="D" unicode="D" horiz-adv-x="624" d="M604 433 Q604 388 592.5 337.5 Q581 287 561 239 Q541 191 515 150 Q489 109 460 83 Q411 39 356 19.5 Q301 0 224 0 L45 0 L191 686 L338 686 Q376 686 404.5 683.5 Q433 681 456.5 675 Q480 669 499 659 Q518 649 536 633 Q604 575 604 433 Z M515 423 Q515 470 509 502 Q503 534 488 557 Q476 577 461.5 589 Q447 601 429 608 Q411 615 389.5 617 Q368 619 341 619 L259 619 L142 68 L215 68 Q285 68 333.5 84.5 Q382 101 413 139 Q438 170 457.5 207.5 Q477 245 489.5 283.5 Q502 322 508.5 358 Q515 394 515 423 Z " />
<glyph glyph-name="E" unicode="E" horiz-adv-x="512" d="M540 618 L259 618 L212 393 L447 393 L431 322 L196 322 L143 71 L445 71 L430 0 L45 0 L191 686 L566 686 L540 618 Z " />
<glyph glyph-name="F" unicode="F" horiz-adv-x="441" d="M524 618 L259 618 L212 393 L432 393 L417 326 L197 326 L128 0 L45 0 L191 686 L552 686 L524 618 Z " />
<glyph glyph-name="G" unicode="G" horiz-adv-x="641" d="M578 577 Q543 605 509.5 615.5 Q476 626 436 626 Q386 626 342.5 607 Q299 588 266 547 Q242 518 223 479.5 Q204 441 190.5 398.5 Q177 356 170 313 Q163 270 163 231 Q163 145 209.5 100 Q256 55 331 55 Q396 55 446 82 L490 291 L352 291 L352 359 L582 359 L514 39 Q472 15 417 1 Q362 -13 309 -13 Q253 -13 209.5 5.5 Q166 24 136 57 Q106 90 90 135 Q74 180 74 232 Q74 282 83 332.5 Q92 383 110 430.5 Q128 478 154.5 520.5 Q181 563 215 597 Q265 647 321.5 669.5 Q378 692 448 692 Q554 692 619 628 L578 577 Z " />
<glyph glyph-name="H" unicode="H" horiz-adv-x="641" d="M496 0 L414 0 L485 332 L196 332 L125 0 L45 0 L191 686 L271 686 L210 399 L499 399 L560 686 L642 686 L496 0 Z " />
<glyph glyph-name="I" unicode="I" horiz-adv-x="270" d="M125 0 L45 0 L191 686 L271 686 L125 0 Z " />
<glyph glyph-name="J" unicode="J" horiz-adv-x="272" d="M152 117 Q140 61 127.5 24.5 Q115 -12 94 -40 Q71 -69 36.5 -91.5 Q2 -114 -41 -128 L-70 -77 Q-40 -66 -14.5 -48 Q11 -30 26 -10 Q40 7 49.5 34.5 Q59 62 70 115 L191 686 L273 686 L152 117 Z " />
<glyph glyph-name="K" unicode="K" horiz-adv-x="561" d="M303 357 L501 12 L415 -15 L209 363 L565 708 L627 663 L303 357 Z M128 0 L45 0 L191 686 L274 686 L128 0 Z " />
<glyph glyph-name="L" unicode="L" horiz-adv-x="463" d="M387 0 L45 0 L191 686 L273 686 L142 69 L413 69 L387 0 Z " />
<glyph glyph-name="M" unicode="M" horiz-adv-x="816" d="M691 0 L609 0 L676 503 Q678 518 681 536 Q684 554 687 570.5 Q690 587 692 600 L695 618 Q684 593 671 563 Q657 532 646 512 L390 0 L320 0 L288 487 Q286 526 284 555 Q282 584 282 618 L246 488 L104 0 L25 0 L231 686 L351 686 L381 238 Q382 220 383 206.5 Q384 193 384 180 Q384 167 383.5 152.5 Q383 138 382 118 Q391 140 397.5 155.5 Q404 171 409 183 Q414 195 419.5 206 Q425 217 431 230 L657 686 L778 686 L691 0 Z " />
<glyph glyph-name="N" unicode="N" horiz-adv-x="646" d="M501 0 L415 0 L284 420 Q275 450 267 478 Q259 506 253.5 529 Q248 552 244 566 Q242 578 241 582 Q240 579 238 566 Q236 549 232 522.5 Q228 496 222.5 463.5 Q217 431 211 398 L130 0 L45 0 L191 686 L286 686 L421 248 Q428 224 434 200.5 Q440 177 444 157 Q448 137 450.5 123 Q453 109 454 105 Q454 107 457 126 Q460 145 465 174.5 Q470 204 476 240.5 Q482 277 490 313 L566 686 L647 686 L501 0 Z " />
<glyph glyph-name="O" unicode="O" horiz-adv-x="686" d="M654 466 Q654 405 643.5 344 Q633 283 612.5 228 Q592 173 561 126.5 Q530 80 489 49 Q444 14 398.5 0.5 Q353 -13 291 -13 Q184 -13 130.5 52.5 Q77 118 77 230 Q77 285 87 340 Q97 395 115 444.5 Q133 494 158 536 Q183 578 212 608 Q257 654 310 676 Q363 698 439 698 Q541 698 597.5 638 Q654 578 654 466 Z M565 474 Q565 546 532 589 Q499 632 425 632 Q371 632 329.5 610.5 Q288 589 261 552 Q219 495 193 406 Q167 317 167 211 Q167 127 204 88.5 Q241 50 309 50 Q353 50 386.5 65 Q420 80 449 109 Q474 134 495.5 177.5 Q517 221 532.5 271.5 Q548 322 556.5 375 Q565 428 565 474 Z " />
<glyph glyph-name="P" unicode="P" horiz-adv-x="557" d="M578 527 Q578 467 555.5 415 Q533 363 482 323 Q450 297 407 285 Q364 273 303 273 L183 273 L125 0 L45 0 L191 686 L369 686 Q428 686 468 673 Q508 660 532.5 638 Q557 616 567.5 587 Q578 558 578 527 Z M489 508 Q489 562 457 589.5 Q425 617 343 617 L256 617 L197 340 L312 340 Q356 340 381 348.5 Q406 357 427 377 Q459 406 474 440.5 Q489 475 489 508 Z " />
<glyph glyph-name="Q" unicode="Q" horiz-adv-x="687" d="M655 466 Q655 405 644.5 344 Q634 283 613.5 228 Q593 173 562 126.5 Q531 80 490 49 Q473 35 452.5 24 Q432 13 414 5 Q434 -2 456 -14 Q478 -26 495 -37 Q508 -45 536 -55 Q564 -65 595 -65 Q609 -65 620.5 -63.5 Q632 -62 637 -60 L613 -114 Q603 -119 588.5 -121.5 Q574 -124 552 -124 Q526 -124 489.5 -109 Q453 -94 417 -72 Q396 -59 379.5 -49.5 Q363 -40 348 -33 Q333 -26 318.5 -21 Q304 -16 287 -13 Q182 -11 130 54 Q78 119 78 230 Q78 285 87.5 339.5 Q97 394 114.5 443 Q132 492 157 534 Q182 576 213 608 Q258 654 311 676 Q364 698 440 698 Q542 698 598.5 638 Q655 578 655 466 Z M566 474 Q566 546 533 589 Q500 632 426 632 Q372 632 330.5 610.5 Q289 589 262 552 Q241 524 223.5 482.5 Q206 441 194 394 Q182 347 175 299 Q168 251 168 211 Q168 127 205 88.5 Q242 50 310 50 Q354 50 387.5 65 Q421 80 450 109 Q475 134 496.5 177.5 Q518 221 533.5 271.5 Q549 322 557.5 375 Q566 428 566 474 Z " />
<glyph glyph-name="R" unicode="R" horiz-adv-x="544" d="M556 526 Q556 478 538 438 Q520 398 489 369.5 Q458 341 417 325 Q376 309 330 309 L320 309 Q344 285 369.5 248.5 Q395 212 426 150 Q433 136 441.5 117.5 Q450 99 457.5 80 Q465 61 472 43 Q479 25 483 12 L411 -12 Q398 20 385 48.5 Q372 77 354 116 Q330 168 309.5 203.5 Q289 239 268 268 Q249 294 233.5 301 Q218 308 193 309 L127 0 L45 0 L191 686 L341 686 Q454 686 505 647.5 Q556 609 556 526 Z M469 511 Q469 568 438 592.5 Q407 617 338 617 L259 617 L205 360 L278 360 Q324 360 354.5 367 Q385 374 410 395 Q433 415 451 445 Q469 475 469 511 Z " />
<glyph glyph-name="S" unicode="S" horiz-adv-x="561" d="M520 581 Q481 609 447 621.5 Q413 634 369 634 Q334 634 305.5 625.5 Q277 617 257 601.5 Q237 586 225.5 565 Q214 544 214 519 Q214 498 218 482 Q222 466 231.5 453.5 Q241 441 258 430 Q275 419 301 408 L373 377 Q436 350 461 308 Q486 266 486 204 Q486 159 467 119.5 Q448 80 411.5 50.5 Q375 21 322.5 4 Q270 -13 204 -13 Q147 -13 102 0 Q57 13 15 41 L55 106 Q93 80 130 67 Q167 54 219 54 Q260 54 293 64.5 Q326 75 349.5 93.5 Q373 112 385.5 137.5 Q398 163 398 192 Q398 213 394 230 Q390 247 379.5 261.5 Q369 276 351 288 Q333 300 305 312 L243 338 Q182 364 154 402 Q126 440 126 502 Q126 546 145.5 582.5 Q165 619 198.5 645.5 Q232 672 278.5 686.5 Q325 701 379 701 Q432 701 479.5 685.5 Q527 670 563 642 L520 581 Z " />
<glyph glyph-name="T" unicode="T" horiz-adv-x="464" d="M555 617 L369 617 L238 0 L159 0 L290 617 L106 617 L121 686 L575 686 L555 617 Z " />
<glyph glyph-name="U" unicode="U" horiz-adv-x="635" d="M540 209 Q532 172 524.5 146 Q517 120 507.5 100.5 Q498 81 485.5 66.5 Q473 52 454 38 Q416 11 373 -0.5 Q330 -12 271 -12 Q229 -12 194 -3.5 Q159 5 133.5 23 Q108 41 93.5 68.5 Q79 96 79 135 Q79 149 81 174.5 Q83 200 88 226 L186 686 L267 686 L174 247 Q165 204 162 180 Q159 156 159 142 Q159 102 190.5 80 Q222 58 280 58 Q323 58 356.5 69 Q390 80 410 101 Q420 111 427.5 122 Q435 133 440.5 146 Q446 159 451 176.5 Q456 194 461 218 L560 686 L641 686 L540 209 Z " />
<glyph glyph-name="V" unicode="V" horiz-adv-x="577" d="M277 0 L196 0 L111 686 L196 686 L248 246 Q251 223 252.5 199.5 Q254 176 254.5 154.5 Q255 133 255 116 L255 93 Q266 117 283.5 152.5 Q301 188 327 236 L570 686 L658 686 L277 0 Z " />
<glyph glyph-name="W" unicode="W" horiz-adv-x="802" d="M580 0 L473 0 L469 381 Q468 485 475 576 Q467 556 457.5 531 Q448 506 437.5 480.5 Q427 455 417 430.5 Q407 406 399 387 L233 0 L127 0 L111 686 L195 686 L197 285 Q197 231 194.5 179 Q192 127 189 76 Q206 121 227 172 Q248 223 271 275 L449 686 L542 686 L546 288 Q547 225 546.5 168 Q546 111 542 76 Q548 94 557.5 118.5 Q567 143 578.5 171 Q590 199 602.5 229 Q615 259 627 288 L797 686 L883 686 L580 0 Z " />
<glyph glyph-name="X" unicode="X" horiz-adv-x="491" d="M323 358 L467 0 L373 0 L262 295 L44 0 L-56 0 L232 368 L111 686 L202 686 L291 437 L472 686 L572 686 L323 358 Z " />
<glyph glyph-name="Y" unicode="Y" horiz-adv-x="539" d="M318 267 L261 0 L176 0 L234 272 L101 686 L198 686 L272 424 Q277 405 282.5 384.5 Q288 364 291 347 Q302 364 315.5 383.5 Q329 403 344 424 L532 686 L630 686 L318 267 Z " />
<glyph glyph-name="Z" unicode="Z" horiz-adv-x="523" d="M169 135 Q154 116 141 101 Q128 86 113 69 Q131 70 143 70 L444 70 L418 0 L9 0 L9 63 L410 552 Q424 568 439 586 Q454 604 468 618 Q454 617 437 617 L141 617 L169 686 L561 686 L561 621 L169 135 Z " />
<glyph glyph-name="bracketleft" unicode="&#x5b;" horiz-adv-x="285" d="M353 672 L260 672 L97 -96 L190 -96 L177 -156 L12 -156 L201 732 L366 732 L353 672 Z " />
<glyph glyph-name="backslash" unicode="&#x5c;" horiz-adv-x="416" d="M265 -39 L127 731 L197 745 L335 -23 L265 -39 Z " />
<glyph glyph-name="bracketright" unicode="&#x5d;" horiz-adv-x="285" d="M107 -156 L-58 -156 L-45 -96 L48 -96 L211 672 L118 672 L131 732 L296 732 L107 -156 Z " />
<glyph glyph-name="asciicircum" unicode="&#x5e;" horiz-adv-x="638" d="M507 275 L402 624 L149 275 L75 275 L390 708 L450 708 L581 275 L507 275 Z " />
<glyph glyph-name="underscore" unicode="&#x5f;" horiz-adv-x="508" d="M427 -131 L-73 -131 L-61 -72 L439 -72 L427 -131 Z " />
<glyph glyph-name="grave" unicode="&#x60;" horiz-adv-x="329" d="M347 565 L124 665 L167 742 L373 612 L347 565 Z " />
<glyph glyph-name="a" unicode="a" horiz-adv-x="541" d="M500 471 Q495 453 487 422.5 Q479 392 474 367 L431 161 Q422 117 422 93 Q422 70 429 56.5 Q436 43 448 29 L386 -19 Q366 1 357 22 Q348 43 348 72 L348 81 Q348 85 349 90 Q323 45 278.5 18 Q234 -9 176 -9 Q153 -9 131.5 0 Q110 9 93.5 28.5 Q77 48 67 78 Q57 108 57 149 Q57 186 64 224.5 Q71 263 84.5 300 Q98 337 117 370 Q136 403 161 428 Q200 468 251 490 Q302 512 360 512 Q442 512 500 471 Z M413 435 Q390 449 353 449 Q306 449 273 432 Q240 415 208 377 Q189 354 176 326 Q163 298 154.5 267.5 Q146 237 142 206.5 Q138 176 138 148 Q138 98 156.5 78 Q175 58 210 58 Q250 58 291 91.5 Q332 125 359 178 L413 435 Z " />
<glyph glyph-name="b" unicode="b" horiz-adv-x="572" d="M522 345 Q522 255 489.5 178.5 Q457 102 406 53 Q372 21 330 4.5 Q288 -12 245 -12 Q198 -12 145.5 1.5 Q93 15 53 49 Q57 61 62.5 83 Q68 105 72 124 L163 553 Q168 578 170.5 602.5 Q173 627 173 649 Q173 684 167 705 L250 737 Q253 726 255 711.5 Q257 697 257 680 Q257 631 243 564 L229 497 Q225 478 218 452.5 Q211 427 205 405 Q237 450 286.5 479.5 Q336 509 387 509 Q456 509 489 466 Q522 423 522 345 Z M436 344 Q436 389 416.5 413.5 Q397 438 355 438 Q315 438 274 409 Q233 380 191 326 L140 84 Q160 67 185 60.5 Q210 54 245 54 Q273 54 304.5 69 Q336 84 353 104 Q373 126 388.5 156 Q404 186 414.5 218 Q425 250 430.5 282.5 Q436 315 436 344 Z " />
<glyph glyph-name="c" unicode="c" horiz-adv-x="450" d="M418 408 Q395 428 369.5 435.5 Q344 443 317 443 Q288 443 259.5 428 Q231 413 211 387 Q198 369 185.5 342 Q173 315 163 284 Q153 253 147 220.5 Q141 188 141 159 Q141 106 164 78.5 Q187 51 235 51 Q297 51 354 105 L386 55 Q344 20 305.5 4.5 Q267 -11 220 -11 Q136 -11 96.5 32 Q57 75 57 158 Q57 200 67.5 244 Q78 288 96 328 Q114 368 137 401 Q160 434 185 454 Q254 511 334 511 Q407 511 455 469 L418 408 Z " />
<glyph glyph-name="d" unicode="d" horiz-adv-x="570" d="M459 161 Q450 117 450 93 Q450 70 456.5 57 Q463 44 475 29 L408 -21 Q391 -4 380.5 16 Q370 36 370 69 L371 86 Q335 38 293 15.5 Q251 -7 196 -7 Q125 -7 91 36 Q57 79 57 160 Q57 236 85.5 309 Q114 382 168 436 Q204 473 252 490.5 Q300 508 341 508 Q383 508 407.5 503.5 Q432 499 451 489 L502 730 L578 717 L459 161 Z M435 422 Q412 434 393 438.5 Q374 443 339 443 Q310 443 276 428 Q242 413 219 388 Q202 370 187.5 341.5 Q173 313 162.5 281 Q152 249 146 216.5 Q140 184 140 156 Q140 59 213 59 Q257 59 301.5 86 Q346 113 384 178 L435 422 Z " />
<glyph glyph-name="e" unicode="e" horiz-adv-x="505" d="M473 383 Q473 351 460.5 325 Q448 299 427 279 Q395 250 344.5 236 Q294 222 212 222 Q198 222 182.5 222.5 Q167 223 150 224 Q143 192 143 161 Q143 108 172.5 81 Q202 54 242 54 Q288 54 320.5 66.5 Q353 79 388 111 L421 63 Q402 44 382.5 30 Q363 16 339 7 Q315 -2 285.5 -6.5 Q256 -11 219 -11 Q184 -11 154.5 1 Q125 13 103 36 Q81 59 68.5 92.5 Q56 126 56 169 Q56 205 63 242.5 Q70 280 83.5 316 Q97 352 118 384.5 Q139 417 166 442 Q240 512 330 512 Q401 512 437 477 Q473 442 473 383 Z M394 381 Q394 410 377 430 Q360 450 318 450 Q294 450 270.5 438.5 Q247 427 226.5 405 Q206 383 189.5 352.5 Q173 322 163 283 Q174 282 188 282 L214 282 Q248 282 272.5 284.5 Q297 287 315.5 291.5 Q334 296 346.5 303 Q359 310 369 320 Q394 345 394 381 Z " />
<glyph glyph-name="f" unicode="f" horiz-adv-x="286" d="M399 640 Q365 663 325 663 Q292 663 269.5 640.5 Q247 618 239 575 L225 498 L363 498 L328 439 L214 439 L124 -14 Q110 -83 93 -127.5 Q76 -172 47 -208 L-17 -173 Q6 -141 21.5 -103 Q37 -65 48 -7 L135 439 L84 439 L95 498 L146 498 L159 565 Q178 662 235 699 Q255 713 278.5 718.5 Q302 724 330 724 Q362 724 385.5 718 Q409 712 428 699 L399 640 Z " />
<glyph glyph-name="g" unicode="g" horiz-adv-x="570" d="M531 469 Q526 455 517.5 424.5 Q509 394 502 362 L455 137 Q451 120 447.5 100 Q444 80 440 60.5 Q436 41 433 24 Q430 7 427 -3 Q413 -58 392 -96.5 Q371 -135 339.5 -159 Q308 -183 266 -193.5 Q224 -204 169 -204 Q124 -204 83 -193.5 Q42 -183 -6 -159 L23 -96 Q62 -119 97 -128.5 Q132 -138 176 -138 Q213 -138 241.5 -132.5 Q270 -127 290.5 -113 Q311 -99 324.5 -75 Q338 -51 347 -14 L368 77 Q330 28 289.5 9.5 Q249 -9 193 -9 Q130 -9 93.5 34.5 Q57 78 57 159 Q57 199 66 239.5 Q75 280 90.5 317 Q106 354 127.5 385 Q149 416 173 438 Q255 513 365 513 Q393 513 415.5 510.5 Q438 508 457.5 503 Q477 498 494.5 489.5 Q512 481 531 469 Z M441 429 Q424 437 404 440.5 Q384 444 358 444 Q322 444 290 432.5 Q258 421 229 393 Q211 376 195 348 Q179 320 167 287.5 Q155 255 148 221.5 Q141 188 141 161 Q141 105 162.5 81.5 Q184 58 222 58 Q265 58 307 85 Q349 112 388 178 L441 429 Z " />
<glyph glyph-name="h" unicode="h" horiz-adv-x="567" d="M506 416 Q506 394 498 357 L422 0 L345 0 L416 336 Q419 350 421.5 364.5 Q424 379 424 387 Q424 414 409 427.5 Q394 441 370 441 Q352 441 330 433 Q308 425 284.5 410 Q261 395 237 374 Q213 353 192 326 L123 0 L45 0 L162 550 Q183 649 167 705 L250 737 Q259 705 256 656.5 Q253 608 240 549 L229 497 Q227 490 224.5 478 Q222 466 218 453 Q214 440 210.5 427 Q207 414 204 404 Q249 461 302.5 485 Q356 509 401 509 Q450 509 478 481.5 Q506 454 506 416 Z " />
<glyph glyph-name="i" unicode="i" horiz-adv-x="273" d="M128 0 L45 0 L151 496 L236 509 L128 0 Z M287 652 Q287 626 269.5 608.5 Q252 591 226 591 Q200 591 182.5 608.5 Q165 626 165 651 Q165 677 182.5 695 Q200 713 226 713 Q252 713 269.5 695.5 Q287 678 287 652 Z " />
<glyph glyph-name="j" unicode="j" horiz-adv-x="269" d="M127 13 Q117 -34 103 -68 Q89 -102 70 -126.5 Q51 -151 25.5 -168 Q0 -185 -34 -198 L-62 -146 Q-37 -135 -19.5 -122.5 Q-2 -110 10.5 -92 Q23 -74 32 -47.5 Q41 -21 49 17 L150 494 L233 510 L127 13 Z M285 661 Q284 635 267 617 Q250 599 224 599 Q198 599 180 616.5 Q162 634 162 659 Q163 685 180.5 703.5 Q198 722 224 722 Q250 722 267.5 704 Q285 686 285 661 Z " />
<glyph glyph-name="k" unicode="k" horiz-adv-x="471" d="M250 737 Q253 726 255 711 Q257 696 257 678 Q257 655 254 627.5 Q251 600 245 571 L123 0 L45 0 L163 554 Q174 604 174 650 Q174 685 167 705 L250 737 Z M277 281 L446 16 L369 -15 L188 288 L444 519 L499 474 L277 281 Z " />
<glyph glyph-name="l" unicode="l" horiz-adv-x="269" d="M250 737 Q254 726 255.5 711.5 Q257 697 257 680 Q257 650 252.5 617 Q248 584 242 555 L147 110 Q142 87 142 74 Q142 50 163 50 L173 50 Q178 50 182 52 L187 1 Q171 -6 156.5 -8 Q142 -10 126 -10 Q95 -10 77.5 5 Q60 20 60 49 Q60 59 61.5 69.5 Q63 80 65 92 L163 555 Q168 582 171 605 Q174 628 174 648 Q174 665 172 679.5 Q170 694 167 705 L250 737 Z " />
<glyph glyph-name="m" unicode="m" horiz-adv-x="812" d="M751 414 Q751 403 748.5 387 Q746 371 743 356 L667 0 L587 0 L661 348 Q667 373 667 396 Q667 440 618 440 Q603 440 584.5 431.5 Q566 423 545 408 Q524 393 502.5 372 Q481 351 461 327 L391 0 L312 0 L384 340 Q388 357 391 374 Q394 391 394 398 Q394 417 385.5 428.5 Q377 440 354 440 Q325 440 279.5 410.5 Q234 381 189 325 L120 0 L45 0 L121 357 Q126 383 129 401 Q132 419 132 433 Q132 455 125 479 L198 513 Q210 486 210 455 Q210 442 208 429 Q206 416 203 403 Q255 463 302 486 Q349 509 387 509 Q432 509 452 481 Q472 453 472 404 Q523 463 572 487 Q621 511 659 511 Q681 511 698.5 502.5 Q716 494 727.5 480.5 Q739 467 745 449.5 Q751 432 751 414 Z " />
<glyph glyph-name="n" unicode="n" horiz-adv-x="556" d="M495 410 Q495 394 492 378 L411 0 L332 0 L404 337 Q409 357 410.5 369.5 Q412 382 412 391 Q412 441 364 441 Q334 441 287.5 414.5 Q241 388 190 325 L121 0 L45 0 L121 356 Q127 382 129.5 400 Q132 418 132 432 Q132 455 125 479 L198 513 Q203 498 206.5 484 Q210 470 210 453 Q210 431 203 403 Q244 457 296 483 Q348 509 396 509 Q442 509 468.5 482.5 Q495 456 495 410 Z " />
<glyph glyph-name="o" unicode="o" horiz-adv-x="541" d="M497 332 Q497 260 476.5 197 Q456 134 419.5 87.5 Q383 41 332 14 Q281 -13 220 -13 Q139 -13 95 34.5 Q51 82 51 167 Q51 241 72 304.5 Q93 368 130 414.5 Q167 461 218 487 Q269 513 328 513 Q415 513 456 463 Q497 413 497 332 Z M411 341 Q411 400 382 424.5 Q353 449 314 449 Q272 449 239 427 Q206 405 183.5 366.5 Q161 328 149 275.5 Q137 223 137 162 Q137 103 162 77.5 Q187 52 235 52 Q278 52 311 75.5 Q344 99 366 139 Q388 179 399.5 231.5 Q411 284 411 341 Z " />
<glyph glyph-name="p" unicode="p" horiz-adv-x="563" d="M514 348 Q514 315 508 277.5 Q502 240 490.5 204 Q479 168 463 135 Q447 102 427 78 Q391 34 341.5 11 Q292 -12 243 -12 Q205 -12 177 -6 Q149 0 125 13 L81 -193 L0 -208 L121 357 Q126 383 129 401 Q132 419 132 433 Q132 446 130 456.5 Q128 467 124 479 L197 513 Q203 499 206.5 485 Q210 471 210 453 Q210 443 208.5 432 Q207 421 205 407 Q245 460 294.5 484 Q344 508 386 508 Q451 508 482.5 464.5 Q514 421 514 348 Z M429 343 Q429 395 411 416.5 Q393 438 356 438 Q318 438 274.5 410 Q231 382 191 328 L139 83 Q158 67 184 60 Q210 53 242 53 Q277 53 311.5 72 Q346 91 365 119 Q378 139 390 166.5 Q402 194 410.5 224 Q419 254 424 285 Q429 316 429 343 Z " />
<glyph glyph-name="q" unicode="q" horiz-adv-x="565" d="M527 469 Q522 455 513.5 424.5 Q505 394 498 362 L381 -187 L303 -203 L364 77 Q326 28 285.5 9.5 Q245 -9 189 -9 Q126 -9 91.5 34.5 Q57 78 57 159 Q57 199 65.5 239.5 Q74 280 89 317 Q104 354 124.5 385 Q145 416 169 438 Q251 513 361 513 Q389 513 411.5 510.5 Q434 508 453.5 503 Q473 498 490.5 489.5 Q508 481 527 469 Z M437 432 Q420 440 400 443.5 Q380 447 354 447 Q282 447 225 393 Q207 376 192 348 Q177 320 165.5 287.5 Q154 255 147.5 221.5 Q141 188 141 161 Q141 105 160.5 81.5 Q180 58 218 58 Q261 58 303 85 Q345 112 384 178 L437 432 Z " />
<glyph glyph-name="r" unicode="r" horiz-adv-x="363" d="M364 421 Q357 423 350.5 424 Q344 425 333 425 Q298 425 260.5 395.5 Q223 366 187 312 L121 0 L45 0 L117 338 Q130 399 130 431 Q130 457 123 479 L196 513 Q202 498 205 485 Q208 472 208 457 Q208 444 206 429 Q204 414 200 394 Q218 421 239 443 Q260 465 281 480 Q302 495 322.5 503 Q343 511 361 511 Q375 511 382.5 509.5 Q390 508 398 506 L364 421 Z " />
<glyph glyph-name="s" unicode="s" horiz-adv-x="467" d="M400 420 Q371 436 343.5 446 Q316 456 283 456 Q234 456 202 436.5 Q170 417 170 382 Q170 356 181 341 Q192 326 224 312 L287 285 Q345 260 368.5 230.5 Q392 201 392 159 Q392 118 375.5 86 Q359 54 330 32 Q301 10 261.5 -2 Q222 -14 175 -14 Q127 -14 81.5 -1.5 Q36 11 3 34 L35 94 Q103 47 183 47 Q235 47 269.5 70 Q304 93 304 131 Q304 162 291 180 Q278 198 241 215 L182 241 Q130 264 107.5 291.5 Q85 319 85 363 Q85 397 99.5 425.5 Q114 454 141 474.5 Q168 495 205.5 506.5 Q243 518 288 518 Q327 518 365.5 508 Q404 498 432 480 L400 420 Z " />
<glyph glyph-name="t" unicode="t" horiz-adv-x="306" d="M322 439 L214 439 L152 147 Q145 116 145 93 Q145 65 157 54.5 Q169 44 195 44 Q212 44 223.5 46.5 Q235 49 247 54 L247 4 Q226 -6 203.5 -11 Q181 -16 155 -16 Q111 -16 89 5 Q67 26 67 65 Q67 79 69 98.5 Q71 118 75 138 L138 439 L73 439 L84 498 L150 498 Q158 528 167 561.5 Q176 595 185 624 L270 642 Q265 628 259.5 610 Q254 592 248 572.5 Q242 553 237 533.5 Q232 514 229 498 L353 498 L322 439 Z " />
<glyph glyph-name="u" unicode="u" horiz-adv-x="557" d="M445 153 Q440 130 437.5 114.5 Q435 99 435 87 Q435 69 441 56.5 Q447 44 458 29 L397 -21 Q379 -4 369 17 Q359 38 359 69 L359 79 Q359 84 360 89 Q313 33 265 8 Q217 -17 170 -17 Q120 -17 92.5 6 Q65 29 65 83 Q65 101 67.5 121.5 Q70 142 73 156 L145 494 L225 509 L155 174 Q151 154 148.5 138 Q146 122 146 109 Q146 76 157 63 Q168 50 195 50 Q232 50 282 81 Q332 112 373 177 L440 493 L520 506 L445 153 Z " />
<glyph glyph-name="v" unicode="v" horiz-adv-x="461" d="M219 -5 L142 -5 L69 494 L148 511 L191 168 Q194 144 195.5 122 Q197 100 197 83 L199 83 Q208 105 217 123 Q226 141 241 167 L425 498 L513 498 L219 -5 Z " />
<glyph glyph-name="w" unicode="w" horiz-adv-x="684" d="M478 -4 L404 -4 L374 401 L372 401 Q370 394 363 377.5 Q356 361 351 350 L175 -4 L102 -4 L70 494 L149 511 L159 182 Q160 151 159.5 127.5 Q159 104 159 99 L162 99 Q167 110 176 130.5 Q185 151 195 171 L354 498 L438 498 L455 167 Q455 156 456 144 Q457 132 457.5 121 Q458 110 458.5 102.5 Q459 95 459 94 L461 94 Q462 97 466 105.5 Q470 114 474 124 L491 163 L641 498 L726 498 L478 -4 Z " />
<glyph glyph-name="x" unicode="x" horiz-adv-x="411" d="M257 275 L389 0 L297 0 L207 215 L28 0 L-67 0 L178 276 L71 498 L165 498 L229 332 L360 498 L453 498 L257 275 Z " />
<glyph glyph-name="y" unicode="y" horiz-adv-x="461" d="M272 76 Q227 -7 193 -68.5 Q159 -130 118 -162 Q100 -176 74 -188 Q48 -200 21 -205 L3 -152 Q25 -150 49.5 -136 Q74 -122 91 -106 Q108 -91 123.5 -65.5 Q139 -40 155 0 L123 -4 Q123 8 122 30.5 Q121 53 119.5 79 Q118 105 115.5 130.5 Q113 156 111 175 L70 492 L152 509 L186 190 Q187 174 188 155.5 Q189 137 189.5 119 Q190 101 189.5 87 Q189 73 189 66 L191 66 L245 171 L412 498 L502 498 L272 76 Z " />
<glyph glyph-name="z" unicode="z" horiz-adv-x="412" d="M71 60 L347 60 L311 0 L-26 0 L-26 60 L322 436 L88 436 L88 498 L419 498 L419 436 L71 60 Z " />
<glyph glyph-name="braceleft" unicode="&#x7b;" horiz-adv-x="331" d="M399 672 L345 672 Q329 672 318 665.5 Q307 659 299.5 647.5 Q292 636 287 622 Q282 608 279 593 L242 417 Q235 383 220 359.5 Q205 336 187.5 321 Q170 306 154 298.5 Q138 291 129 289 L128 287 Q135 286 146 281.5 Q157 277 167.5 266.5 Q178 256 185 239.5 Q192 223 192 198 Q192 189 190.5 179 Q189 169 187 158 L150 -17 Q148 -27 146.5 -36 Q145 -45 145 -54 Q145 -72 153 -84 Q161 -96 182 -96 L236 -96 L223 -156 L153 -156 Q121 -156 96 -132.5 Q71 -109 71 -64 Q71 -61 71.5 -54 Q72 -47 76 -26.5 Q80 -6 88.5 34 Q97 74 112 144 Q116 160 116 176 Q116 215 96 236.5 Q76 258 50 258 L63 318 Q79 318 96 326 Q113 334 128 348.5 Q143 363 155 384 Q167 405 173 431 L210 607 Q216 637 231 660.5 Q246 684 264.5 700 Q283 716 303.5 724 Q324 732 342 732 L412 732 L399 672 Z " />
<glyph glyph-name="bar" unicode="&#x7c;" horiz-adv-x="256" d="M67 -208 L1 -208 L206 756 L272 756 L67 -208 Z " />
<glyph glyph-name="braceright" unicode="&#x7d;" horiz-adv-x="331" d="M291 258 Q275 258 258 250.5 Q241 243 226 228 Q211 213 199 192 Q187 171 181 144 L144 -31 Q138 -61 123.5 -84.5 Q109 -108 90.5 -124 Q72 -140 51.5 -148 Q31 -156 12 -156 L-58 -156 L-45 -96 L9 -96 Q25 -96 36 -89 Q47 -82 54.5 -71 Q62 -60 67 -46 Q72 -32 75 -17 L112 158 Q120 195 135.5 219.5 Q151 244 168 258.5 Q185 273 200.5 279.5 Q216 286 225 287 L226 289 Q219 291 208 296.5 Q197 302 187 313 Q177 324 170 341 Q163 358 163 382 Q163 390 164 398.5 Q165 407 167 417 L204 593 Q209 615 209 631 Q209 649 201 660.5 Q193 672 172 672 L118 672 L131 732 L201 732 Q231 732 256.5 708.5 Q282 685 282 639 Q282 623 279 607 L241 428 Q238 413 238 400 Q238 362 258 340 Q278 318 304 318 L291 258 Z " />
<glyph glyph-name="asciitilde" unicode="&#x7e;" horiz-adv-x="609" d="M544 324 Q529 308 513 292.5 Q497 277 479.5 264.5 Q462 252 442 244 Q422 236 399 236 Q372 236 349.5 245.5 Q327 255 304 266 Q278 279 253.5 291.5 Q229 304 197 304 Q164 304 139.5 282 Q115 260 98 234 L75 282 Q90 298 105.5 313.5 Q121 329 138.5 341.5 Q156 354 176 362 Q196 370 219 370 Q246 370 269 360.5 Q292 351 314 340 Q340 327 364.5 314.5 Q389 302 421 302 Q454 302 478.5 324 Q503 346 521 372 L544 324 Z " />
<glyph glyph-name="uni00A0" unicode="&#xa0;" horiz-adv-x="225" d="" />
<glyph glyph-name="exclamdown" unicode="&#xa1;" horiz-adv-x="295" d="M107 -193 L6 -206 L132 295 L192 295 L107 -193 Z M252 438 Q252 412 234.5 394.5 Q217 377 191 377 Q165 377 147.5 394.5 Q130 412 130 437 Q130 463 147.5 481.5 Q165 500 191 500 Q217 500 234.5 482 Q252 464 252 438 Z " />
<glyph glyph-name="cent" unicode="&#xa2;" horiz-adv-x="622" d="M468 403 Q451 420 438 428.5 Q425 437 410 440 L328 54 Q376 64 418 105 L450 55 Q415 26 382.5 10.5 Q350 -5 314 -9 L298 -85 L243 -85 L259 -10 Q173 -2 141 64 Q120 107 120 160 Q120 178 122.5 198 Q125 218 130 241 Q147 323 179.5 373.5 Q212 424 251 456 Q280 480 308.5 492.5 Q337 505 369 509 L386 586 L441 586 L424 509 Q459 504 481 490 Q503 476 522 457 L468 403 Z M355 440 Q332 434 311 420.5 Q290 407 275 387 Q236 334 213 224 Q205 184 205 156 Q205 68 272 53 L355 440 Z " />
<glyph glyph-name="sterling" unicode="&#xa3;" horiz-adv-x="622" d="M596 601 Q557 648 492 648 Q455 648 427.5 635.5 Q400 623 380.5 600 Q361 577 348.5 545 Q336 513 327 474 L310 396 L472 396 L458 330 L296 330 L243 78 L489 78 L472 0 L34 0 L51 78 L159 78 L212 330 L116 330 L130 396 L226 396 L243 476 Q257 541 283 587.5 Q309 634 344.5 663.5 Q380 693 422 706.5 Q464 720 509 720 Q554 720 592.5 705 Q631 690 657 658 L596 601 Z " />
<glyph glyph-name="currency" unicode="&#xa4;" horiz-adv-x="622" d="M461 392 Q469 385 475 367 Q481 349 481 321 Q481 300 477 276 Q473 252 465 228.5 Q457 205 444 184 Q431 163 413 149 L444 85 L377 47 L349 110 Q335 104 318 101.5 Q301 99 283 99 Q265 99 248 101.5 Q231 104 217 110 L164 44 L105 90 L164 154 Q148 176 148 219 Q148 243 153 268.5 Q158 294 168 318 Q178 342 191.5 362.5 Q205 383 222 397 L191 458 L262 496 L287 433 Q314 440 348 440 Q365 440 379.5 438.5 Q394 437 406 432 L456 497 L516 455 L461 392 Z M406 261 Q409 276 411 289 Q413 302 413 314 Q413 348 396 367 Q379 386 337 386 Q287 386 260 355 Q233 324 223 279 Q217 250 217 228 Q217 154 293 154 Q340 154 367.5 182 Q395 210 406 261 Z " />
<glyph glyph-name="yen" unicode="&#xa5;" horiz-adv-x="622" d="M429 374 L578 374 L565 315 L385 315 L349 267 L339 219 L545 219 L532 160 L326 160 L292 0 L207 0 L241 160 L47 160 L60 219 L254 219 L265 272 L251 315 L80 315 L93 374 L232 374 L132 686 L225 686 L299 424 Q304 406 309.5 385 Q315 364 318 347 Q329 364 342.5 383.5 Q356 403 371 424 L559 686 L661 686 L429 374 Z " />
<glyph glyph-name="brokenbar" unicode="&#xa6;" horiz-adv-x="255" d="M184 346 L118 346 L205 756 L271 756 L184 346 Z M67 -208 L1 -208 L88 202 L154 202 L67 -208 Z " />
<glyph glyph-name="section" unicode="&#xa7;" horiz-adv-x="527" d="M462 594 Q454 626 429 640.5 Q404 655 361 655 Q336 655 313.5 647.5 Q291 640 274 626.5 Q257 613 247 595 Q237 577 237 556 Q237 536 247.5 519 Q258 502 279 490 L358 445 Q382 431 403 417 Q424 403 439.5 386.5 Q455 370 464.5 350 Q474 330 474 305 Q474 278 465 254.5 Q456 231 440 211 Q424 191 403.5 175 Q383 159 359 147 Q381 130 394 106.5 Q407 83 407 54 Q407 17 392 -18.5 Q377 -54 347 -82 Q317 -110 271.5 -127 Q226 -144 164 -144 Q132 -144 103 -136.5 Q74 -129 51.5 -114 Q29 -99 14 -76 Q-1 -53 -7 -21 L68 12 Q73 -34 104 -53 Q135 -72 185 -72 Q251 -72 283.5 -41 Q316 -10 316 35 Q316 52 308 65 Q300 78 288 88 Q276 98 262 106 Q248 114 236 121 L131 183 Q105 198 91 223.5 Q77 249 77 281 Q77 312 88 337.5 Q99 363 117 383.5 Q135 404 159.5 420 Q184 436 211 448 Q185 465 169.5 487 Q154 509 154 540 Q154 582 172.5 616 Q191 650 221.5 675 Q252 700 292 713.5 Q332 727 374 727 Q402 727 429 721.5 Q456 716 478.5 704.5 Q501 693 517 675 Q533 657 539 632 L462 594 Z M395 285 Q395 302 387.5 316 Q380 330 368.5 341.5 Q357 353 343 362 Q329 371 316 378 L264 407 Q244 401 225 392 Q206 383 191 370.5 Q176 358 166.5 341 Q157 324 157 302 Q157 273 177 256.5 Q197 240 223 226 L303 181 Q319 187 335 197 Q351 207 364.5 220.5 Q378 234 386.5 250.5 Q395 267 395 285 Z " />
<glyph glyph-name="dieresis" unicode="&#xa8;" horiz-adv-x="422" d="M448 621 Q448 599 433 583.5 Q418 568 397 568 Q375 568 359.5 583.5 Q344 599 344 621 Q344 642 359 657 Q374 672 396 672 Q417 672 432.5 657 Q448 642 448 621 Z M241 621 Q241 599 226.5 583.5 Q212 568 190 568 Q168 568 153 583.5 Q138 599 138 621 Q138 642 153 657 Q168 672 189 672 Q211 672 226 657 Q241 642 241 621 Z " />
<glyph glyph-name="copyright" unicode="&#xa9;" horiz-adv-x="890" d="M843 354 Q843 274 813.5 206 Q784 138 733 88.5 Q682 39 614.5 10.5 Q547 -18 471 -18 Q395 -18 327.5 10.5 Q260 39 209 88.5 Q158 138 128.5 206 Q99 274 99 354 Q99 433 128.5 501.5 Q158 570 209 619.5 Q260 669 327.5 697.5 Q395 726 471 726 Q547 726 614.5 697.5 Q682 669 733 619.5 Q784 570 813.5 501.5 Q843 433 843 354 Z M777 354 Q777 421 753 479.5 Q729 538 687.5 580.5 Q646 623 590.5 647.5 Q535 672 471 672 Q407 672 351 647.5 Q295 623 254 580.5 Q213 538 189 479.5 Q165 421 165 354 Q165 286 189 228 Q213 170 254 127.5 Q295 85 351 60.5 Q407 36 471 36 Q535 36 590.5 60.5 Q646 85 687.5 127.5 Q729 170 753 228 Q777 286 777 354 Z M597 173 Q548 138 486 138 Q445 138 412.5 154.5 Q380 171 357 200 Q312 259 312 348 Q312 384 319 414.5 Q326 445 339 471 Q362 516 401 541 Q440 566 488 566 Q517 566 543.5 557.5 Q570 549 589 533 L561 495 Q544 508 526.5 513.5 Q509 519 488 519 Q425 519 396 460 Q386 440 381 413.5 Q376 387 376 349 Q376 314 379.5 292 Q383 270 391 252 Q406 217 433 201 Q460 185 493 185 Q517 185 534.5 191 Q552 197 569 210 L597 173 Z " />
<glyph glyph-name="ordfeminine" unicode="&#xaa;" horiz-adv-x="438" d="M457 732 Q452 716 446.5 693 Q441 670 437 651 L404 493 Q398 464 398 448 Q398 431 403.5 420 Q409 409 420 398 L368 358 Q351 375 343.5 390.5 Q336 406 336 428 L336 432 Q316 402 283.5 384 Q251 366 210 366 Q193 366 176 373 Q159 380 145.5 395 Q132 410 124 433 Q116 456 116 488 Q116 516 121 545.5 Q126 575 136 603 Q146 631 161 656 Q176 681 195 700 Q224 730 264 747 Q304 764 348 764 Q413 764 457 732 Z M384 701 Q376 706 365.5 707.5 Q355 709 343 709 Q309 709 283.5 697 Q258 685 235 657 Q207 623 195.5 576.5 Q184 530 184 488 Q184 453 197.5 438.5 Q211 424 236 424 Q265 424 295 449 Q325 474 345 513 L384 701 Z M383 240 L70 240 L82 294 L395 294 L383 240 Z " />
<glyph glyph-name="guillemotleft" unicode="&#xab;" horiz-adv-x="521" d="M333 233 L421 59 L361 26 L253 244 L452 454 L506 414 L333 233 Z M147 233 L235 59 L175 26 L67 244 L266 454 L320 414 L147 233 Z " />
<glyph glyph-name="logicalnot" unicode="&#xac;" horiz-adv-x="499" d="M410 77 L339 77 L369 217 L51 217 L66 288 L455 288 L410 77 Z " />
<glyph glyph-name="uni00AD" unicode="&#xad;" horiz-adv-x="341" d="M270 229 L79 229 L95 305 L286 305 L270 229 Z " />
<glyph glyph-name="registered" unicode="&#xae;" horiz-adv-x="890" d="M843 354 Q843 274 813.5 206 Q784 138 733 88.5 Q682 39 614.5 10.5 Q547 -18 471 -18 Q395 -18 327.5 10.5 Q260 39 209 88.5 Q158 138 128.5 206 Q99 274 99 354 Q99 433 128.5 501.5 Q158 570 209 619.5 Q260 669 327.5 697.5 Q395 726 471 726 Q547 726 614.5 697.5 Q682 669 733 619.5 Q784 570 813.5 501.5 Q843 433 843 354 Z M777 354 Q777 421 753 479.5 Q729 538 687.5 580.5 Q646 623 590.5 647.5 Q535 672 471 672 Q407 672 351 647.5 Q295 623 254 580.5 Q213 538 189 479.5 Q165 421 165 354 Q165 286 189 228 Q213 170 254 127.5 Q295 85 351 60.5 Q407 36 471 36 Q535 36 590.5 60.5 Q646 85 687.5 127.5 Q729 170 753 228 Q777 286 777 354 Z M557 150 Q548 167 541.5 178.5 Q535 190 523 211 Q511 231 502.5 245 Q494 259 486.5 270 Q479 281 470.5 291.5 Q462 302 451 314 Q443 323 435 327.5 Q427 332 414 333 L414 150 L356 150 L356 563 L472 563 Q509 563 532 555 Q555 547 570 533 Q584 520 595.5 499 Q607 478 607 448 Q607 424 599.5 403 Q592 382 577.5 366.5 Q563 351 542.5 342 Q522 333 496 334 Q510 323 518.5 313.5 Q527 304 532 296 Q539 288 547.5 275 Q556 262 567 245 L627 150 L557 150 Z M546 447 Q546 469 535.5 485 Q525 501 508 508 Q489 516 457 516 L414 516 L414 372 L454 372 Q482 372 498.5 376.5 Q515 381 526 391 Q546 411 546 447 Z " />
<glyph glyph-name="macron" unicode="&#xaf;" horiz-adv-x="324" d="M394 683 L120 683 L132 737 L406 737 L394 683 Z " />
<glyph glyph-name="degree" unicode="&#xb0;" horiz-adv-x="412" d="M366 515 Q359 480 343.5 450 Q328 420 304 397.5 Q280 375 247 362 Q214 349 172 349 Q109 349 74.5 382 Q40 415 40 475 Q40 486 41.5 497.5 Q43 509 45 521 Q60 601 111.5 646 Q163 691 238 691 Q302 691 336.5 659 Q371 627 371 565 Q371 554 370 543 Q369 532 366 515 Z M298 511 Q309 569 295 602.5 Q281 636 226 636 Q178 636 151.5 609.5 Q125 583 114 529 Q111 515 110 503 Q109 491 109 480 Q109 439 128 421.5 Q147 404 186 404 Q228 404 257.5 429 Q287 454 298 511 Z " />
<glyph glyph-name="plusminus" unicode="&#xb1;" horiz-adv-x="478" d="M436 294 L286 294 L257 154 L186 154 L215 294 L65 294 L81 365 L231 365 L259 498 L330 498 L302 365 L452 365 L436 294 Z M380 36 L13 36 L28 107 L395 107 L380 36 Z " />
<glyph glyph-name="twosuperior" unicode="&#xb2;" horiz-adv-x="346" d="M371 568 Q371 539 358 512 Q345 485 325 460.5 Q305 436 281.5 415 Q258 394 238 377 Q217 360 196 343.5 Q175 327 159 315 Q164 315 171 315.5 Q178 316 183 316 L323 316 L297 260 L50 260 L58 300 Q81 314 107.5 333 Q134 352 169 383 Q184 396 205 415.5 Q226 435 245.5 457.5 Q265 480 279 504.5 Q293 529 293 552 Q293 574 279.5 587.5 Q266 601 243 601 Q216 601 191 588 L141 562 L115 597 Q163 630 199.5 644.5 Q236 659 271 659 Q316 659 343.5 633.5 Q371 608 371 568 Z " />
<glyph glyph-name="threesuperior" unicode="&#xb3;" horiz-adv-x="356" d="M381 577 Q381 541 360 513.5 Q339 486 307 472 Q329 461 341.5 443.5 Q354 426 354 402 Q354 377 342.5 354.5 Q331 332 313 314 Q295 296 272.5 282 Q250 268 229 260 Q205 251 172.5 245.5 Q140 240 107 240 Q96 240 90 240.5 Q84 241 71 243 L65 294 Q76 292 87 291 Q98 290 109 290 Q147 290 178.5 297 Q210 304 240 326 Q258 339 270 358.5 Q282 378 282 401 Q282 434 250 443 Q244 444 239.5 445 Q235 446 228 447 Q221 448 210 448 L165 448 L176 499 L192 499 Q225 499 242 500 Q259 501 269 505 Q285 511 296.5 527.5 Q308 544 308 561 Q308 579 294 590.5 Q280 602 255 602 Q226 602 201.5 591.5 Q177 581 151 565 L125 602 Q157 626 198 642.5 Q239 659 277 659 Q324 659 352.5 637 Q381 615 381 577 Z " />
<glyph glyph-name="acute" unicode="&#xb4;" horiz-adv-x="350" d="M162 565 L136 612 L344 742 L387 665 L162 565 Z " />
<glyph glyph-name="mu" unicode="&#xb5;" horiz-adv-x="559" d="M447 153 Q442 127 439 109.5 Q436 92 436 80 Q436 63 441 53 Q446 43 455 32 L394 -21 Q373 -1 365 16.5 Q357 34 357 59 Q284 -17 183 -17 Q164 -17 146.5 -12.5 Q129 -8 120 2 Q119 -3 115.5 -20 Q112 -37 107 -58.5 Q102 -80 97 -104 Q92 -128 88 -148 Q84 -168 81 -180 L78 -193 L-3 -208 L145 494 L228 510 L151 151 Q145 122 145 106 Q145 80 163 67 Q174 59 189 54.5 Q204 50 221 50 Q258 50 298 74.5 Q338 99 367 140 L442 493 L522 506 L447 153 Z " />
<glyph glyph-name="paragraph" unicode="&#xb6;" horiz-adv-x="603" d="M431 -126 L359 -126 L523 642 L405 642 L241 -126 L169 -126 L263 316 Q182 316 136 358 Q90 400 90 465 Q90 520 111.5 564.5 Q133 609 170.5 641 Q208 673 258 690.5 Q308 708 366 708 L609 708 L431 -126 Z " />
<glyph glyph-name="periodcentered" unicode="&#xb7;" horiz-adv-x="304" d="M226 279 Q226 252 206.5 232.5 Q187 213 160 213 Q133 213 114 232.5 Q95 252 95 281 Q95 308 114.5 326.5 Q134 345 160 345 Q187 345 206 326 Q225 307 226 279 Z " />
<glyph glyph-name="cedilla" unicode="&#xb8;" horiz-adv-x="250" d="M144 -92 Q144 -114 134 -133 Q124 -152 107.5 -166.5 Q91 -181 69.5 -189 Q48 -197 26 -197 Q3 -197 -17.5 -189 Q-38 -181 -52 -173 L-21 -126 Q-3 -135 8.5 -138.5 Q20 -142 37 -142 Q51 -142 65.5 -132.5 Q80 -123 80 -106 Q80 -94 69.5 -88.5 Q59 -83 48 -83 Q36 -83 26 -83.5 Q16 -84 9 -85 L56 12 L113 5 L91 -42 Q120 -47 132 -60 Q144 -73 144 -92 Z " />
<glyph glyph-name="onesuperior" unicode="&#xb9;" horiz-adv-x="324" d="M237 315 L297 315 L285 260 L95 260 L107 315 L169 315 L223 571 Q201 559 175.5 548.5 Q150 538 124 528 L116 569 L258 652 L309 652 L237 315 Z " />
<glyph glyph-name="ordmasculine" unicode="&#xba;" horiz-adv-x="441" d="M461 625 Q461 570 445.5 522.5 Q430 475 402 439.5 Q374 404 335 383.5 Q296 363 250 363 Q187 363 153.5 400 Q120 437 120 502 Q120 558 136 606 Q152 654 180 689 Q208 724 247 744 Q286 764 331 764 Q398 764 429.5 726 Q461 688 461 625 Z M390 632 Q390 674 369 691.5 Q348 709 320 709 Q289 709 265 693 Q241 677 224.5 648.5 Q208 620 199.5 581.5 Q191 543 191 499 Q191 456 209 437 Q227 418 261 418 Q292 418 316.5 435.5 Q341 453 357 482.5 Q373 512 381.5 551 Q390 590 390 632 Z M379 240 L66 240 L78 294 L391 294 L379 240 Z " />
<glyph glyph-name="guillemotright" unicode="&#xbb;" horiz-adv-x="522" d="M260 26 L206 66 L379 247 L291 421 L351 454 L459 236 L260 26 Z M74 26 L20 66 L193 247 L105 421 L165 454 L273 236 L74 26 Z " />
<glyph glyph-name="onequarter" unicode="&#xbc;" horiz-adv-x="1016" d="M237 315 L297 315 L285 260 L95 260 L107 315 L169 315 L223 571 Q201 559 175.5 548.5 Q150 538 124 528 L116 569 L258 652 L309 652 L237 315 Z M214 -154 L148 -154 L870 763 L936 763 L214 -154 Z M976 71 L927 71 Q926 68 926.5 65 Q927 62 926 59 L913 -1 L842 -19 L858 58 L862 71 L683 71 L693 118 L898 393 L973 393 Q959 374 935.5 341.5 Q912 309 883.5 271 Q855 233 825.5 194 Q796 155 770 124 L778 125 L874 125 L874 131 Q874 139 877 146 Q880 153 883 163 L914 271 L974 288 L939 125 L988 125 L976 71 Z " />
<glyph glyph-name="onehalf" unicode="&#xbd;" horiz-adv-x="991" d="M237 315 L297 315 L285 260 L95 260 L107 315 L169 315 L223 571 Q201 559 175.5 548.5 Q150 538 124 528 L116 569 L258 652 L309 652 L237 315 Z M184 -154 L118 -154 L840 763 L906 763 L184 -154 Z M995 308 Q995 279 982 251.5 Q969 224 949.5 200 Q930 176 906.5 155 Q883 134 863 117 Q842 100 822.5 83.5 Q803 67 787 55 Q792 55 797.5 55.5 Q803 56 808 56 L948 56 L921 0 L674 0 L683 40 Q706 54 732 73 Q758 92 793 123 Q808 136 829 155.5 Q850 175 869.5 197.5 Q889 220 903 244.5 Q917 269 917 292 Q917 314 903.5 327.5 Q890 341 867 341 Q840 341 815 328 L765 302 L740 337 Q788 370 824.5 384.5 Q861 399 896 399 Q941 399 968 373.5 Q995 348 995 308 Z " />
<glyph glyph-name="threequarters" unicode="&#xbe;" horiz-adv-x="1048" d="M381 577 Q381 541 360 513.5 Q339 486 307 472 Q329 461 341.5 443.5 Q354 426 354 402 Q354 377 342.5 354.5 Q331 332 313 314 Q295 296 272.5 282 Q250 268 229 260 Q205 251 172.5 245.5 Q140 240 107 240 Q96 240 90 240.5 Q84 241 71 243 L65 294 Q76 292 87 291 Q98 290 109 290 Q147 290 178.5 297 Q210 304 240 326 Q258 339 270 358.5 Q282 378 282 401 Q282 434 250 443 Q244 444 239.5 445 Q235 446 228 447 Q221 448 210 448 L165 448 L176 499 L192 499 Q225 499 242 500 Q259 501 269 505 Q285 511 296.5 527.5 Q308 544 308 561 Q308 579 294 590.5 Q280 602 255 602 Q226 602 201.5 591.5 Q177 581 151 565 L125 602 Q157 626 198 642.5 Q239 659 277 659 Q324 659 352.5 637 Q381 615 381 577 Z M226 -154 L160 -154 L882 763 L948 763 L226 -154 Z M1008 71 L959 71 Q958 68 958.5 65 Q959 62 958 59 L945 -1 L874 -19 L890 58 L894 71 L715 71 L725 118 L930 393 L1005 393 Q991 374 967.5 341.5 Q944 309 915.5 271 Q887 233 857.5 194 Q828 155 802 124 L810 125 L906 125 L906 131 Q906 139 909 146 Q912 153 915 163 L946 271 L1006 288 L971 125 L1020 125 L1008 71 Z " />
<glyph glyph-name="questiondown" unicode="&#xbf;" horiz-adv-x="443" d="M318 -143 Q274 -172 228 -188 Q182 -204 137 -204 Q62 -204 26 -170.5 Q-10 -137 -10 -80 Q-10 -37 20 6.5 Q50 50 115 93 Q171 130 192 171 Q213 212 213 269 L280 269 Q281 237 276 206.5 Q271 176 258 148.5 Q245 121 222.5 96 Q200 71 165 50 Q114 18 93 -8.5 Q72 -35 72 -61 Q72 -99 93.5 -117.5 Q115 -136 153 -136 Q187 -136 219 -125.5 Q251 -115 292 -90 L318 -143 Z M336 438 Q336 412 318.5 394.5 Q301 377 275 377 Q249 377 231.5 394.5 Q214 412 214 437 Q214 463 231.5 481.5 Q249 500 275 500 Q301 500 318.5 482 Q336 464 336 438 Z " />
<glyph glyph-name="Agrave" unicode="&#xc0;" horiz-adv-x="573" d="M429 0 L409 211 L153 211 L42 0 L-45 0 L330 686 L437 686 L518 0 L429 0 Z M367 616 Q365 612 360.5 602.5 Q356 593 350 581 Q344 569 337 555.5 Q330 542 324 531 L189 278 L402 278 L367 616 Z M436 725 L213 825 L256 902 L462 772 L436 725 Z " />
<glyph glyph-name="Aacute" unicode="&#xc1;" horiz-adv-x="573" d="M429 0 L409 211 L153 211 L42 0 L-45 0 L330 686 L437 686 L518 0 L429 0 Z M367 616 Q365 612 360.5 602.5 Q356 593 350 581 Q344 569 337 555.5 Q330 542 324 531 L189 278 L402 278 L367 616 Z M329 725 L303 772 L511 902 L554 825 L329 725 Z " />
<glyph glyph-name="Acircumflex" unicode="&#xc2;" horiz-adv-x="573" d="M429 0 L409 211 L153 211 L42 0 L-45 0 L330 686 L437 686 L518 0 L429 0 Z M367 616 Q365 612 360.5 602.5 Q356 593 350 581 Q344 569 337 555.5 Q330 542 324 531 L189 278 L402 278 L367 616 Z M517 721 L397 806 L243 721 L212 765 L409 900 L553 765 L517 721 Z " />
<glyph glyph-name="Atilde" unicode="&#xc3;" horiz-adv-x="573" d="M429 0 L409 211 L153 211 L42 0 L-45 0 L330 686 L437 686 L518 0 L429 0 Z M367 616 Q365 612 360.5 602.5 Q356 593 350 581 Q344 569 337 555.5 Q330 542 324 531 L189 278 L402 278 L367 616 Z M558 816 Q542 801 527.5 789 Q513 777 497 769 Q481 761 463 757 Q445 753 423 753 Q400 753 387 759 Q374 765 362.5 771.5 Q351 778 338.5 784 Q326 790 304 790 Q284 790 268 781.5 Q252 773 227 751 L208 796 Q239 827 268.5 843 Q298 859 342 859 Q365 859 378 853 Q391 847 402.5 840.5 Q414 834 426.5 828 Q439 822 461 822 Q485 822 502.5 833 Q520 844 539 861 L558 816 Z " />
<glyph glyph-name="Adieresis" unicode="&#xc4;" horiz-adv-x="573" d="M429 0 L409 211 L153 211 L42 0 L-45 0 L330 686 L437 686 L518 0 L429 0 Z M367 616 Q365 612 360.5 602.5 Q356 593 350 581 Q344 569 337 555.5 Q330 542 324 531 L189 278 L402 278 L367 616 Z M338 782 Q338 760 323.5 744.5 Q309 729 287 729 Q265 729 250 744.5 Q235 760 235 782 Q235 803 250 818 Q265 833 286 833 Q308 833 323 818 Q338 803 338 782 Z M544 782 Q544 760 529.5 744.5 Q515 729 493 729 Q471 729 456 744.5 Q441 760 441 782 Q441 803 456 818 Q471 833 492 833 Q514 833 529 818 Q544 803 544 782 Z " />
<glyph glyph-name="Aring" unicode="&#xc5;" horiz-adv-x="573" d="M429 0 L409 211 L153 211 L42 0 L-45 0 L330 686 L437 686 L518 0 L429 0 Z M367 616 Q365 612 360.5 602.5 Q356 593 350 581 Q344 569 337 555.5 Q330 542 324 531 L189 278 L402 278 L367 616 Z M501 819 Q501 797 492.5 778 Q484 759 470 744.5 Q456 730 437 721.5 Q418 713 396 713 Q375 713 355.5 721.5 Q336 730 322 744.5 Q308 759 299.5 778 Q291 797 291 819 Q291 841 299.5 860 Q308 879 322.5 893.5 Q337 908 356.5 916.5 Q376 925 397 925 Q418 925 437 916.5 Q456 908 470.5 893.5 Q485 879 493 860 Q501 841 501 819 Z M455 819 Q455 843 438 861 Q421 879 398 879 Q372 879 354 861 Q336 843 336 819 Q336 795 354.5 777 Q373 759 396 759 Q420 759 437.5 777 Q455 795 455 819 Z " />
<glyph glyph-name="AE" unicode="&#xc6;" horiz-adv-x="821" d="M850 618 L574 618 L527 393 L762 393 L747 322 L512 322 L458 71 L760 71 L745 0 L360 0 L405 211 L179 211 L4 0 L-95 0 L474 686 L875 686 L850 618 Z M234 278 L419 278 L486 598 L234 278 Z " />
<glyph glyph-name="Ccedilla" unicode="&#xc7;" horiz-adv-x="561" d="M557 587 Q531 610 502.5 619.5 Q474 629 436 629 Q376 629 326.5 599 Q277 569 240 511 Q221 482 206 447 Q191 412 180.5 375.5 Q170 339 164.5 302.5 Q159 266 159 233 Q159 151 199.5 104.5 Q240 58 321 58 Q359 58 392.5 68.5 Q426 79 464 102 L496 45 Q448 18 396 3.5 Q344 -11 293 -11 L276 -10 L261 -42 Q290 -47 302 -60 Q314 -73 314 -92 Q314 -102 311 -114 Q308 -128 298.5 -143 Q289 -158 274 -170 Q259 -182 239 -189.5 Q219 -197 195 -197 Q172 -197 152 -189 Q132 -181 118 -173 L149 -126 Q167 -135 178.5 -138.5 Q190 -142 207 -142 Q221 -142 235.5 -132.5 Q250 -123 250 -106 Q250 -94 239.5 -88.5 Q229 -83 218 -83 Q207 -83 197 -83.5 Q187 -84 179 -85 L220 0 Q150 22 112 84 Q74 146 74 237 Q74 280 82 326 Q90 372 105.5 416.5 Q121 461 144 502.5 Q167 544 198 578 Q248 634 313.5 664.5 Q379 695 445 695 Q493 695 533.5 680 Q574 665 603 638 L557 587 Z " />
<glyph glyph-name="Egrave" unicode="&#xc8;" horiz-adv-x="512" d="M540 618 L259 618 L212 393 L447 393 L431 322 L196 322 L143 71 L445 71 L430 0 L45 0 L191 686 L566 686 L540 618 Z M460 725 L237 825 L280 902 L486 772 L460 725 Z " />
<glyph glyph-name="Eacute" unicode="&#xc9;" horiz-adv-x="512" d="M540 618 L259 618 L212 393 L447 393 L431 322 L196 322 L143 71 L445 71 L430 0 L45 0 L191 686 L566 686 L540 618 Z M311 725 L285 772 L493 902 L536 825 L311 725 Z " />
<glyph glyph-name="Ecircumflex" unicode="&#xca;" horiz-adv-x="512" d="M540 618 L259 618 L212 393 L447 393 L431 322 L196 322 L143 71 L445 71 L430 0 L45 0 L191 686 L566 686 L540 618 Z M518 721 L398 806 L244 721 L213 765 L410 900 L554 765 L518 721 Z " />
<glyph glyph-name="Edieresis" unicode="&#xcb;" horiz-adv-x="512" d="M540 618 L259 618 L212 393 L447 393 L431 322 L196 322 L143 71 L445 71 L430 0 L45 0 L191 686 L566 686 L540 618 Z M337 782 Q337 760 322.5 744.5 Q308 729 286 729 Q264 729 249 744.5 Q234 760 234 782 Q234 803 249 818 Q264 833 285 833 Q307 833 322 818 Q337 803 337 782 Z M543 782 Q543 760 528.5 744.5 Q514 729 492 729 Q470 729 455 744.5 Q440 760 440 782 Q440 803 455 818 Q470 833 491 833 Q513 833 528 818 Q543 803 543 782 Z " />
<glyph glyph-name="Igrave" unicode="&#xcc;" horiz-adv-x="270" d="M125 0 L45 0 L191 686 L271 686 L125 0 Z M275 725 L52 825 L95 902 L301 772 L275 725 Z " />
<glyph glyph-name="Iacute" unicode="&#xcd;" horiz-adv-x="270" d="M125 0 L45 0 L191 686 L271 686 L125 0 Z M195 725 L169 772 L377 902 L420 825 L195 725 Z " />
<glyph glyph-name="Icircumflex" unicode="&#xce;" horiz-adv-x="270" d="M125 0 L45 0 L191 686 L271 686 L125 0 Z M369 721 L249 806 L95 721 L64 765 L261 900 L405 765 L369 721 Z " />
<glyph glyph-name="Idieresis" unicode="&#xcf;" horiz-adv-x="270" d="M125 0 L45 0 L191 686 L271 686 L125 0 Z M182 782 Q182 760 167.5 744.5 Q153 729 131 729 Q109 729 94 744.5 Q79 760 79 782 Q79 803 94 818 Q109 833 130 833 Q152 833 167 818 Q182 803 182 782 Z M389 782 Q389 760 374.5 744.5 Q360 729 338 729 Q316 729 301 744.5 Q286 760 286 782 Q286 803 301 818 Q316 833 337 833 Q359 833 374 818 Q389 803 389 782 Z " />
<glyph glyph-name="Eth" unicode="&#xd0;" horiz-adv-x="624" d="M604 433 Q604 388 592.5 337.5 Q581 287 561 239 Q541 191 515 150 Q489 109 460 83 Q411 39 356 19.5 Q301 0 224 0 L45 0 L113 321 L29 321 L52 380 L126 380 L191 686 L338 686 Q376 686 404.5 683.5 Q433 681 456.5 675 Q480 669 499 659 Q518 649 536 633 Q604 575 604 433 Z M515 423 Q515 470 509 502 Q503 534 488 557 Q476 577 461.5 589 Q447 601 429 608 Q411 615 389.5 617 Q368 619 341 619 L259 619 L208 380 L367 380 L344 321 L196 321 L142 68 L215 68 Q285 68 333.5 84.5 Q382 101 413 139 Q438 170 457.5 207.5 Q477 245 489.5 283.5 Q502 322 508.5 358 Q515 394 515 423 Z " />
<glyph glyph-name="Ntilde" unicode="&#xd1;" horiz-adv-x="646" d="M501 0 L415 0 L284 420 Q275 450 267 478 Q259 506 253.5 529 Q248 552 244 566 Q242 578 241 582 Q240 579 238 566 Q236 549 232 522.5 Q228 496 222.5 463.5 Q217 431 211 398 L130 0 L45 0 L191 686 L286 686 L421 248 Q428 224 434 200.5 Q440 177 444 157 Q448 137 450.5 123 Q453 109 454 105 Q454 107 457 126 Q460 145 465 174.5 Q470 204 476 240.5 Q482 277 490 313 L566 686 L647 686 L501 0 Z M606 819 Q590 804 575.5 792 Q561 780 545 772 Q529 764 511 760 Q493 756 471 756 Q448 756 435 762 Q422 768 410.5 774.5 Q399 781 386.5 787 Q374 793 352 793 Q332 793 316 784.5 Q300 776 275 754 L256 799 Q287 830 316.5 846 Q346 862 390 862 Q413 862 426 856 Q439 850 450.5 843.5 Q462 837 474.5 831 Q487 825 509 825 Q533 825 550.5 836 Q568 847 587 864 L606 819 Z " />
<glyph glyph-name="Ograve" unicode="&#xd2;" horiz-adv-x="686" d="M654 466 Q654 405 643.5 344 Q633 283 612.5 228 Q592 173 561 126.5 Q530 80 489 49 Q444 14 398.5 0.5 Q353 -13 291 -13 Q184 -13 130.5 52.5 Q77 118 77 230 Q77 285 87 340 Q97 395 115 444.5 Q133 494 158 536 Q183 578 212 608 Q257 654 310 676 Q363 698 439 698 Q541 698 597.5 638 Q654 578 654 466 Z M565 474 Q565 546 532 589 Q499 632 425 632 Q371 632 329.5 610.5 Q288 589 261 552 Q219 495 193 406 Q167 317 167 211 Q167 127 204 88.5 Q241 50 309 50 Q353 50 386.5 65 Q420 80 449 109 Q474 134 495.5 177.5 Q517 221 532.5 271.5 Q548 322 556.5 375 Q565 428 565 474 Z M501 725 L278 825 L321 902 L527 772 L501 725 Z " />
<glyph glyph-name="Oacute" unicode="&#xd3;" horiz-adv-x="686" d="M654 466 Q654 405 643.5 344 Q633 283 612.5 228 Q592 173 561 126.5 Q530 80 489 49 Q444 14 398.5 0.5 Q353 -13 291 -13 Q184 -13 130.5 52.5 Q77 118 77 230 Q77 285 87 340 Q97 395 115 444.5 Q133 494 158 536 Q183 578 212 608 Q257 654 310 676 Q363 698 439 698 Q541 698 597.5 638 Q654 578 654 466 Z M565 474 Q565 546 532 589 Q499 632 425 632 Q371 632 329.5 610.5 Q288 589 261 552 Q219 495 193 406 Q167 317 167 211 Q167 127 204 88.5 Q241 50 309 50 Q353 50 386.5 65 Q420 80 449 109 Q474 134 495.5 177.5 Q517 221 532.5 271.5 Q548 322 556.5 375 Q565 428 565 474 Z M374 725 L348 772 L556 902 L599 825 L374 725 Z " />
<glyph glyph-name="Ocircumflex" unicode="&#xd4;" horiz-adv-x="686" d="M654 466 Q654 405 643.5 344 Q633 283 612.5 228 Q592 173 561 126.5 Q530 80 489 49 Q444 14 398.5 0.5 Q353 -13 291 -13 Q184 -13 130.5 52.5 Q77 118 77 230 Q77 285 87 340 Q97 395 115 444.5 Q133 494 158 536 Q183 578 212 608 Q257 654 310 676 Q363 698 439 698 Q541 698 597.5 638 Q654 578 654 466 Z M565 474 Q565 546 532 589 Q499 632 425 632 Q371 632 329.5 610.5 Q288 589 261 552 Q219 495 193 406 Q167 317 167 211 Q167 127 204 88.5 Q241 50 309 50 Q353 50 386.5 65 Q420 80 449 109 Q474 134 495.5 177.5 Q517 221 532.5 271.5 Q548 322 556.5 375 Q565 428 565 474 Z M568 721 L448 806 L294 721 L263 765 L460 900 L604 765 L568 721 Z " />
<glyph glyph-name="Otilde" unicode="&#xd5;" horiz-adv-x="686" d="M654 466 Q654 405 643.5 344 Q633 283 612.5 228 Q592 173 561 126.5 Q530 80 489 49 Q444 14 398.5 0.5 Q353 -13 291 -13 Q184 -13 130.5 52.5 Q77 118 77 230 Q77 285 87 340 Q97 395 115 444.5 Q133 494 158 536 Q183 578 212 608 Q257 654 310 676 Q363 698 439 698 Q541 698 597.5 638 Q654 578 654 466 Z M565 474 Q565 546 532 589 Q499 632 425 632 Q371 632 329.5 610.5 Q288 589 261 552 Q219 495 193 406 Q167 317 167 211 Q167 127 204 88.5 Q241 50 309 50 Q353 50 386.5 65 Q420 80 449 109 Q474 134 495.5 177.5 Q517 221 532.5 271.5 Q548 322 556.5 375 Q565 428 565 474 Z M622 816 Q606 801 591.5 789 Q577 777 561 769 Q545 761 527 757 Q509 753 487 753 Q464 753 451 759 Q438 765 426.5 771.5 Q415 778 402.5 784 Q390 790 368 790 Q348 790 332 781.5 Q316 773 291 751 L272 796 Q303 827 332.5 843 Q362 859 406 859 Q429 859 442 853 Q455 847 466.5 840.5 Q478 834 490.5 828 Q503 822 525 822 Q549 822 566.5 833 Q584 844 603 861 L622 816 Z " />
<glyph glyph-name="Odieresis" unicode="&#xd6;" horiz-adv-x="686" d="M654 466 Q654 405 643.5 344 Q633 283 612.5 228 Q592 173 561 126.5 Q530 80 489 49 Q444 14 398.5 0.5 Q353 -13 291 -13 Q184 -13 130.5 52.5 Q77 118 77 230 Q77 285 87 340 Q97 395 115 444.5 Q133 494 158 536 Q183 578 212 608 Q257 654 310 676 Q363 698 439 698 Q541 698 597.5 638 Q654 578 654 466 Z M565 474 Q565 546 532 589 Q499 632 425 632 Q371 632 329.5 610.5 Q288 589 261 552 Q219 495 193 406 Q167 317 167 211 Q167 127 204 88.5 Q241 50 309 50 Q353 50 386.5 65 Q420 80 449 109 Q474 134 495.5 177.5 Q517 221 532.5 271.5 Q548 322 556.5 375 Q565 428 565 474 Z M401 784 Q401 762 386.5 746.5 Q372 731 350 731 Q328 731 313 746.5 Q298 762 298 784 Q298 805 313 820 Q328 835 349 835 Q371 835 386 820 Q401 805 401 784 Z M607 784 Q607 762 592.5 746.5 Q578 731 556 731 Q534 731 519 746.5 Q504 762 504 784 Q504 805 519 820 Q534 835 555 835 Q577 835 592 820 Q607 805 607 784 Z " />
<glyph glyph-name="multiply" unicode="&#xd7;" horiz-adv-x="503" d="M305 250 L404 124 L342 73 L243 199 L90 73 L50 124 L203 250 L104 376 L166 427 L265 301 L418 427 L458 376 L305 250 Z " />
<glyph glyph-name="Oslash" unicode="&#xd8;" horiz-adv-x="686" d="M620 607 Q654 550 654 466 Q654 405 643.5 344 Q633 283 612.5 228 Q592 173 561 126.5 Q530 80 489 49 Q444 14 398.5 0.5 Q353 -13 291 -13 Q206 -13 152 32 L60 -81 L15 -49 L115 74 Q77 135 77 230 Q77 285 87 340 Q97 395 115 444.5 Q133 494 158 536 Q183 578 212 608 Q257 654 310 676 Q363 698 439 698 Q528 698 583 651 L670 758 L717 726 L620 607 Z M533 589 Q497 633 425 633 Q371 633 329.5 611 Q288 589 261 552 Q219 495 192.5 406 Q166 317 166 211 Q166 193 168 176.5 Q170 160 173 146 L533 589 Z M566 474 Q566 506 560 532 L200 92 Q237 49 309 49 Q353 49 386.5 64.5 Q420 80 449 109 Q474 134 495.5 177.5 Q517 221 533 271.5 Q549 322 557.5 375 Q566 428 566 474 Z " />
<glyph glyph-name="Ugrave" unicode="&#xd9;" horiz-adv-x="635" d="M540 209 Q532 172 524.5 146 Q517 120 507.5 100.5 Q498 81 485.5 66.5 Q473 52 454 38 Q416 11 373 -0.5 Q330 -12 271 -12 Q229 -12 194 -3.5 Q159 5 133.5 23 Q108 41 93.5 68.5 Q79 96 79 135 Q79 149 81 174.5 Q83 200 88 226 L186 686 L267 686 L174 247 Q165 204 162 180 Q159 156 159 142 Q159 102 190.5 80 Q222 58 280 58 Q323 58 356.5 69 Q390 80 410 101 Q420 111 427.5 122 Q435 133 440.5 146 Q446 159 451 176.5 Q456 194 461 218 L560 686 L641 686 L540 209 Z M482 725 L259 825 L302 902 L508 772 L482 725 Z " />
<glyph glyph-name="Uacute" unicode="&#xda;" horiz-adv-x="635" d="M540 209 Q532 172 524.5 146 Q517 120 507.5 100.5 Q498 81 485.5 66.5 Q473 52 454 38 Q416 11 373 -0.5 Q330 -12 271 -12 Q229 -12 194 -3.5 Q159 5 133.5 23 Q108 41 93.5 68.5 Q79 96 79 135 Q79 149 81 174.5 Q83 200 88 226 L186 686 L267 686 L174 247 Q165 204 162 180 Q159 156 159 142 Q159 102 190.5 80 Q222 58 280 58 Q323 58 356.5 69 Q390 80 410 101 Q420 111 427.5 122 Q435 133 440.5 146 Q446 159 451 176.5 Q456 194 461 218 L560 686 L641 686 L540 209 Z M359 725 L333 772 L541 902 L584 825 L359 725 Z " />
<glyph glyph-name="Ucircumflex" unicode="&#xdb;" horiz-adv-x="635" d="M540 209 Q532 172 524.5 146 Q517 120 507.5 100.5 Q498 81 485.5 66.5 Q473 52 454 38 Q416 11 373 -0.5 Q330 -12 271 -12 Q229 -12 194 -3.5 Q159 5 133.5 23 Q108 41 93.5 68.5 Q79 96 79 135 Q79 149 81 174.5 Q83 200 88 226 L186 686 L267 686 L174 247 Q165 204 162 180 Q159 156 159 142 Q159 102 190.5 80 Q222 58 280 58 Q323 58 356.5 69 Q390 80 410 101 Q420 111 427.5 122 Q435 133 440.5 146 Q446 159 451 176.5 Q456 194 461 218 L560 686 L641 686 L540 209 Z M554 721 L434 806 L280 721 L249 765 L446 900 L590 765 L554 721 Z " />
<glyph glyph-name="Udieresis" unicode="&#xdc;" horiz-adv-x="635" d="M540 209 Q532 172 524.5 146 Q517 120 507.5 100.5 Q498 81 485.5 66.5 Q473 52 454 38 Q416 11 373 -0.5 Q330 -12 271 -12 Q229 -12 194 -3.5 Q159 5 133.5 23 Q108 41 93.5 68.5 Q79 96 79 135 Q79 149 81 174.5 Q83 200 88 226 L186 686 L267 686 L174 247 Q165 204 162 180 Q159 156 159 142 Q159 102 190.5 80 Q222 58 280 58 Q323 58 356.5 69 Q390 80 410 101 Q420 111 427.5 122 Q435 133 440.5 146 Q446 159 451 176.5 Q456 194 461 218 L560 686 L641 686 L540 209 Z M377 782 Q377 760 362.5 744.5 Q348 729 326 729 Q304 729 289 744.5 Q274 760 274 782 Q274 803 289 818 Q304 833 325 833 Q347 833 362 818 Q377 803 377 782 Z M583 782 Q583 760 568.5 744.5 Q554 729 532 729 Q510 729 495 744.5 Q480 760 480 782 Q480 803 495 818 Q510 833 531 833 Q553 833 568 818 Q583 803 583 782 Z " />
<glyph glyph-name="Yacute" unicode="&#xdd;" horiz-adv-x="539" d="M318 267 L261 0 L176 0 L234 272 L101 686 L198 686 L272 424 Q277 405 282.5 384.5 Q288 364 291 347 Q302 364 315.5 383.5 Q329 403 344 424 L532 686 L630 686 L318 267 Z M296 725 L270 772 L478 902 L521 825 L296 725 Z " />
<glyph glyph-name="Thorn" unicode="&#xde;" horiz-adv-x="557" d="M555 417 Q555 357 532.5 305 Q510 253 459 213 Q427 187 384 175 Q341 163 280 163 L160 163 L125 0 L45 0 L191 686 L271 686 L248 576 L346 576 Q405 576 445 563 Q485 550 509.5 528 Q534 506 544.5 477 Q555 448 555 417 Z M466 398 Q466 452 434 479.5 Q402 507 320 507 L233 507 L174 230 L289 230 Q333 230 358 238.5 Q383 247 404 267 Q436 296 451 330.5 Q466 365 466 398 Z " />
<glyph glyph-name="germandbls" unicode="&#xdf;" horiz-adv-x="576" d="M528 580 Q528 543 514 517 Q500 491 479 473.5 Q458 456 433 444.5 Q408 433 387 425.5 Q366 418 352 411.5 Q338 405 338 397 Q338 387 350.5 379.5 Q363 372 382 362.5 Q401 353 423.5 341 Q446 329 465 310 Q484 291 496.5 264.5 Q509 238 509 200 Q509 160 493 122 Q477 84 447 54 Q417 24 373 6 Q329 -12 274 -12 Q245 -12 224.5 -7.5 Q204 -3 186 5 L210 60 Q225 53 241 49 Q257 45 275 45 Q306 45 334 54 Q362 63 383 80.5 Q404 98 416.5 123 Q429 148 429 180 Q429 214 417 235.5 Q405 257 387 272 Q369 287 347.5 297.5 Q326 308 308 319.5 Q290 331 278 346 Q266 361 266 385 Q266 408 279.5 422.5 Q293 437 312.5 448 Q332 459 355.5 469 Q379 479 398.5 492.5 Q418 506 431.5 526 Q445 546 445 578 Q445 610 422.5 629.5 Q400 649 360 649 Q253 649 223 497 L121 -14 Q107 -83 90.5 -127.5 Q74 -172 45 -208 L-20 -173 Q3 -141 17.5 -103 Q32 -65 44 -7 L135 439 L61 439 L74 498 L146 498 L150 515 Q175 621 232.5 664.5 Q290 708 378 708 Q447 708 487.5 672 Q528 636 528 580 Z " />
<glyph glyph-name="agrave" unicode="&#xe0;" horiz-adv-x="541" d="M500 471 Q495 453 487 422.5 Q479 392 474 367 L431 161 Q422 117 422 93 Q422 70 429 56.5 Q436 43 448 29 L386 -19 Q366 1 357 22 Q348 43 348 72 L348 81 Q348 85 349 90 Q323 45 278.5 18 Q234 -9 176 -9 Q153 -9 131.5 0 Q110 9 93.5 28.5 Q77 48 67 78 Q57 108 57 149 Q57 186 64 224.5 Q71 263 84.5 300 Q98 337 117 370 Q136 403 161 428 Q200 468 251 490 Q302 512 360 512 Q442 512 500 471 Z M413 435 Q390 449 353 449 Q306 449 273 432 Q240 415 208 377 Q189 354 176 326 Q163 298 154.5 267.5 Q146 237 142 206.5 Q138 176 138 148 Q138 98 156.5 78 Q175 58 210 58 Q250 58 291 91.5 Q332 125 359 178 L413 435 Z M442 565 L219 665 L262 742 L468 612 L442 565 Z " />
<glyph glyph-name="aacute" unicode="&#xe1;" horiz-adv-x="541" d="M500 471 Q495 453 487 422.5 Q479 392 474 367 L431 161 Q422 117 422 93 Q422 70 429 56.5 Q436 43 448 29 L386 -19 Q366 1 357 22 Q348 43 348 72 L348 81 Q348 85 349 90 Q323 45 278.5 18 Q234 -9 176 -9 Q153 -9 131.5 0 Q110 9 93.5 28.5 Q77 48 67 78 Q57 108 57 149 Q57 186 64 224.5 Q71 263 84.5 300 Q98 337 117 370 Q136 403 161 428 Q200 468 251 490 Q302 512 360 512 Q442 512 500 471 Z M413 435 Q390 449 353 449 Q306 449 273 432 Q240 415 208 377 Q189 354 176 326 Q163 298 154.5 267.5 Q146 237 142 206.5 Q138 176 138 148 Q138 98 156.5 78 Q175 58 210 58 Q250 58 291 91.5 Q332 125 359 178 L413 435 Z M314 565 L288 612 L496 742 L539 665 L314 565 Z " />
<glyph glyph-name="acircumflex" unicode="&#xe2;" horiz-adv-x="541" d="M500 471 Q495 453 487 422.5 Q479 392 474 367 L431 161 Q422 117 422 93 Q422 70 429 56.5 Q436 43 448 29 L386 -19 Q366 1 357 22 Q348 43 348 72 L348 81 Q348 85 349 90 Q323 45 278.5 18 Q234 -9 176 -9 Q153 -9 131.5 0 Q110 9 93.5 28.5 Q77 48 67 78 Q57 108 57 149 Q57 186 64 224.5 Q71 263 84.5 300 Q98 337 117 370 Q136 403 161 428 Q200 468 251 490 Q302 512 360 512 Q442 512 500 471 Z M413 435 Q390 449 353 449 Q306 449 273 432 Q240 415 208 377 Q189 354 176 326 Q163 298 154.5 267.5 Q146 237 142 206.5 Q138 176 138 148 Q138 98 156.5 78 Q175 58 210 58 Q250 58 291 91.5 Q332 125 359 178 L413 435 Z M507 561 L387 646 L233 561 L202 605 L399 740 L543 605 L507 561 Z " />
<glyph glyph-name="atilde" unicode="&#xe3;" horiz-adv-x="541" d="M500 471 Q495 453 487 422.5 Q479 392 474 367 L431 161 Q422 117 422 93 Q422 70 429 56.5 Q436 43 448 29 L386 -19 Q366 1 357 22 Q348 43 348 72 L348 81 Q348 85 349 90 Q323 45 278.5 18 Q234 -9 176 -9 Q153 -9 131.5 0 Q110 9 93.5 28.5 Q77 48 67 78 Q57 108 57 149 Q57 186 64 224.5 Q71 263 84.5 300 Q98 337 117 370 Q136 403 161 428 Q200 468 251 490 Q302 512 360 512 Q442 512 500 471 Z M413 435 Q390 449 353 449 Q306 449 273 432 Q240 415 208 377 Q189 354 176 326 Q163 298 154.5 267.5 Q146 237 142 206.5 Q138 176 138 148 Q138 98 156.5 78 Q175 58 210 58 Q250 58 291 91.5 Q332 125 359 178 L413 435 Z M548 656 Q532 641 517.5 629 Q503 617 487 609 Q471 601 453 597 Q435 593 413 593 Q390 593 377 599 Q364 605 352.5 611.5 Q341 618 328.5 624 Q316 630 294 630 Q275 630 259 622 Q243 614 217 591 L198 636 Q229 667 258.5 683 Q288 699 332 699 Q355 699 368 693 Q381 687 392.5 680.5 Q404 674 416.5 668 Q429 662 451 662 Q475 662 492.5 673 Q510 684 529 701 L548 656 Z " />
<glyph glyph-name="adieresis" unicode="&#xe4;" horiz-adv-x="541" d="M500 471 Q495 453 487 422.5 Q479 392 474 367 L431 161 Q422 117 422 93 Q422 70 429 56.5 Q436 43 448 29 L386 -19 Q366 1 357 22 Q348 43 348 72 L348 81 Q348 85 349 90 Q323 45 278.5 18 Q234 -9 176 -9 Q153 -9 131.5 0 Q110 9 93.5 28.5 Q77 48 67 78 Q57 108 57 149 Q57 186 64 224.5 Q71 263 84.5 300 Q98 337 117 370 Q136 403 161 428 Q200 468 251 490 Q302 512 360 512 Q442 512 500 471 Z M413 435 Q390 449 353 449 Q306 449 273 432 Q240 415 208 377 Q189 354 176 326 Q163 298 154.5 267.5 Q146 237 142 206.5 Q138 176 138 148 Q138 98 156.5 78 Q175 58 210 58 Q250 58 291 91.5 Q332 125 359 178 L413 435 Z M315 621 Q315 599 300.5 583.5 Q286 568 264 568 Q242 568 227 583.5 Q212 599 212 621 Q212 642 227 657 Q242 672 263 672 Q285 672 300 657 Q315 642 315 621 Z M522 621 Q522 599 507.5 583.5 Q493 568 471 568 Q449 568 434 583.5 Q419 599 419 621 Q419 642 434 657 Q449 672 470 672 Q492 672 507 657 Q522 642 522 621 Z " />
<glyph glyph-name="aring" unicode="&#xe5;" horiz-adv-x="541" d="M500 471 Q495 453 487 422.5 Q479 392 474 367 L431 161 Q422 117 422 93 Q422 70 429 56.5 Q436 43 448 29 L386 -19 Q366 1 357 22 Q348 43 348 72 L348 81 Q348 85 349 90 Q323 45 278.5 18 Q234 -9 176 -9 Q153 -9 131.5 0 Q110 9 93.5 28.5 Q77 48 67 78 Q57 108 57 149 Q57 186 64 224.5 Q71 263 84.5 300 Q98 337 117 370 Q136 403 161 428 Q200 468 251 490 Q302 512 360 512 Q442 512 500 471 Z M413 435 Q390 449 353 449 Q306 449 273 432 Q240 415 208 377 Q189 354 176 326 Q163 298 154.5 267.5 Q146 237 142 206.5 Q138 176 138 148 Q138 98 156.5 78 Q175 58 210 58 Q250 58 291 91.5 Q332 125 359 178 L413 435 Z M464 659 Q464 637 455.5 618 Q447 599 433 584.5 Q419 570 400 561.5 Q381 553 359 553 Q338 553 318.5 561.5 Q299 570 285 584.5 Q271 599 262.5 618 Q254 637 254 659 Q254 681 262.5 700 Q271 719 285.5 733.5 Q300 748 319.5 756.5 Q339 765 360 765 Q381 765 400 756.5 Q419 748 433.5 733.5 Q448 719 456 700 Q464 681 464 659 Z M418 659 Q418 683 401 701 Q384 719 361 719 Q335 719 317 701 Q299 683 299 659 Q299 635 317.5 617 Q336 599 359 599 Q383 599 400.5 617 Q418 635 418 659 Z " />
<glyph glyph-name="ae" unicode="&#xe6;" horiz-adv-x="782" d="M750 386 Q750 354 737 327.5 Q724 301 703 281 Q671 252 620.5 237 Q570 222 488 222 Q475 222 459 222.5 Q443 223 426 224 Q419 192 419 161 Q419 108 448.5 81 Q478 54 518 54 Q564 54 597.5 65.5 Q631 77 666 109 L697 62 Q662 25 616 7 Q570 -11 495 -11 Q448 -11 415 10 Q382 31 358 70 Q320 25 277 6 Q234 -13 187 -13 Q150 -13 123.5 -3 Q97 7 79.5 24 Q62 41 54 64 Q46 87 46 113 Q46 150 63.5 185.5 Q81 221 131 253 Q150 265 174 272.5 Q198 280 222.5 284 Q247 288 271 289.5 Q295 291 315 291 Q336 291 350 290.5 Q364 290 369 289 L382 342 Q387 359 388 372.5 Q389 386 389 395 Q389 418 370.5 432.5 Q352 447 320 447 Q284 447 241 433.5 Q198 420 150 388 L123 444 Q180 477 234.5 494 Q289 511 345 511 Q388 511 415.5 492.5 Q443 474 454 440 Q523 512 614 512 Q681 512 715.5 478.5 Q750 445 750 386 Z M357 234 Q352 234 336 235 Q320 236 300 236 Q272 236 241.5 232.5 Q211 229 190 217 Q160 200 143.5 177 Q127 154 127 127 Q127 88 148 66.5 Q169 45 203 45 Q235 45 261 59.5 Q287 74 307 97 Q326 120 337.5 158 Q349 196 357 234 Z M670 381 Q670 410 653 430 Q636 450 594 450 Q570 450 546.5 438.5 Q523 427 502.5 405 Q482 383 465.5 352.5 Q449 322 439 283 Q450 282 464 282 L490 282 Q524 282 548.5 284.5 Q573 287 591.5 291.5 Q610 296 622.5 303 Q635 310 645 320 Q670 345 670 381 Z " />
<glyph glyph-name="ccedilla" unicode="&#xe7;" horiz-adv-x="450" d="M418 408 Q395 428 369.5 435.5 Q344 443 317 443 Q288 443 259.5 428 Q231 413 211 387 Q198 369 185.5 342 Q173 315 163 284 Q153 253 147 220.5 Q141 188 141 159 Q141 106 164 78.5 Q187 51 235 51 Q297 51 354 105 L386 55 Q344 20 305.5 4.5 Q267 -11 220 -11 L217 -11 L202 -42 Q231 -47 243 -60 Q255 -73 255 -92 Q255 -102 252 -114 Q249 -128 239.5 -143 Q230 -158 215 -170 Q200 -182 180 -189.5 Q160 -197 136 -197 Q113 -197 93 -189 Q73 -181 59 -173 L90 -126 Q108 -135 119.5 -138.5 Q131 -142 148 -142 Q162 -142 176.5 -132.5 Q191 -123 191 -106 Q191 -94 180.5 -88.5 Q170 -83 159 -83 Q151 -83 139.5 -83.5 Q128 -84 120 -85 L159 -4 Q57 24 57 158 Q57 200 67.5 244 Q78 288 96 328 Q114 368 137 401 Q160 434 185 454 Q254 511 334 511 Q407 511 455 469 L418 408 Z " />
<glyph glyph-name="egrave" unicode="&#xe8;" horiz-adv-x="505" d="M473 383 Q473 351 460.5 325 Q448 299 427 279 Q395 250 344.5 236 Q294 222 212 222 Q198 222 182.5 222.5 Q167 223 150 224 Q143 192 143 161 Q143 108 172.5 81 Q202 54 242 54 Q288 54 320.5 66.5 Q353 79 388 111 L421 63 Q402 44 382.5 30 Q363 16 339 7 Q315 -2 285.5 -6.5 Q256 -11 219 -11 Q184 -11 154.5 1 Q125 13 103 36 Q81 59 68.5 92.5 Q56 126 56 169 Q56 205 63 242.5 Q70 280 83.5 316 Q97 352 118 384.5 Q139 417 166 442 Q240 512 330 512 Q401 512 437 477 Q473 442 473 383 Z M394 381 Q394 410 377 430 Q360 450 318 450 Q294 450 270.5 438.5 Q247 427 226.5 405 Q206 383 189.5 352.5 Q173 322 163 283 Q174 282 188 282 L214 282 Q248 282 272.5 284.5 Q297 287 315.5 291.5 Q334 296 346.5 303 Q359 310 369 320 Q394 345 394 381 Z M408 565 L185 665 L228 742 L434 612 L408 565 Z " />
<glyph glyph-name="eacute" unicode="&#xe9;" horiz-adv-x="505" d="M473 383 Q473 351 460.5 325 Q448 299 427 279 Q395 250 344.5 236 Q294 222 212 222 Q198 222 182.5 222.5 Q167 223 150 224 Q143 192 143 161 Q143 108 172.5 81 Q202 54 242 54 Q288 54 320.5 66.5 Q353 79 388 111 L421 63 Q402 44 382.5 30 Q363 16 339 7 Q315 -2 285.5 -6.5 Q256 -11 219 -11 Q184 -11 154.5 1 Q125 13 103 36 Q81 59 68.5 92.5 Q56 126 56 169 Q56 205 63 242.5 Q70 280 83.5 316 Q97 352 118 384.5 Q139 417 166 442 Q240 512 330 512 Q401 512 437 477 Q473 442 473 383 Z M394 381 Q394 410 377 430 Q360 450 318 450 Q294 450 270.5 438.5 Q247 427 226.5 405 Q206 383 189.5 352.5 Q173 322 163 283 Q174 282 188 282 L214 282 Q248 282 272.5 284.5 Q297 287 315.5 291.5 Q334 296 346.5 303 Q359 310 369 320 Q394 345 394 381 Z M306 565 L280 612 L488 742 L531 665 L306 565 Z " />
<glyph glyph-name="ecircumflex" unicode="&#xea;" horiz-adv-x="505" d="M473 383 Q473 351 460.5 325 Q448 299 427 279 Q395 250 344.5 236 Q294 222 212 222 Q198 222 182.5 222.5 Q167 223 150 224 Q143 192 143 161 Q143 108 172.5 81 Q202 54 242 54 Q288 54 320.5 66.5 Q353 79 388 111 L421 63 Q402 44 382.5 30 Q363 16 339 7 Q315 -2 285.5 -6.5 Q256 -11 219 -11 Q184 -11 154.5 1 Q125 13 103 36 Q81 59 68.5 92.5 Q56 126 56 169 Q56 205 63 242.5 Q70 280 83.5 316 Q97 352 118 384.5 Q139 417 166 442 Q240 512 330 512 Q401 512 437 477 Q473 442 473 383 Z M394 381 Q394 410 377 430 Q360 450 318 450 Q294 450 270.5 438.5 Q247 427 226.5 405 Q206 383 189.5 352.5 Q173 322 163 283 Q174 282 188 282 L214 282 Q248 282 272.5 284.5 Q297 287 315.5 291.5 Q334 296 346.5 303 Q359 310 369 320 Q394 345 394 381 Z M472 561 L352 646 L198 561 L167 605 L364 740 L508 605 L472 561 Z " />
<glyph glyph-name="edieresis" unicode="&#xeb;" horiz-adv-x="505" d="M473 383 Q473 351 460.5 325 Q448 299 427 279 Q395 250 344.5 236 Q294 222 212 222 Q198 222 182.5 222.5 Q167 223 150 224 Q143 192 143 161 Q143 108 172.5 81 Q202 54 242 54 Q288 54 320.5 66.5 Q353 79 388 111 L421 63 Q402 44 382.5 30 Q363 16 339 7 Q315 -2 285.5 -6.5 Q256 -11 219 -11 Q184 -11 154.5 1 Q125 13 103 36 Q81 59 68.5 92.5 Q56 126 56 169 Q56 205 63 242.5 Q70 280 83.5 316 Q97 352 118 384.5 Q139 417 166 442 Q240 512 330 512 Q401 512 437 477 Q473 442 473 383 Z M394 381 Q394 410 377 430 Q360 450 318 450 Q294 450 270.5 438.5 Q247 427 226.5 405 Q206 383 189.5 352.5 Q173 322 163 283 Q174 282 188 282 L214 282 Q248 282 272.5 284.5 Q297 287 315.5 291.5 Q334 296 346.5 303 Q359 310 369 320 Q394 345 394 381 Z M294 621 Q294 599 279.5 583.5 Q265 568 243 568 Q221 568 206 583.5 Q191 599 191 621 Q191 642 206 657 Q221 672 242 672 Q264 672 279 657 Q294 642 294 621 Z M501 621 Q501 599 486.5 583.5 Q472 568 450 568 Q428 568 413 583.5 Q398 599 398 621 Q398 642 413 657 Q428 672 449 672 Q471 672 486 657 Q501 642 501 621 Z " />
<glyph glyph-name="igrave" unicode="&#xec;" horiz-adv-x="273" d="M128 0 L45 0 L151 496 L236 509 L128 0 Z M251 565 L28 665 L71 742 L277 612 L251 565 Z " />
<glyph glyph-name="iacute" unicode="&#xed;" horiz-adv-x="273" d="M128 0 L45 0 L151 496 L236 509 L128 0 Z M163 565 L137 612 L345 742 L388 665 L163 565 Z " />
<glyph glyph-name="icircumflex" unicode="&#xee;" horiz-adv-x="273" d="M128 0 L45 0 L151 496 L236 509 L128 0 Z M341 561 L221 646 L67 561 L36 605 L233 740 L377 605 L341 561 Z " />
<glyph glyph-name="idieresis" unicode="&#xef;" horiz-adv-x="273" d="M128 0 L45 0 L151 496 L236 509 L128 0 Z M154 621 Q154 599 139.5 583.5 Q125 568 103 568 Q81 568 66 583.5 Q51 599 51 621 Q51 642 66 657 Q81 672 102 672 Q124 672 139 657 Q154 642 154 621 Z M360 621 Q360 599 345.5 583.5 Q331 568 309 568 Q287 568 272 583.5 Q257 599 257 621 Q257 642 272 657 Q287 672 308 672 Q330 672 345 657 Q360 642 360 621 Z " />
<glyph glyph-name="eth" unicode="&#xf0;" horiz-adv-x="532" d="M401 374 Q382 388 350.5 396 Q319 404 284 404 Q246 404 215 386 Q184 368 162.5 338 Q141 308 129.5 268.5 Q118 229 118 187 Q118 160 124.5 135.5 Q131 111 144 92 Q157 73 175.5 62 Q194 51 218 51 Q283 51 326 104 Q369 157 389 251 Q394 277 397.5 312 Q401 347 401 374 Z M400 624 Q436 588 463.5 523.5 Q491 459 491 371 Q491 306 475.5 238 Q460 170 426 114 Q392 58 338 22 Q284 -14 208 -14 Q163 -14 130 2.5 Q97 19 75 46.5 Q53 74 42 110 Q31 146 31 185 Q31 242 51.5 293 Q72 344 107.5 382 Q143 420 191 442.5 Q239 465 293 465 Q330 465 356 458.5 Q382 452 400 443 Q395 483 378 516 Q361 549 341 571 L278 512 L235 548 L295 603 Q248 631 180 651 L231 699 Q300 681 350 654 L404 704 L447 668 L400 624 Z " />
<glyph glyph-name="ntilde" unicode="&#xf1;" horiz-adv-x="556" d="M495 410 Q495 394 492 378 L411 0 L332 0 L404 337 Q409 357 410.5 369.5 Q412 382 412 391 Q412 441 364 441 Q334 441 287.5 414.5 Q241 388 190 325 L121 0 L45 0 L121 356 Q127 382 129.5 400 Q132 418 132 432 Q132 455 125 479 L198 513 Q203 498 206.5 484 Q210 470 210 453 Q210 431 203 403 Q244 457 296 483 Q348 509 396 509 Q442 509 468.5 482.5 Q495 456 495 410 Z M519 656 Q503 641 488.5 629 Q474 617 458 609 Q442 601 424 597 Q406 593 384 593 Q361 593 348 599 Q335 605 323.5 611.5 Q312 618 299.5 624 Q287 630 265 630 Q246 630 230 622 Q214 614 188 591 L169 636 Q200 667 229.5 683 Q259 699 303 699 Q326 699 339 693 Q352 687 363.5 680.5 Q375 674 387.5 668 Q400 662 422 662 Q446 662 463.5 673 Q481 684 500 701 L519 656 Z " />
<glyph glyph-name="ograve" unicode="&#xf2;" horiz-adv-x="541" d="M497 332 Q497 260 476.5 197 Q456 134 419.5 87.5 Q383 41 332 14 Q281 -13 220 -13 Q139 -13 95 34.5 Q51 82 51 167 Q51 241 72 304.5 Q93 368 130 414.5 Q167 461 218 487 Q269 513 328 513 Q415 513 456 463 Q497 413 497 332 Z M411 341 Q411 400 382 424.5 Q353 449 314 449 Q272 449 239 427 Q206 405 183.5 366.5 Q161 328 149 275.5 Q137 223 137 162 Q137 103 162 77.5 Q187 52 235 52 Q278 52 311 75.5 Q344 99 366 139 Q388 179 399.5 231.5 Q411 284 411 341 Z M408 565 L185 665 L228 742 L434 612 L408 565 Z " />
<glyph glyph-name="oacute" unicode="&#xf3;" horiz-adv-x="541" d="M497 332 Q497 260 476.5 197 Q456 134 419.5 87.5 Q383 41 332 14 Q281 -13 220 -13 Q139 -13 95 34.5 Q51 82 51 167 Q51 241 72 304.5 Q93 368 130 414.5 Q167 461 218 487 Q269 513 328 513 Q415 513 456 463 Q497 413 497 332 Z M411 341 Q411 400 382 424.5 Q353 449 314 449 Q272 449 239 427 Q206 405 183.5 366.5 Q161 328 149 275.5 Q137 223 137 162 Q137 103 162 77.5 Q187 52 235 52 Q278 52 311 75.5 Q344 99 366 139 Q388 179 399.5 231.5 Q411 284 411 341 Z M297 565 L271 612 L479 742 L522 665 L297 565 Z " />
<glyph glyph-name="ocircumflex" unicode="&#xf4;" horiz-adv-x="541" d="M497 332 Q497 260 476.5 197 Q456 134 419.5 87.5 Q383 41 332 14 Q281 -13 220 -13 Q139 -13 95 34.5 Q51 82 51 167 Q51 241 72 304.5 Q93 368 130 414.5 Q167 461 218 487 Q269 513 328 513 Q415 513 456 463 Q497 413 497 332 Z M411 341 Q411 400 382 424.5 Q353 449 314 449 Q272 449 239 427 Q206 405 183.5 366.5 Q161 328 149 275.5 Q137 223 137 162 Q137 103 162 77.5 Q187 52 235 52 Q278 52 311 75.5 Q344 99 366 139 Q388 179 399.5 231.5 Q411 284 411 341 Z M473 561 L353 646 L199 561 L168 605 L365 740 L509 605 L473 561 Z " />
<glyph glyph-name="otilde" unicode="&#xf5;" horiz-adv-x="541" d="M497 332 Q497 260 476.5 197 Q456 134 419.5 87.5 Q383 41 332 14 Q281 -13 220 -13 Q139 -13 95 34.5 Q51 82 51 167 Q51 241 72 304.5 Q93 368 130 414.5 Q167 461 218 487 Q269 513 328 513 Q415 513 456 463 Q497 413 497 332 Z M411 341 Q411 400 382 424.5 Q353 449 314 449 Q272 449 239 427 Q206 405 183.5 366.5 Q161 328 149 275.5 Q137 223 137 162 Q137 103 162 77.5 Q187 52 235 52 Q278 52 311 75.5 Q344 99 366 139 Q388 179 399.5 231.5 Q411 284 411 341 Z M527 656 Q511 641 496.5 629 Q482 617 466 609 Q450 601 432 597 Q414 593 392 593 Q369 593 356 599 Q343 605 331.5 611.5 Q320 618 307.5 624 Q295 630 273 630 Q254 630 238 622 Q222 614 196 591 L177 636 Q208 667 237.5 683 Q267 699 311 699 Q334 699 347 693 Q360 687 371.5 680.5 Q383 674 395.5 668 Q408 662 430 662 Q454 662 471.5 673 Q489 684 508 701 L527 656 Z " />
<glyph glyph-name="odieresis" unicode="&#xf6;" horiz-adv-x="541" d="M497 332 Q497 260 476.5 197 Q456 134 419.5 87.5 Q383 41 332 14 Q281 -13 220 -13 Q139 -13 95 34.5 Q51 82 51 167 Q51 241 72 304.5 Q93 368 130 414.5 Q167 461 218 487 Q269 513 328 513 Q415 513 456 463 Q497 413 497 332 Z M411 341 Q411 400 382 424.5 Q353 449 314 449 Q272 449 239 427 Q206 405 183.5 366.5 Q161 328 149 275.5 Q137 223 137 162 Q137 103 162 77.5 Q187 52 235 52 Q278 52 311 75.5 Q344 99 366 139 Q388 179 399.5 231.5 Q411 284 411 341 Z M293 621 Q293 599 278.5 583.5 Q264 568 242 568 Q220 568 205 583.5 Q190 599 190 621 Q190 642 205 657 Q220 672 241 672 Q263 672 278 657 Q293 642 293 621 Z M499 621 Q499 599 484.5 583.5 Q470 568 448 568 Q426 568 411 583.5 Q396 599 396 621 Q396 642 411 657 Q426 672 447 672 Q469 672 484 657 Q499 642 499 621 Z " />
<glyph glyph-name="divide" unicode="&#xf7;" horiz-adv-x="610" d="M555 235 L55 235 L69 300 L569 300 L555 235 Z M340 56 Q340 27 320.5 7.5 Q301 -12 272 -12 Q244 -12 225 7.5 Q206 27 206 55 Q206 84 225.5 103.5 Q245 123 274 123 Q301 123 320.5 103.5 Q340 84 340 56 Z M420 472 Q420 443 400.5 423.5 Q381 404 353 404 Q325 404 305.5 423 Q286 442 286 470 Q286 499 305.5 519 Q325 539 354 539 Q381 539 400.5 519.5 Q420 500 420 472 Z " />
<glyph glyph-name="oslash" unicode="&#xf8;" horiz-adv-x="544" d="M468 445 Q498 400 498 328 Q498 256 477.5 193 Q457 130 420.5 83.5 Q384 37 333 10 Q282 -17 221 -17 Q156 -17 116 13 L51 -66 L10 -36 L80 50 Q52 97 52 163 Q52 237 73 300.5 Q94 364 131 410.5 Q168 457 219 483 Q270 509 329 509 Q390 509 431 482 L498 565 L541 535 L468 445 Z M413 337 Q413 360 409 373 L164 72 Q188 47 236 47 Q279 47 312 71 Q345 95 367.5 135 Q390 175 401.5 227.5 Q413 280 413 337 Z M382 422 Q368 435 351 440.5 Q334 446 315 446 Q273 446 240 424 Q207 402 184 363 Q161 324 149 271.5 Q137 219 137 158 Q137 139 140 124 L382 422 Z " />
<glyph glyph-name="ugrave" unicode="&#xf9;" horiz-adv-x="557" d="M445 153 Q440 130 437.5 114.5 Q435 99 435 87 Q435 69 441 56.5 Q447 44 458 29 L397 -21 Q379 -4 369 17 Q359 38 359 69 L359 79 Q359 84 360 89 Q313 33 265 8 Q217 -17 170 -17 Q120 -17 92.5 6 Q65 29 65 83 Q65 101 67.5 121.5 Q70 142 73 156 L145 494 L225 509 L155 174 Q151 154 148.5 138 Q146 122 146 109 Q146 76 157 63 Q168 50 195 50 Q232 50 282 81 Q332 112 373 177 L440 493 L520 506 L445 153 Z M423 565 L200 665 L243 742 L449 612 L423 565 Z " />
<glyph glyph-name="uacute" unicode="&#xfa;" horiz-adv-x="557" d="M445 153 Q440 130 437.5 114.5 Q435 99 435 87 Q435 69 441 56.5 Q447 44 458 29 L397 -21 Q379 -4 369 17 Q359 38 359 69 L359 79 Q359 84 360 89 Q313 33 265 8 Q217 -17 170 -17 Q120 -17 92.5 6 Q65 29 65 83 Q65 101 67.5 121.5 Q70 142 73 156 L145 494 L225 509 L155 174 Q151 154 148.5 138 Q146 122 146 109 Q146 76 157 63 Q168 50 195 50 Q232 50 282 81 Q332 112 373 177 L440 493 L520 506 L445 153 Z M310 565 L284 612 L492 742 L535 665 L310 565 Z " />
<glyph glyph-name="ucircumflex" unicode="&#xfb;" horiz-adv-x="557" d="M445 153 Q440 130 437.5 114.5 Q435 99 435 87 Q435 69 441 56.5 Q447 44 458 29 L397 -21 Q379 -4 369 17 Q359 38 359 69 L359 79 Q359 84 360 89 Q313 33 265 8 Q217 -17 170 -17 Q120 -17 92.5 6 Q65 29 65 83 Q65 101 67.5 121.5 Q70 142 73 156 L145 494 L225 509 L155 174 Q151 154 148.5 138 Q146 122 146 109 Q146 76 157 63 Q168 50 195 50 Q232 50 282 81 Q332 112 373 177 L440 493 L520 506 L445 153 Z M483 561 L363 646 L209 561 L178 605 L375 740 L519 605 L483 561 Z " />
<glyph glyph-name="udieresis" unicode="&#xfc;" horiz-adv-x="557" d="M445 153 Q440 130 437.5 114.5 Q435 99 435 87 Q435 69 441 56.5 Q447 44 458 29 L397 -21 Q379 -4 369 17 Q359 38 359 69 L359 79 Q359 84 360 89 Q313 33 265 8 Q217 -17 170 -17 Q120 -17 92.5 6 Q65 29 65 83 Q65 101 67.5 121.5 Q70 142 73 156 L145 494 L225 509 L155 174 Q151 154 148.5 138 Q146 122 146 109 Q146 76 157 63 Q168 50 195 50 Q232 50 282 81 Q332 112 373 177 L440 493 L520 506 L445 153 Z M303 621 Q303 599 288.5 583.5 Q274 568 252 568 Q230 568 215 583.5 Q200 599 200 621 Q200 642 215 657 Q230 672 251 672 Q273 672 288 657 Q303 642 303 621 Z M510 621 Q510 599 495.5 583.5 Q481 568 459 568 Q437 568 422 583.5 Q407 599 407 621 Q407 642 422 657 Q437 672 458 672 Q480 672 495 657 Q510 642 510 621 Z " />
<glyph glyph-name="yacute" unicode="&#xfd;" horiz-adv-x="461" d="M272 76 Q227 -7 193 -68.5 Q159 -130 118 -162 Q100 -176 74 -188 Q48 -200 21 -205 L3 -152 Q25 -150 49.5 -136 Q74 -122 91 -106 Q108 -91 123.5 -65.5 Q139 -40 155 0 L123 -4 Q123 8 122 30.5 Q121 53 119.5 79 Q118 105 115.5 130.5 Q113 156 111 175 L70 492 L152 509 L186 190 Q187 174 188 155.5 Q189 137 189.5 119 Q190 101 189.5 87 Q189 73 189 66 L191 66 L245 171 L412 498 L502 498 L272 76 Z M227 565 L201 612 L409 742 L452 665 L227 565 Z " />
<glyph glyph-name="thorn" unicode="&#xfe;" horiz-adv-x="572" d="M522 345 Q522 255 489.5 178.5 Q457 102 406 53 Q372 21 330 4.5 Q288 -12 245 -12 Q217 -12 185.5 -7.5 Q154 -3 124 8 L81 -193 L0 -208 L163 553 Q174 605 174 647 Q174 664 172 679 Q170 694 167 705 L250 737 Q253 726 255 711.5 Q257 697 257 680 Q257 631 243 564 L229 497 Q225 478 218 452.5 Q211 427 205 405 Q237 450 286.5 479.5 Q336 509 387 509 Q456 509 489 466 Q522 423 522 345 Z M436 344 Q436 389 416.5 413.5 Q397 438 355 438 Q315 438 274 409 Q233 380 191 326 L140 84 Q160 67 185 60.5 Q210 54 245 54 Q273 54 304.5 69 Q336 84 353 104 Q373 126 388.5 156 Q404 186 414.5 218 Q425 250 430.5 282.5 Q436 315 436 344 Z " />
<glyph glyph-name="ydieresis" unicode="&#xff;" horiz-adv-x="461" d="M272 76 Q227 -7 193 -68.5 Q159 -130 118 -162 Q100 -176 74 -188 Q48 -200 21 -205 L3 -152 Q25 -150 49.5 -136 Q74 -122 91 -106 Q108 -91 123.5 -65.5 Q139 -40 155 0 L123 -4 Q123 8 122 30.5 Q121 53 119.5 79 Q118 105 115.5 130.5 Q113 156 111 175 L70 492 L152 509 L186 190 Q187 174 188 155.5 Q189 137 189.5 119 Q190 101 189.5 87 Q189 73 189 66 L191 66 L245 171 L412 498 L502 498 L272 76 Z M247 621 Q247 599 232.5 583.5 Q218 568 196 568 Q174 568 159 583.5 Q144 599 144 621 Q144 642 159 657 Q174 672 195 672 Q217 672 232 657 Q247 642 247 621 Z M453 621 Q453 599 438.5 583.5 Q424 568 402 568 Q380 568 365 583.5 Q350 599 350 621 Q350 642 365 657 Q380 672 401 672 Q423 672 438 657 Q453 642 453 621 Z " />
<glyph glyph-name="dotlessi" unicode="&#x131;" horiz-adv-x="273" d="M128 0 L45 0 L151 496 L236 509 L128 0 Z " />
<glyph glyph-name="IJ" unicode="&#x132;" horiz-adv-x="542" d="M125 0 L45 0 L191 686 L271 686 L125 0 Z M422 117 Q410 61 397.5 24.5 Q385 -12 364 -40 Q341 -69 306.5 -91.5 Q272 -114 229 -128 L200 -77 Q230 -66 255.5 -48 Q281 -30 296 -10 Q310 7 319.5 34.5 Q329 62 340 115 L461 686 L543 686 L422 117 Z " />
<glyph glyph-name="ij" unicode="&#x133;" horiz-adv-x="542" d="M128 0 L45 0 L151 496 L236 509 L128 0 Z M287 652 Q287 626 269.5 608.5 Q252 591 226 591 Q200 591 182.5 608.5 Q165 626 165 651 Q165 677 182.5 695 Q200 713 226 713 Q252 713 269.5 695.5 Q287 678 287 652 Z M400 13 Q390 -34 376 -68 Q362 -102 343 -126.5 Q324 -151 298.5 -168 Q273 -185 239 -198 L211 -146 Q236 -135 253.5 -122.5 Q271 -110 283.5 -92 Q296 -74 305 -47.5 Q314 -21 322 17 L423 494 L506 510 L400 13 Z M558 661 Q557 635 540 617 Q523 599 497 599 Q471 599 453 616.5 Q435 634 435 659 Q436 685 453.5 703.5 Q471 722 497 722 Q523 722 540.5 704 Q558 686 558 661 Z " />
<glyph glyph-name="Lslash" unicode="&#x141;" horiz-adv-x="463" d="M387 0 L45 0 L110 308 L39 286 L54 358 L126 380 L191 686 L273 686 L214 406 L404 463 L388 391 L198 334 L142 69 L413 69 L387 0 Z " />
<glyph glyph-name="lslash" unicode="&#x142;" horiz-adv-x="269" d="M273 358 L195 333 L147 110 Q142 87 142 74 Q142 50 163 50 L173 50 Q178 50 182 52 L187 1 Q171 -6 156.5 -8 Q142 -10 126 -10 Q95 -10 77.5 5 Q60 20 60 49 Q60 59 61.5 69.5 Q63 80 65 92 L110 306 L47 286 L62 358 L126 378 L163 555 Q168 582 171 605 Q174 628 174 648 Q174 665 172 679.5 Q170 694 167 705 L250 737 Q254 726 255.5 711.5 Q257 697 257 680 Q257 650 252.5 617 Q248 584 242 555 L210 405 L288 430 L273 358 Z " />
<glyph glyph-name="OE" unicode="&#x152;" horiz-adv-x="875" d="M904 617 L623 617 L575 393 L810 393 L795 322 L560 322 L507 71 L809 71 L793 0 L353 0 Q314 0 284 1.5 Q254 3 230 8 Q206 13 185.5 23.5 Q165 34 144 52 Q76 110 76 227 Q76 253 79 281 Q82 309 89 340 Q109 431 144.5 495.5 Q180 560 222 598 Q250 623 276 640 Q302 657 329.5 667 Q357 677 388 681 Q419 685 457 685 L929 685 L904 617 Z M538 608 Q515 611 493 613 Q471 615 451 615 Q388 615 343.5 598.5 Q299 582 268 544 Q236 504 214 454 Q192 404 181 350 Q173 315 169 285 Q165 255 165 229 Q165 199 171.5 174.5 Q178 150 192 128 Q212 96 240.5 81 Q269 66 308 66 L332 66 Q347 66 363 67 L395 69 Q411 70 424 72 L538 608 Z " />
<glyph glyph-name="oe" unicode="&#x153;" horiz-adv-x="839" d="M807 383 Q807 351 794.5 325 Q782 299 761 279 Q729 250 678.5 236 Q628 222 546 222 Q532 222 516.5 222.5 Q501 223 484 224 Q477 192 477 161 Q477 108 506.5 81 Q536 54 576 54 Q622 54 654.5 66.5 Q687 79 722 111 L755 63 Q736 44 716.5 30 Q697 16 673 7 Q649 -2 619.5 -6.5 Q590 -11 553 -11 Q507 -11 470 10 Q433 31 412 71 Q376 29 327.5 6 Q279 -17 221 -17 Q140 -17 96 30.5 Q52 78 52 163 Q52 237 73 300.5 Q94 364 131 410.5 Q168 457 219 483 Q270 509 329 509 Q388 509 425 486 Q462 463 480 422 Q522 467 567.5 489.5 Q613 512 664 512 Q735 512 771 477 Q807 442 807 383 Z M412 337 Q412 396 383 420.5 Q354 445 315 445 Q273 445 240 423 Q207 401 184.5 362.5 Q162 324 150 271.5 Q138 219 138 158 Q138 99 163 73.5 Q188 48 236 48 Q279 48 312 71.5 Q345 95 367 135 Q389 175 400.5 227.5 Q412 280 412 337 Z M728 381 Q728 410 711 430 Q694 450 652 450 Q628 450 604.5 438.5 Q581 427 560.5 405 Q540 383 523.5 352.5 Q507 322 497 283 Q508 282 522 282 L548 282 Q582 282 606.5 284.5 Q631 287 649.5 291.5 Q668 296 680.5 303 Q693 310 703 320 Q728 345 728 381 Z " />
<glyph glyph-name="Scaron" unicode="&#x160;" horiz-adv-x="561" d="M520 581 Q481 609 447 621.5 Q413 634 369 634 Q334 634 305.5 625.5 Q277 617 257 601.5 Q237 586 225.5 565 Q214 544 214 519 Q214 498 218 482 Q222 466 231.5 453.5 Q241 441 258 430 Q275 419 301 408 L373 377 Q436 350 461 308 Q486 266 486 204 Q486 159 467 119.5 Q448 80 411.5 50.5 Q375 21 322.5 4 Q270 -13 204 -13 Q147 -13 102 0 Q57 13 15 41 L55 106 Q93 80 130 67 Q167 54 219 54 Q260 54 293 64.5 Q326 75 349.5 93.5 Q373 112 385.5 137.5 Q398 163 398 192 Q398 213 394 230 Q390 247 379.5 261.5 Q369 276 351 288 Q333 300 305 312 L243 338 Q182 364 154 402 Q126 440 126 502 Q126 546 145.5 582.5 Q165 619 198.5 645.5 Q232 672 278.5 686.5 Q325 701 379 701 Q432 701 479.5 685.5 Q527 670 563 642 L520 581 Z M361 728 L217 863 L253 907 L373 822 L527 907 L558 863 L361 728 Z " />
<glyph glyph-name="scaron" unicode="&#x161;" horiz-adv-x="467" d="M400 420 Q371 436 343.5 446 Q316 456 283 456 Q234 456 202 436.5 Q170 417 170 382 Q170 356 181 341 Q192 326 224 312 L287 285 Q345 260 368.5 230.5 Q392 201 392 159 Q392 118 375.5 86 Q359 54 330 32 Q301 10 261.5 -2 Q222 -14 175 -14 Q127 -14 81.5 -1.5 Q36 11 3 34 L35 94 Q103 47 183 47 Q235 47 269.5 70 Q304 93 304 131 Q304 162 291 180 Q278 198 241 215 L182 241 Q130 264 107.5 291.5 Q85 319 85 363 Q85 397 99.5 425.5 Q114 454 141 474.5 Q168 495 205.5 506.5 Q243 518 288 518 Q327 518 365.5 508 Q404 498 432 480 L400 420 Z M282 558 L138 693 L174 737 L294 652 L448 737 L479 693 L282 558 Z " />
<glyph glyph-name="Ydieresis" unicode="&#x178;" horiz-adv-x="539" d="M318 267 L261 0 L176 0 L234 272 L101 686 L198 686 L272 424 Q277 405 282.5 384.5 Q288 364 291 347 Q302 364 315.5 383.5 Q329 403 344 424 L532 686 L630 686 L318 267 Z M324 782 Q324 760 309.5 744.5 Q295 729 273 729 Q251 729 236 744.5 Q221 760 221 782 Q221 803 236 818 Q251 833 272 833 Q294 833 309 818 Q324 803 324 782 Z M530 782 Q530 760 515.5 744.5 Q501 729 479 729 Q457 729 442 744.5 Q427 760 427 782 Q427 803 442 818 Q457 833 478 833 Q500 833 515 818 Q530 803 530 782 Z " />
<glyph glyph-name="Zcaron" unicode="&#x17d;" horiz-adv-x="523" d="M169 135 Q154 116 141 101 Q128 86 113 69 Q131 70 143 70 L444 70 L418 0 L9 0 L9 63 L410 552 Q424 568 439 586 Q454 604 468 618 Q454 617 437 617 L141 617 L169 686 L561 686 L561 621 L169 135 Z M356 728 L212 863 L248 907 L368 822 L522 907 L553 863 L356 728 Z " />
<glyph glyph-name="zcaron" unicode="&#x17e;" horiz-adv-x="412" d="M71 60 L347 60 L311 0 L-26 0 L-26 60 L322 436 L88 436 L88 498 L419 498 L419 436 L71 60 Z M268 558 L124 693 L160 737 L280 652 L434 737 L465 693 L268 558 Z " />
<glyph glyph-name="longs" unicode="&#x17f;" horiz-adv-x="326" d="M382 724 Q408 724 437.5 714.5 Q467 705 487 691 L443 640 Q429 648 408 656 Q387 664 364 664 Q346 664 327 657.5 Q308 651 289 631.5 Q270 612 253.5 576.5 Q237 541 225 483 Q217 444 205.5 390.5 Q194 337 180.5 273.5 Q167 210 152 137 Q137 64 121 -14 Q107 -83 90.5 -127.5 Q74 -172 45 -208 L-20 -173 Q3 -141 17.5 -103 Q32 -65 44 -7 L135 439 L61 439 L74 498 L148 498 L152 515 Q165 574 186.5 614 Q208 654 236.5 678.5 Q265 703 301.5 713.5 Q338 724 382 724 Z " />
<glyph glyph-name="florin" unicode="&#x192;" horiz-adv-x="290" d="M425 640 Q395 663 356 663 Q324 663 302 640.5 Q280 618 270 575 L253 498 L387 498 L350 439 L240 439 L149 43 Q138 -5 128.5 -39 Q119 -73 102.5 -100 Q86 -127 58.5 -150 Q31 -173 -17 -198 L-45 -142 Q-8 -121 12 -102 Q32 -83 43 -61.5 Q54 -40 59.5 -13.5 Q65 13 73 48 L162 439 L116 439 L125 498 L175 498 L193 576 Q202 615 219 643 Q236 671 259 689 Q282 707 308.5 715.5 Q335 724 364 724 Q395 724 421 715.5 Q447 707 463 695 L425 640 Z " />
<glyph glyph-name="uni02BB" unicode="&#x2bb;" horiz-adv-x="271" d="M308 667 Q276 653 253.5 628.5 Q231 604 222 578 Q245 578 259.5 559.5 Q274 541 274 516 Q273 483 252 463 Q231 443 199 443 Q169 443 148.5 463.5 Q128 484 128 518 Q128 550 143 584 Q158 618 187 647 Q207 666 234.5 684 Q262 702 282 711 L308 667 Z " />
<glyph glyph-name="afii57929" unicode="&#x2bc;" horiz-adv-x="271" d="M285 623 Q285 591 270 557 Q255 523 226 494 Q206 475 178.5 457 Q151 439 131 430 L105 474 Q137 488 159.5 512.5 Q182 537 191 563 Q168 563 153.5 581.5 Q139 600 139 625 Q140 658 161 678 Q182 698 214 698 Q244 698 264.5 677.5 Q285 657 285 623 Z " />
<glyph glyph-name="circumflex" unicode="&#x2c6;" horiz-adv-x="391" d="M409 561 L289 646 L135 561 L104 605 L301 740 L445 605 L409 561 Z " />
<glyph glyph-name="caron" unicode="&#x2c7;" horiz-adv-x="391" d="M267 558 L123 693 L159 737 L279 652 L433 737 L464 693 L267 558 Z " />
<glyph glyph-name="breve" unicode="&#x2d8;" horiz-adv-x="390" d="M462 693 Q455 686 434.5 667 Q414 648 386.5 628.5 Q359 609 327.5 593.5 Q296 578 267 578 Q238 578 212.5 593.5 Q187 609 168 628.5 Q149 648 136.5 667 Q124 686 121 693 L166 737 Q171 731 182.5 720 Q194 709 210 698.5 Q226 688 246.5 680 Q267 672 291 672 Q311 672 334.5 680.5 Q358 689 379 700 Q400 711 416.5 721.5 Q433 732 440 737 L462 693 Z " />
<glyph glyph-name="dotaccent" unicode="&#x2d9;" horiz-adv-x="174" d="M237 652 Q237 626 219.5 608.5 Q202 591 176 591 Q150 591 132.5 608.5 Q115 626 115 651 Q115 677 132.5 695 Q150 713 176 713 Q202 713 219.5 695.5 Q237 678 237 652 Z " />
<glyph glyph-name="ring" unicode="&#x2da;" horiz-adv-x="264" d="M327 659 Q327 637 318.5 618 Q310 599 296 584.5 Q282 570 263 561.5 Q244 553 222 553 Q201 553 181.5 561.5 Q162 570 148 584.5 Q134 599 125.5 618 Q117 637 117 659 Q117 681 125.5 700 Q134 719 148.5 733.5 Q163 748 182.5 756.5 Q202 765 223 765 Q244 765 263 756.5 Q282 748 296.5 733.5 Q311 719 319 700 Q327 681 327 659 Z M281 659 Q281 683 264 701 Q247 719 224 719 Q198 719 180 701 Q162 683 162 659 Q162 635 180.5 617 Q199 599 222 599 Q246 599 263.5 617 Q281 635 281 659 Z " />
<glyph glyph-name="ogonek" unicode="&#x2db;" horiz-adv-x="250" d="M127 -173 Q110 -181 86.5 -189 Q63 -197 40 -197 Q-2 -197 -21.5 -177.5 Q-41 -158 -41 -129 Q-41 -124 -40.5 -119.5 Q-40 -115 -39 -110 Q-34 -87 -23 -67 Q-12 -47 1.5 -30.5 Q15 -14 29 -2 Q43 10 53 17 L98 -12 Q86 -20 73 -32 Q60 -44 48.5 -57.5 Q37 -71 30 -85.5 Q23 -100 23 -113 Q23 -124 30 -132 Q37 -140 52 -140 Q69 -140 82 -137.5 Q95 -135 116 -126 L127 -173 Z " />
<glyph glyph-name="tilde" unicode="&#x2dc;" horiz-adv-x="396" d="M461 656 Q445 641 430.5 629 Q416 617 400 609 Q384 601 366 597 Q348 593 326 593 Q303 593 290 599 Q277 605 265.5 611.5 Q254 618 241.5 624 Q229 630 207 630 Q187 630 170 621 Q153 612 130 591 L111 636 Q142 667 171.5 683 Q201 699 245 699 Q268 699 281 693 Q294 687 305.5 680.5 Q317 674 329.5 668 Q342 662 364 662 Q388 662 405.5 673 Q423 684 442 701 L461 656 Z " />
<glyph glyph-name="hungarumlaut" unicode="&#x2dd;" horiz-adv-x="409" d="M290 530 L252 561 L417 750 L481 703 L290 530 Z M135 524 L89 545 L220 755 L294 722 L135 524 Z " />
<glyph glyph-name="gravecomb" unicode="&#x300;" horiz-adv-x="1" d="M-26 565 L-249 665 L-206 742 L0 612 L-26 565 Z " />
<glyph glyph-name="acutecomb" unicode="&#x301;" horiz-adv-x="1" d="M-243 565 L-269 612 L-61 742 L-18 665 L-243 565 Z " />
<glyph glyph-name="uni0302" unicode="&#x302;" horiz-adv-x="1" d="M-36 561 L-156 646 L-310 561 L-341 605 L-144 740 L0 605 L-36 561 Z " />
<glyph glyph-name="tildecomb" unicode="&#x303;" horiz-adv-x="1" d="M0 656 Q-16 641 -30.5 629 Q-45 617 -61 609 Q-77 601 -95 597 Q-113 593 -135 593 Q-158 593 -171 599 Q-184 605 -195.5 611.5 Q-207 618 -219.5 624 Q-232 630 -254 630 Q-273 630 -289 622 Q-305 614 -331 591 L-350 636 Q-319 667 -289.5 683 Q-260 699 -216 699 Q-193 699 -180 693 Q-167 687 -155.5 680.5 Q-144 674 -131.5 668 Q-119 662 -97 662 Q-73 662 -55.5 673 Q-38 684 -19 701 L0 656 Z " />
<glyph glyph-name="uni0304" unicode="&#x304;" horiz-adv-x="1" d="M-12 568 L-286 568 L-274 622 L0 622 L-12 568 Z " />
<glyph glyph-name="uni0306" unicode="&#x306;" horiz-adv-x="1" d="M73 673 Q66 666 45.5 647 Q25 628 -2.5 608.5 Q-30 589 -61.5 573.5 Q-93 558 -122 558 Q-151 558 -176.5 573.5 Q-202 589 -221 608.5 Q-240 628 -252.5 647 Q-265 666 -268 673 L-223 717 Q-218 711 -206.5 700 Q-195 689 -179 678.5 Q-163 668 -142.5 660 Q-122 652 -98 652 Q-78 652 -54.5 660.5 Q-31 669 -10 680 Q11 691 27.5 701.5 Q44 712 51 717 L73 673 Z " />
<glyph glyph-name="uni0307" unicode="&#x307;" horiz-adv-x="1" d="M0 652 Q0 626 -17.5 608.5 Q-35 591 -61 591 Q-87 591 -104.5 608.5 Q-122 626 -122 651 Q-122 677 -104.5 695 Q-87 713 -61 713 Q-35 713 -17.5 695.5 Q0 678 0 652 Z " />
<glyph glyph-name="uni0308" unicode="&#x308;" horiz-adv-x="1" d="M27 621 Q27 599 12 583.5 Q-3 568 -24 568 Q-46 568 -61.5 583.5 Q-77 599 -77 621 Q-77 642 -62 657 Q-47 672 -25 672 Q-4 672 11.5 657 Q27 642 27 621 Z M-180 621 Q-180 599 -194.5 583.5 Q-209 568 -231 568 Q-253 568 -268 583.5 Q-283 599 -283 621 Q-283 642 -268 657 Q-253 672 -232 672 Q-210 672 -195 657 Q-180 642 -180 621 Z " />
<glyph glyph-name="uni030A" unicode="&#x30a;" horiz-adv-x="1" d="M0 659 Q0 637 -8.5 618 Q-17 599 -31 584.5 Q-45 570 -64 561.5 Q-83 553 -105 553 Q-126 553 -145.5 561.5 Q-165 570 -179 584.5 Q-193 599 -201.5 618 Q-210 637 -210 659 Q-210 681 -201.5 700 Q-193 719 -178.5 733.5 Q-164 748 -144.5 756.5 Q-125 765 -104 765 Q-83 765 -64 756.5 Q-45 748 -30.5 733.5 Q-16 719 -8 700 Q0 681 0 659 Z M-46 659 Q-46 683 -63 701 Q-80 719 -103 719 Q-129 719 -147 701 Q-165 683 -165 659 Q-165 635 -146.5 617 Q-128 599 -105 599 Q-81 599 -63.5 617 Q-46 635 -46 659 Z " />
<glyph glyph-name="uni030B" unicode="&#x30b;" horiz-adv-x="1" d="M-191 571 L-229 602 L-64 791 L0 744 L-191 571 Z M-346 565 L-392 586 L-261 796 L-187 763 L-346 565 Z " />
<glyph glyph-name="uni030C" unicode="&#x30c;" horiz-adv-x="1" d="M-197 558 L-341 693 L-305 737 L-185 652 L-31 737 L0 693 L-197 558 Z " />
<glyph glyph-name="uni0312" unicode="&#x312;" horiz-adv-x="1" d="M-144 652 Q-144 678 -131.5 705 Q-119 732 -96 755 Q-77 774 -57.5 786 Q-38 798 -21 806 L0 771 Q-26 760 -43.5 740.5 Q-61 721 -69 700 Q-51 700 -39 685 Q-27 670 -27 650 Q-27 624 -44 608 Q-61 592 -87 592 Q-111 592 -127.5 608.5 Q-144 625 -144 652 Z " />
<glyph glyph-name="uni0313" unicode="&#x313;" horiz-adv-x="1" d="M-11 629 Q-11 605 -22.5 579.5 Q-34 554 -56 531 Q-74 513 -93 501 Q-112 489 -128 482 L-148 515 Q-123 526 -106.5 544.5 Q-90 563 -83 583 Q-100 583 -111 597 Q-122 611 -122 630 Q-122 655 -106 670.5 Q-90 686 -65 686 Q-42 686 -26.5 670.5 Q-11 655 -11 629 Z " />
<glyph glyph-name="uni0326" unicode="&#x326;" horiz-adv-x="1" d="M0 -119 Q0 -145 -12.5 -172 Q-25 -199 -48 -222 Q-67 -241 -86.5 -253 Q-106 -265 -123 -273 L-144 -238 Q-118 -227 -100.5 -207.5 Q-83 -188 -75 -167 Q-93 -167 -105 -152 Q-117 -137 -117 -117 Q-117 -91 -100 -75 Q-83 -59 -57 -59 Q-33 -59 -16.5 -75.5 Q0 -92 0 -119 Z " />
<glyph glyph-name="uni0327" unicode="&#x327;" horiz-adv-x="1" d="M0 -92 Q0 -114 -10 -133 Q-20 -152 -36.5 -166.5 Q-53 -181 -74.5 -189 Q-96 -197 -118 -197 Q-141 -197 -161.5 -189 Q-182 -181 -196 -173 L-165 -126 Q-147 -135 -135.5 -138.5 Q-124 -142 -107 -142 Q-93 -142 -78.5 -132.5 Q-64 -123 -64 -106 Q-64 -94 -74.5 -88.5 Q-85 -83 -96 -83 Q-108 -83 -118 -83.5 Q-128 -84 -135 -85 L-88 12 L-31 5 L-53 -42 Q-24 -47 -12 -60 Q0 -73 0 -92 Z " />
<glyph glyph-name="uni0328" unicode="&#x328;" horiz-adv-x="1" d="M0 -173 Q-17 -181 -40.5 -189 Q-64 -197 -87 -197 Q-129 -197 -148.5 -177.5 Q-168 -158 -168 -129 Q-168 -124 -167.5 -119.5 Q-167 -115 -166 -110 Q-161 -87 -150 -67 Q-139 -47 -125.5 -30.5 Q-112 -14 -98 -2 Q-84 10 -74 17 L-29 -12 Q-41 -20 -54 -32 Q-67 -44 -78.5 -57.5 Q-90 -71 -97 -85.5 Q-104 -100 -104 -113 Q-104 -124 -97 -132 Q-90 -140 -75 -140 Q-58 -140 -45 -137.5 Q-32 -135 -11 -126 L0 -173 Z " />
<glyph glyph-name="uni037E" unicode="&#x37e;" horiz-adv-x="321" d="M198 50 Q198 18 183 -16 Q168 -50 139 -79 Q119 -98 91.5 -116 Q64 -134 44 -143 L18 -99 Q50 -85 72.5 -60.5 Q95 -36 104 -10 Q81 -10 66.5 8.5 Q52 27 52 52 Q53 85 74 105 Q95 125 127 125 Q157 125 177.5 104.5 Q198 84 198 50 Z M253 372 Q253 343 233 323 Q213 303 186 303 Q157 303 138 323 Q119 343 119 372 Q119 400 138 419 Q157 438 185 438 Q214 438 233.5 419 Q253 400 253 372 Z " />
<glyph glyph-name="uni0394" unicode="&#x394;" horiz-adv-x="593" d="M527 0 L-23 0 L-23 58 L345 686 L448 686 L545 70 L527 0 Z M381 614 L70 70 L455 70 L381 614 Z " />
<glyph glyph-name="uni03A9" unicode="&#x3a9;" horiz-adv-x="715" d="M678 455 Q678 402 664 344 Q650 286 625 233 Q600 180 564 137 Q528 94 485 71 L602 71 L574 0 L377 0 L377 71 Q483 131 534.5 231 Q586 331 586 453 Q586 489 579.5 521.5 Q573 554 556.5 578.5 Q540 603 511.5 617.5 Q483 632 440 632 Q392 632 346 610.5 Q300 589 273 552 Q225 487 201.5 408.5 Q178 330 178 249 Q178 211 184 183 Q190 155 200.5 134 Q211 113 225 98 Q239 83 254 71 L239 0 L53 0 L53 71 L163 71 Q125 106 107 158 Q89 210 89 271 Q89 360 120 446.5 Q151 533 211 596 Q257 644 318.5 671 Q380 698 454 698 Q511 698 553 679.5 Q595 661 622.5 628.5 Q650 596 664 551.5 Q678 507 678 455 Z " />
<glyph glyph-name="uni03BC" unicode="&#x3bc;" horiz-adv-x="559" d="M447 153 Q442 127 439 109.5 Q436 92 436 80 Q436 63 441 53 Q446 43 455 32 L394 -21 Q373 -1 365 16.5 Q357 34 357 59 Q284 -17 183 -17 Q164 -17 146.5 -12.5 Q129 -8 120 2 Q119 -3 115.5 -20 Q112 -37 107 -58.5 Q102 -80 97 -104 Q92 -128 88 -148 Q84 -168 81 -180 L78 -193 L-3 -208 L145 494 L228 510 L151 151 Q145 122 145 106 Q145 80 163 67 Q174 59 189 54.5 Q204 50 221 50 Q258 50 298 74.5 Q338 99 367 140 L442 493 L522 506 L447 153 Z " />
<glyph glyph-name="pi" unicode="&#x3c0;" horiz-adv-x="532" d="M542 436 L492 436 L422 110 Q417 90 417 74 Q417 63 422 56.5 Q427 50 438 50 L447 50 Q452 50 457 52 L462 1 Q447 -6 431 -8 Q415 -10 398 -10 Q369 -10 352.5 4 Q336 18 336 49 Q336 69 341 92 L414 436 L221 436 L129 0 L53 0 L145 436 L79 436 L93 498 L576 498 L542 436 Z " />
<glyph glyph-name="uni2007" unicode="&#x2007;" horiz-adv-x="570" d="" />
<glyph glyph-name="uni2008" unicode="&#x2008;" horiz-adv-x="286" d="" />
<glyph glyph-name="uni200B" unicode="&#x200b;" d="" />
<glyph glyph-name="uniFEFF" unicode="&#xfeff;" d="" />
<glyph glyph-name="endash" unicode="&#x2013;" horiz-adv-x="595" d="M543 250 L58 250 L71 309 L556 309 L543 250 Z " />
<glyph glyph-name="emdash" unicode="&#x2014;" horiz-adv-x="822" d="M770 250 L58 250 L71 309 L783 309 L770 250 Z " />
<glyph glyph-name="quoteleft" unicode="&#x2018;" horiz-adv-x="271" d="M308 667 Q276 653 253.5 628.5 Q231 604 222 578 Q245 578 259.5 559.5 Q274 541 274 516 Q273 483 252 463 Q231 443 199 443 Q169 443 148.5 463.5 Q128 484 128 518 Q128 550 143 584 Q158 618 187 647 Q207 666 234.5 684 Q262 702 282 711 L308 667 Z " />
<glyph glyph-name="quoteright" unicode="&#x2019;" horiz-adv-x="271" d="M285 623 Q285 591 270 557 Q255 523 226 494 Q206 475 178.5 457 Q151 439 131 430 L105 474 Q137 488 159.5 512.5 Q182 537 191 563 Q168 563 153.5 581.5 Q139 600 139 625 Q140 658 161 678 Q182 698 214 698 Q244 698 264.5 677.5 Q285 657 285 623 Z " />
<glyph glyph-name="quotesinglbase" unicode="&#x201a;" horiz-adv-x="270" d="M162 50 Q162 18 147 -16 Q132 -50 103 -79 Q83 -98 55.5 -116 Q28 -134 8 -143 L-18 -99 Q14 -85 36.5 -60.5 Q59 -36 68 -10 Q45 -10 30.5 8.5 Q16 27 16 52 Q17 85 38 105 Q59 125 91 125 Q121 125 141.5 104.5 Q162 84 162 50 Z " />
<glyph glyph-name="quotedblleft" unicode="&#x201c;" horiz-adv-x="468" d="M506 667 Q474 653 451.5 628.5 Q429 604 420 578 Q443 578 457.5 559.5 Q472 541 472 516 Q471 483 450 463 Q429 443 397 443 Q367 443 346.5 463.5 Q326 484 326 518 Q326 550 341.5 583 Q357 616 385 647 Q408 672 434 687 Q460 702 480 711 L506 667 Z M308 667 Q276 653 253.5 628.5 Q231 604 222 578 Q245 578 259.5 559.5 Q274 541 274 516 Q273 483 252 463 Q231 443 199 443 Q169 443 148.5 463.5 Q128 484 128 518 Q128 550 143.5 583 Q159 616 187 647 Q210 672 236 687 Q262 702 282 711 L308 667 Z " />
<glyph glyph-name="quotedblright" unicode="&#x201d;" horiz-adv-x="469" d="M484 623 Q484 591 469 557 Q454 523 425 494 Q405 475 377.5 457 Q350 439 330 430 L304 474 Q336 488 358.5 512.5 Q381 537 390 563 Q367 563 352.5 581.5 Q338 600 338 625 Q339 658 360 678 Q381 698 413 698 Q443 698 463.5 677.5 Q484 657 484 623 Z M286 623 Q286 591 271 557 Q256 523 227 494 Q207 475 179.5 457 Q152 439 132 430 L106 474 Q138 488 160.5 512.5 Q183 537 192 563 Q169 563 154.5 581.5 Q140 600 140 625 Q141 658 162 678 Q183 698 215 698 Q245 698 265.5 677.5 Q286 657 286 623 Z " />
<glyph glyph-name="quotedblbase" unicode="&#x201e;" horiz-adv-x="468" d="M361 50 Q361 18 346 -16 Q331 -50 302 -79 Q282 -98 254.5 -116 Q227 -134 207 -143 L181 -99 Q213 -85 235.5 -60.5 Q258 -36 267 -10 Q244 -10 229.5 8.5 Q215 27 215 52 Q216 85 237 105 Q258 125 290 125 Q320 125 340.5 104.5 Q361 84 361 50 Z M163 50 Q163 18 148 -16 Q133 -50 104 -79 Q84 -98 56.5 -116 Q29 -134 9 -143 L-17 -99 Q15 -85 37.5 -60.5 Q60 -36 69 -10 Q46 -10 31.5 8.5 Q17 27 17 52 Q18 85 39 105 Q60 125 92 125 Q122 125 142.5 104.5 Q163 84 163 50 Z " />
<glyph glyph-name="dagger" unicode="&#x2020;" horiz-adv-x="476" d="M478 455 L328 455 L231 0 L152 0 L249 455 L92 455 L107 524 L264 524 L298 686 L377 686 L343 524 L503 524 L478 455 Z " />
<glyph glyph-name="daggerdbl" unicode="&#x2021;" horiz-adv-x="489" d="M481 455 L331 455 L283 231 L444 231 L419 162 L268 162 L234 0 L155 0 L189 162 L33 162 L48 231 L204 231 L252 455 L95 455 L110 524 L267 524 L301 686 L380 686 L346 524 L506 524 L481 455 Z " />
<glyph glyph-name="bullet" unicode="&#x2022;" horiz-adv-x="531" d="M467 354 Q467 317 453.5 285 Q440 253 416 229 Q392 205 360 191 Q328 177 291 177 Q254 177 221.5 191 Q189 205 165 229 Q141 253 127 285 Q113 317 113 354 Q113 391 127 423 Q141 455 165 479 Q189 503 221 517 Q253 531 290 531 Q327 531 359 517 Q391 503 415 479 Q439 455 453 423 Q467 391 467 354 Z " />
<glyph glyph-name="ellipsis" unicode="&#x2026;" horiz-adv-x="777" d="M642 56 Q642 27 622 7 Q602 -13 575 -13 Q546 -13 527 7 Q508 27 508 56 Q508 84 527 103 Q546 122 574 122 Q603 122 622.5 103 Q642 84 642 56 Z M412 56 Q412 27 392 7 Q372 -13 345 -13 Q316 -13 297 7 Q278 27 278 56 Q278 84 297 103 Q316 122 344 122 Q373 122 392.5 103 Q412 84 412 56 Z M182 56 Q182 27 162 7 Q142 -13 115 -13 Q86 -13 67 7 Q48 27 48 56 Q48 84 67 103 Q86 122 114 122 Q143 122 162.5 103 Q182 84 182 56 Z " />
<glyph glyph-name="perthousand" unicode="&#x2030;" horiz-adv-x="1239" d="M1173 212 Q1173 161 1157.5 119.5 Q1142 78 1115 49.5 Q1088 21 1050.5 5.5 Q1013 -10 970 -10 Q912 -10 876.5 20 Q841 50 841 114 Q841 160 856 200 Q871 240 898 269 Q925 298 961.5 315 Q998 332 1042 332 Q1108 332 1140.5 297.5 Q1173 263 1173 212 Z M433 571 Q433 520 417.5 478.5 Q402 437 375 408.5 Q348 380 310.5 364.5 Q273 349 230 349 Q172 349 136.5 379 Q101 409 101 473 Q101 519 116 559 Q131 599 158 628 Q185 657 221.5 674 Q258 691 302 691 Q368 691 400.5 656.5 Q433 622 433 571 Z M803 212 Q803 161 787.5 119.5 Q772 78 745 49.5 Q718 21 680.5 5.5 Q643 -10 600 -10 Q542 -10 506.5 20 Q471 50 471 114 Q471 160 486 200 Q501 240 528 269 Q555 298 591.5 315 Q628 332 672 332 Q738 332 770.5 297.5 Q803 263 803 212 Z M248 0 L182 0 L663 686 L729 686 L248 0 Z M1105 203 Q1105 277 1029 277 Q998 277 975.5 265 Q953 253 938.5 231 Q924 209 917 179.5 Q910 150 910 116 Q910 76 930 60.5 Q950 45 985 45 Q1014 45 1036.5 57 Q1059 69 1074 90.5 Q1089 112 1097 141 Q1105 170 1105 203 Z M735 203 Q735 277 659 277 Q628 277 605.5 265 Q583 253 568.5 231 Q554 209 547 179.5 Q540 150 540 116 Q540 76 560 60.5 Q580 45 615 45 Q644 45 666.5 57 Q689 69 704 90.5 Q719 112 727 141 Q735 170 735 203 Z M365 562 Q365 636 289 636 Q258 636 235.5 624 Q213 612 198.5 590 Q184 568 177 538.5 Q170 509 170 475 Q170 435 190 419.5 Q210 404 245 404 Q274 404 296.5 416 Q319 428 334 449.5 Q349 471 357 500 Q365 529 365 562 Z " />
<glyph glyph-name="guilsinglleft" unicode="&#x2039;" horiz-adv-x="337" d="M148 233 L236 59 L176 26 L68 244 L267 454 L321 414 L148 233 Z " />
<glyph glyph-name="guilsinglright" unicode="&#x203a;" horiz-adv-x="337" d="M70 26 L16 66 L189 247 L101 421 L161 454 L269 236 L70 26 Z " />
<glyph glyph-name="fraction" unicode="&#x2044;" horiz-adv-x="349" d="M-160 -154 L-226 -154 L496 763 L562 763 L-160 -154 Z " />
<glyph glyph-name="uni2070" unicode="&#x2070;" horiz-adv-x="345" d="M394 519 Q394 502 392 486.5 Q390 471 387 456 Q378 412 359.5 374 Q341 336 315.5 308.5 Q290 281 258.5 265.5 Q227 250 193 250 Q162 250 141.5 262.5 Q121 275 108.5 295.5 Q96 316 91 341.5 Q86 367 86 394 Q86 411 88 428.5 Q90 446 93 461 Q101 500 120 536 Q139 572 164.5 599.5 Q190 627 220 643.5 Q250 660 281 660 Q313 660 334.5 648 Q356 636 369.5 616 Q383 596 388.5 571 Q394 546 394 519 Z M323 524 Q323 537 321 551 Q319 565 313 577 Q307 589 296.5 596.5 Q286 604 270 604 Q240 604 207 561 Q181 526 166 459 Q161 436 158.5 417 Q156 398 156 383 Q156 371 158.5 357.5 Q161 344 167 332 Q173 320 183 312 Q193 304 207 304 Q223 304 242 317.5 Q261 331 277 354 Q289 372 298 398 Q307 424 314 456 Q319 478 321 494 Q323 510 323 524 Z " />
<glyph glyph-name="uni2074" unicode="&#x2074;" horiz-adv-x="343" d="M358 331 L309 331 Q308 328 308.5 325 Q309 322 308 319 L295 259 L224 241 L244 331 L65 331 L75 378 L280 653 L355 653 Q341 634 317.5 601.5 Q294 569 266 531 Q238 493 208.5 454 Q179 415 153 384 L160 385 L256 385 L256 391 Q256 399 259 406 Q262 413 265 423 L296 531 L356 548 L324 393 L321 385 L370 385 L358 331 Z " />
<glyph glyph-name="uni2075" unicode="&#x2075;" horiz-adv-x="300" d="M342 591 L215 591 L187 500 Q196 501 202 501.5 Q208 502 217 502 Q240 502 260.5 497 Q281 492 296.5 481.5 Q312 471 321 453.5 Q330 436 330 411 Q330 387 321 364 Q312 341 297 321.5 Q282 302 262 286.5 Q242 271 221 262 Q198 251 168.5 245 Q139 239 113 239 Q99 239 89 240 Q79 241 61 246 L60 304 Q83 293 92 291.5 Q101 290 115 290 Q136 290 161 297 Q186 304 207.5 317.5 Q229 331 243 351 Q257 371 257 396 Q257 427 237 438 Q217 449 189 449 Q168 449 145.5 445 Q123 441 97 430 L166 648 L365 648 L342 591 Z " />
<glyph glyph-name="uni2076" unicode="&#x2076;" horiz-adv-x="337" d="M383 631 Q367 626 356.5 623 Q346 620 338 616.5 Q330 613 322.5 609.5 Q315 606 306 601 Q268 581 236 552.5 Q204 524 183 486 Q202 496 222.5 501.5 Q243 507 261 507 Q281 507 300 500.5 Q319 494 334 482 Q349 470 358 453 Q367 436 367 414 Q367 380 352.5 350 Q338 320 313.5 298 Q289 276 257.5 263 Q226 250 193 250 Q137 250 107.5 282 Q78 314 78 368 Q78 428 105.5 480 Q133 532 177 572 Q220 611 267.5 636 Q315 661 375 677 L383 631 Z M292 405 Q292 428 277 440.5 Q262 453 239 453 Q204 453 163 427 Q158 413 155 395.5 Q152 378 152 364 Q152 340 163 322 Q174 304 205 304 Q225 304 241 312.5 Q257 321 268.5 335.5 Q280 350 286 368 Q292 386 292 405 Z " />
<glyph glyph-name="uni2077" unicode="&#x2077;" horiz-adv-x="337" d="M393 588 Q351 543 313.5 501 Q276 459 249 423 Q211 372 186 331 Q161 290 153 267 L148 255 L64 236 Q71 254 76.5 266 Q82 278 87.5 288 Q93 298 99 308 Q105 318 114 332 Q135 363 160 398 Q185 433 212.5 467.5 Q240 502 268.5 534 Q297 566 326 592 Q318 592 310 591.5 Q302 591 293 591 L121 591 L150 648 L420 648 L393 588 Z " />
<glyph glyph-name="uni2078" unicode="&#x2078;" horiz-adv-x="339" d="M393 582 Q393 561 385 544 Q377 527 364.5 513 Q352 499 335.5 488 Q319 477 301 469 Q327 455 346 438.5 Q365 422 365 392 Q365 360 349 333.5 Q333 307 307.5 288.5 Q282 270 251.5 260 Q221 250 192 250 Q138 250 104 276 Q70 302 70 344 Q70 366 78 385 Q86 404 99.5 419.5 Q113 435 130 447 Q147 459 166 467 Q125 495 125 537 Q125 569 140 592 Q155 615 178.5 630 Q202 645 230.5 652 Q259 659 286 659 Q334 659 363.5 638.5 Q393 618 393 582 Z M293 373 Q293 385 286 396 Q279 405 263.5 414.5 Q248 424 214 441 Q200 434 187 426 Q174 418 163.5 408 Q153 398 146.5 384.5 Q140 371 140 354 Q140 331 157 317 Q174 303 206 303 Q221 303 236.5 307.5 Q252 312 264.5 321 Q277 330 285 343 Q293 356 293 373 Z M325 569 Q325 586 311.5 596.5 Q298 607 269 607 Q256 607 242.5 603.5 Q229 600 218 593.5 Q207 587 200 576 Q193 565 193 550 Q193 539 199 530.5 Q205 522 213.5 515 Q222 508 232 503.5 Q242 499 251 495 Q262 500 275 507 Q288 514 299 523 Q310 532 317.5 543.5 Q325 555 325 569 Z " />
<glyph glyph-name="uni2079" unicode="&#x2079;" horiz-adv-x="357" d="M415 551 Q415 518 404 485.5 Q393 453 375 423 Q357 393 334 366.5 Q311 340 287 320 Q261 297 231.5 281 Q202 265 167 251 Q153 246 143 242.5 Q133 239 124 237 Q115 235 105 233.5 Q95 232 82 231 L54 276 Q70 278 80.5 279.5 Q91 281 99 282.5 Q107 284 114 286.5 Q121 289 130 292 Q178 310 217 337 Q256 364 288 403 Q262 393 233 393 Q184 393 155.5 420 Q127 447 127 492 Q127 526 142 557 Q157 588 181.5 610.5 Q206 633 237.5 646.5 Q269 660 303 660 Q352 660 383.5 630.5 Q415 601 415 551 Z M342 543 Q342 573 328 589.5 Q314 606 290 606 Q269 606 252.5 596 Q236 586 224 570 Q212 554 206 535 Q200 516 200 497 Q200 472 213.5 459 Q227 446 250 446 Q284 446 322 467 Q330 487 336 504.5 Q342 522 342 543 Z " />
<glyph glyph-name="uni2080" unicode="&#x2080;" horiz-adv-x="345" d="M332 -54 Q323 -98 305 -136 Q287 -174 262 -201.5 Q237 -229 205.5 -244.5 Q174 -260 138 -260 Q107 -260 86.5 -247.5 Q66 -235 53.5 -214.5 Q41 -194 36 -168.5 Q31 -143 31 -116 Q31 -99 33 -81.5 Q35 -64 38 -49 Q46 -10 64 26 Q82 62 107 89.5 Q132 117 162.5 133.5 Q193 150 226 150 Q258 150 279.5 138 Q301 126 314.5 106 Q328 86 333.5 60.5 Q339 35 339 8 Q339 -8 337 -24 Q335 -40 332 -54 Z M266 38 Q262 67 248.5 80.5 Q235 94 215 94 Q185 94 152 51 Q125 14 110 -51 Q101 -95 101 -126 L101 -136 Q101 -141 102 -146 Q107 -175 120.5 -190.5 Q134 -206 151 -206 Q167 -206 186.5 -192.5 Q206 -179 222 -156 Q234 -138 243 -112 Q252 -86 259 -54 Q264 -33 266 -17.5 Q268 -2 268 12 Q268 17 267.5 24 Q267 31 266 38 Z " />
<glyph glyph-name="uni2081" unicode="&#x2081;" horiz-adv-x="285" d="M182 -195 L242 -195 L230 -250 L40 -250 L52 -195 L114 -195 L168 61 Q148 50 121.5 39 Q95 28 69 18 L61 59 L202 142 L253 142 L182 -195 Z " />
<glyph glyph-name="uni2082" unicode="&#x2082;" horiz-adv-x="318" d="M322 58 Q322 29 309 1.5 Q296 -26 276.5 -50 Q257 -74 233.5 -95 Q210 -116 190 -133 Q169 -150 149.5 -166.5 Q130 -183 114 -195 Q119 -195 124.5 -194.5 Q130 -194 135 -194 L275 -194 L248 -250 L1 -250 L10 -210 Q33 -196 59 -177 Q85 -158 120 -127 Q135 -114 156 -94.5 Q177 -75 196.5 -52.5 Q216 -30 230 -5.5 Q244 19 244 42 Q244 64 230.5 77.5 Q217 91 194 91 Q167 91 142 78 L92 52 L67 87 Q115 120 151.5 134.5 Q188 149 223 149 Q268 149 295 123.5 Q322 98 322 58 Z " />
<glyph glyph-name="uni2083" unicode="&#x2083;" horiz-adv-x="323" d="M323 67 Q323 32 302 4 Q281 -24 249 -38 Q271 -49 283.5 -66.5 Q296 -84 296 -108 Q296 -133 284.5 -155.5 Q273 -178 255 -196 Q237 -214 214.5 -228 Q192 -242 171 -250 Q147 -259 115 -264.5 Q83 -270 50 -270 Q39 -270 32.5 -269.5 Q26 -269 13 -267 L7 -216 Q20 -218 29 -219 Q38 -220 51 -220 Q89 -220 120.5 -213 Q152 -206 182 -184 Q199 -172 212 -151.5 Q225 -131 225 -109 Q225 -76 192 -67 Q186 -66 181.5 -65 Q177 -64 170 -63 Q163 -62 152 -62 L107 -62 L118 -11 L134 -11 Q167 -11 184 -10 Q201 -9 211 -5 Q228 2 239 17.5 Q250 33 250 51 Q250 69 236.5 80.5 Q223 92 198 92 Q169 92 144 81.5 Q119 71 93 55 L68 92 Q100 116 140.5 132.5 Q181 149 219 149 Q266 149 294.5 127 Q323 105 323 67 Z " />
<glyph glyph-name="uni2084" unicode="&#x2084;" horiz-adv-x="343" d="M303 -179 L254 -179 Q254 -187 253 -191 L240 -251 L169 -269 L185 -192 L189 -179 L10 -179 L20 -132 L225 143 L300 143 Q286 124 262.5 91.5 Q239 59 210.5 21 Q182 -17 152.5 -56 Q123 -95 97 -126 L105 -125 L201 -125 L201 -119 Q201 -111 204.5 -103 Q208 -95 210 -87 L241 21 L301 38 L266 -125 L315 -125 L303 -179 Z " />
<glyph glyph-name="uni2085" unicode="&#x2085;" horiz-adv-x="300" d="M286 81 L159 81 L132 -10 Q141 -9 146.5 -8.5 Q152 -8 161 -8 Q184 -8 204.5 -13 Q225 -18 240.5 -28.5 Q256 -39 265 -56.5 Q274 -74 274 -99 Q274 -123 265 -146 Q256 -169 241 -188.5 Q226 -208 206 -223.5 Q186 -239 165 -248 Q142 -259 113 -265 Q84 -271 58 -271 Q44 -271 34 -270.5 Q24 -270 6 -265 L4 -207 Q23 -215 34 -217.5 Q45 -220 59 -220 Q80 -220 105 -213 Q130 -206 151.5 -192.5 Q173 -179 187.5 -159 Q202 -139 202 -114 Q202 -83 182 -72 Q162 -61 134 -61 Q113 -61 90.5 -65 Q68 -69 42 -80 L110 138 L309 138 L286 81 Z " />
<glyph glyph-name="uni2086" unicode="&#x2086;" horiz-adv-x="337" d="M328 121 Q312 116 301.5 113 Q291 110 282.5 106.5 Q274 103 266.5 99.5 Q259 96 250 91 Q212 71 180.5 42.5 Q149 14 128 -24 Q147 -14 167.5 -8.5 Q188 -3 206 -3 Q226 -3 245 -9.5 Q264 -16 279 -28 Q294 -40 303 -57 Q312 -74 312 -96 Q312 -130 297.5 -160 Q283 -190 258.5 -212 Q234 -234 202.5 -247 Q171 -260 138 -260 Q82 -260 52.5 -228 Q23 -196 23 -142 Q23 -82 50 -30 Q77 22 121 62 Q164 101 212 126 Q260 151 320 167 L328 121 Z M237 -105 Q237 -82 222 -69.5 Q207 -57 184 -57 Q148 -57 107 -83 Q102 -97 99.5 -114.5 Q97 -132 97 -146 Q97 -170 107.5 -188 Q118 -206 149 -206 Q169 -206 185.5 -197.5 Q202 -189 213.5 -174.5 Q225 -160 231 -142 Q237 -124 237 -105 Z " />
<glyph glyph-name="uni2087" unicode="&#x2087;" horiz-adv-x="337" d="M338 78 Q300 37 260.5 -7 Q221 -51 194 -87 Q156 -137 130.5 -178.5 Q105 -220 97 -243 L93 -255 L9 -274 Q16 -256 22 -243.5 Q28 -231 33 -220 Q38 -209 44 -199.5 Q50 -190 58 -178 Q80 -145 105.5 -109.5 Q131 -74 158 -40.5 Q185 -7 213.5 24.5 Q242 56 271 82 Q263 82 254.5 81.5 Q246 81 237 81 L65 81 L94 138 L364 138 L338 78 Z " />
<glyph glyph-name="uni2088" unicode="&#x2088;" horiz-adv-x="339" d="M338 72 Q338 51 330 34 Q322 17 309 3 Q296 -11 279.5 -22 Q263 -33 245 -41 Q271 -55 290.5 -71.5 Q310 -88 310 -118 Q310 -150 294 -176.5 Q278 -203 252.5 -221.5 Q227 -240 196.5 -250 Q166 -260 137 -260 Q83 -260 49 -234 Q15 -208 15 -166 Q15 -144 23 -125 Q31 -106 44.5 -90.5 Q58 -75 75 -63 Q92 -51 111 -43 Q70 -15 70 27 Q70 59 85 82 Q100 105 123.5 120 Q147 135 175.5 142 Q204 149 231 149 Q279 149 308.5 128.5 Q338 108 338 72 Z M238 -137 Q238 -125 231 -114 Q224 -105 208 -95.5 Q192 -86 158 -69 Q144 -76 131 -84 Q118 -92 107.5 -102 Q97 -112 90.5 -125.5 Q84 -139 84 -156 Q84 -179 101.5 -193 Q119 -207 151 -207 Q166 -207 181.5 -202.5 Q197 -198 209.5 -189 Q222 -180 230 -167 Q238 -154 238 -137 Z M270 59 Q270 76 256.5 86.5 Q243 97 214 97 Q201 97 187.5 93.5 Q174 90 163 83.5 Q152 77 145 66 Q138 55 138 40 Q138 29 144 20.5 Q150 12 158.5 5 Q167 -2 177 -6.5 Q187 -11 196 -15 Q207 -10 220 -3 Q233 4 244 13 Q255 22 262.5 33.5 Q270 45 270 59 Z " />
<glyph glyph-name="uni2089" unicode="&#x2089;" horiz-adv-x="357" d="M360 41 Q360 8 349 -24.5 Q338 -57 320 -87 Q302 -117 279 -143.5 Q256 -170 232 -190 Q206 -213 176.5 -229 Q147 -245 112 -259 Q98 -264 88 -267.5 Q78 -271 69 -273 Q60 -275 50 -276.5 Q40 -278 27 -279 L-2 -234 Q14 -232 24.5 -230.5 Q35 -229 43.5 -227.5 Q52 -226 59 -223.5 Q66 -221 75 -218 Q123 -200 161.5 -173 Q200 -146 232 -107 Q206 -117 177 -117 Q128 -117 99.5 -90 Q71 -63 71 -18 Q71 16 86 47 Q101 78 125.5 100.5 Q150 123 182 136.5 Q214 150 248 150 Q297 150 328.5 120.5 Q360 91 360 41 Z M287 33 Q287 63 273 79.5 Q259 96 235 96 Q214 96 197.5 86 Q181 76 169 60 Q157 44 151 25 Q145 6 145 -13 Q145 -38 158.5 -51 Q172 -64 195 -64 Q229 -64 267 -43 Q275 -23 281 -5.5 Q287 12 287 33 Z " />
<glyph glyph-name="Euro" unicode="&#x20ac;" horiz-adv-x="622" d="M614 579 Q601 590 588.5 599.5 Q576 609 561.5 615.5 Q547 622 528.5 625.5 Q510 629 486 629 Q426 629 383 599 Q340 569 302 511 Q279 476 263 432 L532 432 L520 373 L243 373 Q237 351 233.5 333 Q230 315 226 293 L503 293 L490 234 L221 234 Q220 196 228 163.5 Q236 131 255 107 Q274 83 305.5 69.5 Q337 56 382 56 Q420 56 454.5 68 Q489 80 526 100 L524 27 Q492 11 449 0 Q406 -11 355 -11 Q302 -11 261 8 Q220 27 192.5 60 Q165 93 151 138 Q137 183 137 234 L25 234 L38 293 L142 293 Q145 313 149 333 Q153 353 158 373 L55 373 L67 432 L178 432 Q200 492 231.5 540.5 Q263 589 303.5 623.5 Q344 658 393.5 676.5 Q443 695 501 695 Q532 695 555.5 690 Q579 685 596 677.5 Q613 670 624.5 662 Q636 654 642 648 L614 579 Z " />
<glyph glyph-name="uni20B4" unicode="&#x20b4;" horiz-adv-x="622" d="M204 234 Q188 217 179 197 Q170 177 170 153 Q170 107 203 80.5 Q236 54 290 54 Q346 54 390.5 67 Q435 80 482 106 L503 41 Q452 15 399.5 1 Q347 -13 284 -13 Q242 -13 208 -2 Q174 9 149 28.5 Q124 48 110.5 75.5 Q97 103 97 136 Q97 165 105 189 Q113 213 127 234 L66 234 L79 293 L185 293 Q217 316 253.5 335.5 Q290 355 328 373 L96 373 L108 432 L441 432 Q477 455 499.5 483 Q522 511 522 549 Q522 582 499.5 608 Q477 634 423 634 Q378 634 335.5 620 Q293 606 238 570 L211 635 Q323 701 432 701 Q472 701 502 689.5 Q532 678 552.5 659 Q573 640 583 615.5 Q593 591 593 566 Q593 523 576 490.5 Q559 458 531 432 L605 432 L593 373 L446 373 Q407 351 365.5 332 Q324 313 286 293 L576 293 L563 234 L204 234 Z " />
<glyph glyph-name="afii61352" unicode="&#x2116;" horiz-adv-x="949" d="M277 686 L424 194 Q430 174 435.5 147.5 Q441 121 444 104 Q452 166 462 221.5 Q472 277 480 313 L559 686 L637 686 L491 0 L405 0 L262 477 Q259 486 256 499 Q253 512 249.5 525.5 Q246 539 243 552 Q240 565 238 574 Q232 531 224 483.5 Q216 436 208 398 L123 0 L45 0 L191 686 L277 686 Z M840 642 Q813 642 794 626.5 Q775 611 763 587.5 Q751 564 746 536.5 Q741 509 741 485 Q741 472 743.5 459.5 Q746 447 752.5 437 Q759 427 769.5 421 Q780 415 796 415 Q823 415 842 430.5 Q861 446 873 469 Q885 492 890 520 Q895 548 895 572 Q895 585 892.5 597.5 Q890 610 883.5 620 Q877 630 866.5 636 Q856 642 840 642 Z M624 203 L635 255 L886 255 L875 203 L624 203 Z M851 686 Q880 686 899.5 678 Q919 670 931 656 Q943 642 948 623.5 Q953 605 953 583 Q953 546 943 508.5 Q933 471 912 440.5 Q891 410 859.5 390.5 Q828 371 785 371 Q756 371 736.5 379 Q717 387 705 401 Q693 415 688 433.5 Q683 452 683 474 Q683 510 693 547.5 Q703 585 724 615.5 Q745 646 776.5 666 Q808 686 851 686 Z " />
<glyph glyph-name="uni2117" unicode="&#x2117;" horiz-adv-x="874" d="M809 354 Q809 274 779.5 206 Q750 138 699 88.5 Q648 39 580.5 10.5 Q513 -18 437 -18 Q361 -18 293.5 10.5 Q226 39 175 88.5 Q124 138 94.5 206 Q65 274 65 354 Q65 433 94.5 501.5 Q124 570 175 619.5 Q226 669 293.5 697.5 Q361 726 437 726 Q513 726 580.5 697.5 Q648 669 699 619.5 Q750 570 779.5 501.5 Q809 433 809 354 Z M743 354 Q743 421 719 479.5 Q695 538 653.5 580.5 Q612 623 556.5 647.5 Q501 672 437 672 Q373 672 317 647.5 Q261 623 220 580.5 Q179 538 155 479.5 Q131 421 131 354 Q131 286 155 228 Q179 170 220 127.5 Q261 85 317 60.5 Q373 36 437 36 Q501 36 556.5 60.5 Q612 85 653.5 127.5 Q695 170 719 228 Q743 286 743 354 Z M596 444 Q596 412 587 388 Q578 364 557 345 Q536 326 512 318.5 Q488 311 457 311 L394 311 L394 150 L336 150 L336 563 L452 563 Q484 563 504 559.5 Q524 556 541 545 Q567 528 581.5 502 Q596 476 596 444 Z M531 434 Q531 477 510 495 Q499 505 482.5 509 Q466 513 438 513 L394 513 L394 360 L454 360 Q479 360 491.5 365 Q504 370 513 381 Q531 402 531 434 Z " />
<glyph glyph-name="trademark" unicode="&#x2122;" horiz-adv-x="944" d="M854 258 L785 258 L824 569 Q824 571 824.5 573 Q825 575 825 577 L662 258 L604 258 L579 557 Q578 565 578 571.5 Q578 578 576 584 Q575 577 573.5 569.5 Q572 562 570 557 L483 258 L415 258 L544 686 L634 686 L657 410 Q658 400 658.5 392.5 Q659 385 659 377 L673 408 L813 686 L904 686 L854 258 Z M418 628 L302 628 L225 258 L158 258 L234 628 L119 628 L130 686 L435 686 L418 628 Z " />
<glyph glyph-name="Omega" unicode="&#x2126;" horiz-adv-x="715" d="M678 455 Q678 402 664 344 Q650 286 625 233 Q600 180 564 137 Q528 94 485 71 L602 71 L574 0 L377 0 L377 71 Q483 131 534.5 231 Q586 331 586 453 Q586 489 579.5 521.5 Q573 554 556.5 578.5 Q540 603 511.5 617.5 Q483 632 440 632 Q392 632 346 610.5 Q300 589 273 552 Q225 487 201.5 408.5 Q178 330 178 249 Q178 211 184 183 Q190 155 200.5 134 Q211 113 225 98 Q239 83 254 71 L239 0 L53 0 L53 71 L163 71 Q125 106 107 158 Q89 210 89 271 Q89 360 120 446.5 Q151 533 211 596 Q257 644 318.5 671 Q380 698 454 698 Q511 698 553 679.5 Q595 661 622.5 628.5 Q650 596 664 551.5 Q678 507 678 455 Z " />
<glyph glyph-name="uni2150" unicode="&#x2150;" horiz-adv-x="1010" d="M237 315 L297 315 L285 260 L95 260 L107 315 L169 315 L223 571 Q201 559 175.5 548.5 Q150 538 124 528 L116 569 L258 652 L309 652 L237 315 Z M184 -154 L118 -154 L840 763 L906 763 L184 -154 Z M1011 328 Q961 275 928 237.5 Q895 200 867 163 Q827 109 802.5 69.5 Q778 30 770 7 L766 -5 L682 -24 Q689 -6 695 6.5 Q701 19 706 29.5 Q711 40 717 50 Q723 60 731 72 Q752 103 777 138 Q802 173 829.5 207.5 Q857 242 886 274 Q915 306 944 332 Q936 332 927.5 331.5 Q919 331 910 331 L738 331 L767 388 L1037 388 L1011 328 Z " />
<glyph glyph-name="uni2151" unicode="&#x2151;" horiz-adv-x="1030" d="M237 315 L297 315 L285 260 L95 260 L107 315 L169 315 L223 571 Q201 559 175.5 548.5 Q150 538 124 528 L116 569 L258 652 L309 652 L237 315 Z M194 -154 L128 -154 L850 763 L916 763 L194 -154 Z M1033 291 Q1033 258 1022 225.5 Q1011 193 993 163 Q975 133 952 106.5 Q929 80 905 60 Q879 37 849.5 21 Q820 5 785 -9 Q771 -14 761 -17.5 Q751 -21 742 -23 Q733 -25 723 -26.5 Q713 -28 700 -29 L671 16 Q687 18 697.5 19.5 Q708 21 716.5 22.5 Q725 24 732 26.5 Q739 29 748 32 Q796 50 834.5 77 Q873 104 905 143 Q879 133 850 133 Q801 133 772.5 160 Q744 187 744 232 Q744 266 759 297 Q774 328 798.5 350.5 Q823 373 855 386.5 Q887 400 921 400 Q970 400 1001.5 370.5 Q1033 341 1033 291 Z M960 283 Q960 313 946 329.5 Q932 346 908 346 Q887 346 870.5 336 Q854 326 842 310 Q830 294 824 275 Q818 256 818 237 Q818 212 831.5 199 Q845 186 868 186 Q902 186 940 207 Q948 227 954 244.5 Q960 262 960 283 Z " />
<glyph glyph-name="uni2152" unicode="&#x2152;" horiz-adv-x="1303" d="M237 315 L297 315 L285 260 L95 260 L107 315 L169 315 L223 571 Q201 559 175.5 548.5 Q150 538 124 528 L116 569 L258 652 L309 652 L237 315 Z M204 -154 L138 -154 L860 763 L926 763 L204 -154 Z M855 55 L915 55 L903 0 L713 0 L725 55 L787 55 L841 311 Q820 299 794 288.5 Q768 278 742 268 L734 309 L875 392 L926 392 L855 55 Z M1290 196 Q1281 152 1263 114 Q1245 76 1220 48.5 Q1195 21 1163.5 5.5 Q1132 -10 1096 -10 Q1065 -10 1044.5 2.5 Q1024 15 1011.5 35.5 Q999 56 994 81.5 Q989 107 989 134 Q989 151 991 168.5 Q993 186 996 201 Q1004 240 1022 276 Q1040 312 1065 339.5 Q1090 367 1120.5 383.5 Q1151 400 1184 400 Q1216 400 1237.5 388 Q1259 376 1272.5 356 Q1286 336 1291.5 310.5 Q1297 285 1297 258 Q1297 242 1295 226 Q1293 210 1290 196 Z M1226 262 Q1226 275 1224 289.5 Q1222 304 1216 316 Q1210 328 1199.5 336 Q1189 344 1173 344 Q1143 344 1110 301 Q1083 264 1068 199 Q1059 155 1059 124 Q1059 83 1074.5 63.5 Q1090 44 1109 44 Q1125 44 1144.5 57.5 Q1164 71 1180 94 Q1192 112 1201 138 Q1210 164 1217 196 Q1222 217 1224 232.5 Q1226 248 1226 262 Z " />
<glyph glyph-name="onethird" unicode="&#x2153;" horiz-adv-x="996" d="M237 315 L297 315 L285 260 L95 260 L107 315 L169 315 L223 571 Q201 559 175.5 548.5 Q150 538 124 528 L116 569 L258 652 L309 652 L237 315 Z M184 -154 L118 -154 L840 763 L906 763 L184 -154 Z M996 317 Q996 282 975 254 Q954 226 922 212 Q944 201 956.5 183.5 Q969 166 969 142 Q969 117 957.5 94.5 Q946 72 928 54 Q910 36 887.5 22 Q865 8 844 0 Q820 -9 788 -14.5 Q756 -20 723 -20 Q712 -20 705.5 -19.5 Q699 -19 686 -17 L680 34 Q693 32 702 31 Q711 30 724 30 Q762 30 793.5 37 Q825 44 855 66 Q872 78 885 98.5 Q898 119 898 141 Q898 174 865 183 Q859 184 854.5 185 Q850 186 843 187 Q836 188 825 188 L780 188 L791 239 L807 239 Q840 239 857 240 Q874 241 884 245 Q901 252 912 267.5 Q923 283 923 301 Q923 319 909.5 330.5 Q896 342 871 342 Q842 342 817 331.5 Q792 321 766 305 L741 342 Q773 366 813.5 382.5 Q854 399 892 399 Q939 399 967.5 377 Q996 355 996 317 Z " />
<glyph glyph-name="twothirds" unicode="&#x2154;" horiz-adv-x="1018" d="M371 568 Q371 539 358 512 Q345 485 325 460.5 Q305 436 281.5 415 Q258 394 238 377 Q217 360 196 343.5 Q175 327 159 315 Q164 315 171 315.5 Q178 316 183 316 L323 316 L297 260 L50 260 L58 300 Q81 314 107.5 333 Q134 352 169 383 Q184 396 205 415.5 Q226 435 245.5 457.5 Q265 480 279 504.5 Q293 529 293 552 Q293 574 279.5 587.5 Q266 601 243 601 Q216 601 191 588 L141 562 L115 597 Q163 630 199.5 644.5 Q236 659 271 659 Q316 659 343.5 633.5 Q371 608 371 568 Z M206 -154 L140 -154 L862 763 L928 763 L206 -154 Z M1018 317 Q1018 282 997 254 Q976 226 944 212 Q966 201 978.5 183.5 Q991 166 991 142 Q991 117 979.5 94.5 Q968 72 950 54 Q932 36 909.5 22 Q887 8 866 0 Q842 -9 810 -14.5 Q778 -20 745 -20 Q734 -20 727.5 -19.5 Q721 -19 708 -17 L702 34 Q715 32 724 31 Q733 30 746 30 Q784 30 815.5 37 Q847 44 877 66 Q894 78 907 98.5 Q920 119 920 141 Q920 174 887 183 Q881 184 876.5 185 Q872 186 865 187 Q858 188 847 188 L802 188 L813 239 L829 239 Q862 239 879 240 Q896 241 906 245 Q923 252 934 267.5 Q945 283 945 301 Q945 319 931.5 330.5 Q918 342 893 342 Q864 342 839 331.5 Q814 321 788 305 L763 342 Q795 366 835.5 382.5 Q876 399 914 399 Q961 399 989.5 377 Q1018 355 1018 317 Z " />
<glyph glyph-name="uni2155" unicode="&#x2155;" horiz-adv-x="973" d="M237 315 L297 315 L285 260 L95 260 L107 315 L169 315 L223 571 Q201 559 175.5 548.5 Q150 538 124 528 L116 569 L258 652 L309 652 L237 315 Z M184 -154 L118 -154 L840 763 L906 763 L184 -154 Z M959 331 L832 331 L805 240 Q814 241 819.5 241.5 Q825 242 834 242 Q857 242 877.5 237 Q898 232 913.5 221.5 Q929 211 938 193.5 Q947 176 947 151 Q947 127 938 104 Q929 81 914 61.5 Q899 42 879 26.5 Q859 11 838 2 Q815 -9 786 -15 Q757 -21 731 -21 Q717 -21 707 -20.5 Q697 -20 679 -15 L677 43 Q696 35 707 32.5 Q718 30 732 30 Q753 30 778 37 Q803 44 824.5 57.5 Q846 71 860.5 91 Q875 111 875 136 Q875 167 855 178 Q835 189 807 189 Q786 189 763.5 185 Q741 181 715 170 L783 388 L982 388 L959 331 Z " />
<glyph glyph-name="uni2156" unicode="&#x2156;" horiz-adv-x="995" d="M371 568 Q371 539 358 512 Q345 485 325 460.5 Q305 436 281.5 415 Q258 394 238 377 Q217 360 196 343.5 Q175 327 159 315 Q164 315 171 315.5 Q178 316 183 316 L323 316 L297 260 L50 260 L58 300 Q81 314 107.5 333 Q134 352 169 383 Q184 396 205 415.5 Q226 435 245.5 457.5 Q265 480 279 504.5 Q293 529 293 552 Q293 574 279.5 587.5 Q266 601 243 601 Q216 601 191 588 L141 562 L115 597 Q163 630 199.5 644.5 Q236 659 271 659 Q316 659 343.5 633.5 Q371 608 371 568 Z M216 -154 L150 -154 L872 763 L938 763 L216 -154 Z M981 331 L854 331 L827 240 Q836 241 841.5 241.5 Q847 242 856 242 Q879 242 899.5 237 Q920 232 935.5 221.5 Q951 211 960 193.5 Q969 176 969 151 Q969 127 960 104 Q951 81 936 61.5 Q921 42 901 26.5 Q881 11 860 2 Q837 -9 808 -15 Q779 -21 753 -21 Q739 -21 729 -20.5 Q719 -20 701 -15 L699 43 Q718 35 729 32.5 Q740 30 754 30 Q775 30 800 37 Q825 44 846.5 57.5 Q868 71 882.5 91 Q897 111 897 136 Q897 167 877 178 Q857 189 829 189 Q808 189 785.5 185 Q763 181 737 170 L805 388 L1004 388 L981 331 Z " />
<glyph glyph-name="uni2157" unicode="&#x2157;" horiz-adv-x="1005" d="M381 577 Q381 541 360 513.5 Q339 486 307 472 Q329 461 341.5 443.5 Q354 426 354 402 Q354 377 342.5 354.5 Q331 332 313 314 Q295 296 272.5 282 Q250 268 229 260 Q205 251 172.5 245.5 Q140 240 107 240 Q96 240 90 240.5 Q84 241 71 243 L65 294 Q76 292 87 291 Q98 290 109 290 Q147 290 178.5 297 Q210 304 240 326 Q258 339 270 358.5 Q282 378 282 401 Q282 434 250 443 Q244 444 239.5 445 Q235 446 228 447 Q221 448 210 448 L165 448 L176 499 L192 499 Q225 499 242 500 Q259 501 269 505 Q285 511 296.5 527.5 Q308 544 308 561 Q308 579 294 590.5 Q280 602 255 602 Q226 602 201.5 591.5 Q177 581 151 565 L125 602 Q157 626 198 642.5 Q239 659 277 659 Q324 659 352.5 637 Q381 615 381 577 Z M206 -154 L140 -154 L862 763 L928 763 L206 -154 Z M991 331 L864 331 L837 240 Q846 241 851.5 241.5 Q857 242 866 242 Q889 242 909.5 237 Q930 232 945.5 221.5 Q961 211 970 193.5 Q979 176 979 151 Q979 127 970 104 Q961 81 946 61.5 Q931 42 911 26.5 Q891 11 870 2 Q847 -9 818 -15 Q789 -21 763 -21 Q749 -21 739 -20.5 Q729 -20 711 -15 L709 43 Q728 35 739 32.5 Q750 30 764 30 Q785 30 810 37 Q835 44 856.5 57.5 Q878 71 892.5 91 Q907 111 907 136 Q907 167 887 178 Q867 189 839 189 Q818 189 795.5 185 Q773 181 747 170 L815 388 L1014 388 L991 331 Z " />
<glyph glyph-name="uni2158" unicode="&#x2158;" horiz-adv-x="992" d="M358 331 L309 331 Q308 328 308.5 325 Q309 322 308 319 L295 259 L224 241 L244 331 L65 331 L75 378 L280 653 L355 653 Q341 634 317.5 601.5 Q294 569 266 531 Q238 493 208.5 454 Q179 415 153 384 L160 385 L256 385 L256 391 Q256 399 259 406 Q262 413 265 423 L296 531 L356 548 L324 393 L321 385 L370 385 L358 331 Z M203 -154 L137 -154 L859 763 L925 763 L203 -154 Z M978 331 L851 331 L824 240 Q833 241 838.5 241.5 Q844 242 853 242 Q876 242 896.5 237 Q917 232 932.5 221.5 Q948 211 957 193.5 Q966 176 966 151 Q966 127 957 104 Q948 81 933 61.5 Q918 42 898 26.5 Q878 11 857 2 Q834 -9 805 -15 Q776 -21 750 -21 Q736 -21 726 -20.5 Q716 -20 698 -15 L696 43 Q715 35 726 32.5 Q737 30 751 30 Q772 30 797 37 Q822 44 843.5 57.5 Q865 71 879.5 91 Q894 111 894 136 Q894 167 874 178 Q854 189 826 189 Q805 189 782.5 185 Q760 181 734 170 L802 388 L1001 388 L978 331 Z " />
<glyph glyph-name="uni2159" unicode="&#x2159;" horiz-adv-x="1010" d="M237 315 L297 315 L285 260 L95 260 L107 315 L169 315 L223 571 Q201 559 175.5 548.5 Q150 538 124 528 L116 569 L258 652 L309 652 L237 315 Z M184 -154 L118 -154 L840 763 L906 763 L184 -154 Z M1001 371 Q985 366 974.5 363 Q964 360 955.5 356.5 Q947 353 939.5 349.5 Q932 346 923 341 Q885 321 853.5 292.5 Q822 264 801 226 Q820 236 840.5 241.5 Q861 247 879 247 Q899 247 918 240.5 Q937 234 952 222 Q967 210 976 193 Q985 176 985 154 Q985 120 970.5 90 Q956 60 931.5 38 Q907 16 875.5 3 Q844 -10 811 -10 Q755 -10 725.5 22 Q696 54 696 108 Q696 168 723 220 Q750 272 794 312 Q837 351 885 376 Q933 401 993 417 L1001 371 Z M910 145 Q910 168 895 180.5 Q880 193 857 193 Q821 193 780 167 Q775 153 772.5 135.5 Q770 118 770 104 Q770 80 780.5 62 Q791 44 822 44 Q842 44 858.5 52.5 Q875 61 886.5 75.5 Q898 90 904 108 Q910 126 910 145 Z " />
<glyph glyph-name="uni215A" unicode="&#x215a;" horiz-adv-x="986" d="M342 591 L215 591 L187 500 Q196 501 202 501.5 Q208 502 217 502 Q240 502 260.5 497 Q281 492 296.5 481.5 Q312 471 321 453.5 Q330 436 330 411 Q330 387 321 364 Q312 341 297 321.5 Q282 302 262 286.5 Q242 271 221 262 Q198 251 168.5 245 Q139 239 113 239 Q99 239 89 240 Q79 241 61 246 L60 304 Q83 293 92 291.5 Q101 290 115 290 Q136 290 161 297 Q186 304 207.5 317.5 Q229 331 243 351 Q257 371 257 396 Q257 427 237 438 Q217 449 189 449 Q168 449 145.5 445 Q123 441 97 430 L166 648 L365 648 L342 591 Z M170 -154 L104 -154 L826 763 L892 763 L170 -154 Z M977 371 Q961 366 950.5 363 Q940 360 931.5 356.5 Q923 353 915.5 349.5 Q908 346 899 341 Q861 321 829.5 292.5 Q798 264 777 226 Q796 236 816.5 241.5 Q837 247 855 247 Q875 247 894 240.5 Q913 234 928 222 Q943 210 952 193 Q961 176 961 154 Q961 120 946.5 90 Q932 60 907.5 38 Q883 16 851.5 3 Q820 -10 787 -10 Q731 -10 701.5 22 Q672 54 672 108 Q672 168 699 220 Q726 272 770 312 Q813 351 861 376 Q909 401 969 417 L977 371 Z M886 145 Q886 168 871 180.5 Q856 193 833 193 Q797 193 756 167 Q751 153 748.5 135.5 Q746 118 746 104 Q746 80 756.5 62 Q767 44 798 44 Q818 44 834.5 52.5 Q851 61 862.5 75.5 Q874 90 880 108 Q886 126 886 145 Z " />
<glyph glyph-name="oneeighth" unicode="&#x215b;" horiz-adv-x="1012" d="M237 315 L297 315 L285 260 L95 260 L107 315 L169 315 L223 571 Q201 559 175.5 548.5 Q150 538 124 528 L116 569 L258 652 L309 652 L237 315 Z M184 -154 L118 -154 L840 763 L906 763 L184 -154 Z M1011 322 Q1011 301 1003 284 Q995 267 982 253 Q969 239 952.5 228 Q936 217 918 209 Q944 195 963.5 178.5 Q983 162 983 132 Q983 100 967 73.5 Q951 47 925.5 28.5 Q900 10 869.5 0 Q839 -10 810 -10 Q756 -10 722 16 Q688 42 688 84 Q688 106 696 125 Q704 144 717.5 159.5 Q731 175 748 187 Q765 199 784 207 Q743 235 743 277 Q743 309 758 332 Q773 355 796.5 370 Q820 385 848.5 392 Q877 399 904 399 Q952 399 981.5 378.5 Q1011 358 1011 322 Z M911 113 Q911 125 904 136 Q897 145 881 154.5 Q865 164 831 181 Q817 174 804 166 Q791 158 780.5 148 Q770 138 763.5 124.5 Q757 111 757 94 Q757 71 774.5 57 Q792 43 824 43 Q839 43 854.5 47.5 Q870 52 882.5 61 Q895 70 903 83 Q911 96 911 113 Z M943 309 Q943 326 929.5 336.5 Q916 347 887 347 Q874 347 860.5 343.5 Q847 340 836 333.5 Q825 327 818 316 Q811 305 811 290 Q811 279 817 270.5 Q823 262 831.5 255 Q840 248 850 243.5 Q860 239 869 235 Q880 240 893 247 Q906 254 917 263 Q928 272 935.5 283.5 Q943 295 943 309 Z " />
<glyph glyph-name="threeeighths" unicode="&#x215c;" horiz-adv-x="1044" d="M381 577 Q381 541 360 513.5 Q339 486 307 472 Q329 461 341.5 443.5 Q354 426 354 402 Q354 377 342.5 354.5 Q331 332 313 314 Q295 296 272.5 282 Q250 268 229 260 Q205 251 172.5 245.5 Q140 240 107 240 Q96 240 90 240.5 Q84 241 71 243 L65 294 Q76 292 87 291 Q98 290 109 290 Q147 290 178.5 297 Q210 304 240 326 Q258 339 270 358.5 Q282 378 282 401 Q282 434 250 443 Q244 444 239.5 445 Q235 446 228 447 Q221 448 210 448 L165 448 L176 499 L192 499 Q225 499 242 500 Q259 501 269 505 Q285 511 296.5 527.5 Q308 544 308 561 Q308 579 294 590.5 Q280 602 255 602 Q226 602 201.5 591.5 Q177 581 151 565 L125 602 Q157 626 198 642.5 Q239 659 277 659 Q324 659 352.5 637 Q381 615 381 577 Z M206 -154 L140 -154 L862 763 L928 763 L206 -154 Z M1043 322 Q1043 301 1035 284 Q1027 267 1014 253 Q1001 239 984.5 228 Q968 217 950 209 Q976 195 995.5 178.5 Q1015 162 1015 132 Q1015 100 999 73.5 Q983 47 957.5 28.5 Q932 10 901.5 0 Q871 -10 842 -10 Q788 -10 754 16 Q720 42 720 84 Q720 106 728 125 Q736 144 749.5 159.5 Q763 175 780 187 Q797 199 816 207 Q775 235 775 277 Q775 309 790 332 Q805 355 828.5 370 Q852 385 880.5 392 Q909 399 936 399 Q984 399 1013.5 378.5 Q1043 358 1043 322 Z M943 113 Q943 125 936 136 Q929 145 913 154.5 Q897 164 863 181 Q849 174 836 166 Q823 158 812.5 148 Q802 138 795.5 124.5 Q789 111 789 94 Q789 71 806.5 57 Q824 43 856 43 Q871 43 886.5 47.5 Q902 52 914.5 61 Q927 70 935 83 Q943 96 943 113 Z M975 309 Q975 326 961.5 336.5 Q948 347 919 347 Q906 347 892.5 343.5 Q879 340 868 333.5 Q857 327 850 316 Q843 305 843 290 Q843 279 849 270.5 Q855 262 863.5 255 Q872 248 882 243.5 Q892 239 901 235 Q912 240 925 247 Q938 254 949 263 Q960 272 967.5 283.5 Q975 295 975 309 Z " />
<glyph glyph-name="fiveeighths" unicode="&#x215d;" horiz-adv-x="988" d="M342 591 L215 591 L187 500 Q196 501 202 501.5 Q208 502 217 502 Q240 502 260.5 497 Q281 492 296.5 481.5 Q312 471 321 453.5 Q330 436 330 411 Q330 387 321 364 Q312 341 297 321.5 Q282 302 262 286.5 Q242 271 221 262 Q198 251 168.5 245 Q139 239 113 239 Q99 239 89 240 Q79 241 61 246 L60 304 Q83 293 92 291.5 Q101 290 115 290 Q136 290 161 297 Q186 304 207.5 317.5 Q229 331 243 351 Q257 371 257 396 Q257 427 237 438 Q217 449 189 449 Q168 449 145.5 445 Q123 441 97 430 L166 648 L365 648 L342 591 Z M170 -154 L104 -154 L826 763 L892 763 L170 -154 Z M987 322 Q987 301 979 284 Q971 267 958 253 Q945 239 928.5 228 Q912 217 894 209 Q920 195 939.5 178.5 Q959 162 959 132 Q959 100 943 73.5 Q927 47 901.5 28.5 Q876 10 845.5 0 Q815 -10 786 -10 Q732 -10 698 16 Q664 42 664 84 Q664 106 672 125 Q680 144 693.5 159.5 Q707 175 724 187 Q741 199 760 207 Q719 235 719 277 Q719 309 734 332 Q749 355 772.5 370 Q796 385 824.5 392 Q853 399 880 399 Q928 399 957.5 378.5 Q987 358 987 322 Z M887 113 Q887 125 880 136 Q873 145 857 154.5 Q841 164 807 181 Q793 174 780 166 Q767 158 756.5 148 Q746 138 739.5 124.5 Q733 111 733 94 Q733 71 750.5 57 Q768 43 800 43 Q815 43 830.5 47.5 Q846 52 858.5 61 Q871 70 879 83 Q887 96 887 113 Z M919 309 Q919 326 905.5 336.5 Q892 347 863 347 Q850 347 836.5 343.5 Q823 340 812 333.5 Q801 327 794 316 Q787 305 787 290 Q787 279 793 270.5 Q799 262 807.5 255 Q816 248 826 243.5 Q836 239 845 235 Q856 240 869 247 Q882 254 893 263 Q904 272 911.5 283.5 Q919 295 919 309 Z " />
<glyph glyph-name="seveneighths" unicode="&#x215e;" horiz-adv-x="1025" d="M393 588 Q351 543 313.5 501 Q276 459 249 423 Q211 372 186 331 Q161 290 153 267 L148 255 L64 236 Q71 254 76.5 266 Q82 278 87.5 288 Q93 298 99 308 Q105 318 114 332 Q135 363 160 398 Q185 433 212.5 467.5 Q240 502 268.5 534 Q297 566 326 592 Q318 592 310 591.5 Q302 591 293 591 L121 591 L150 648 L420 648 L393 588 Z M127 -154 L61 -154 L783 763 L849 763 L127 -154 Z M1024 322 Q1024 301 1016 284 Q1008 267 995 253 Q982 239 965.5 228 Q949 217 931 209 Q957 195 976.5 178.5 Q996 162 996 132 Q996 100 980 73.5 Q964 47 938.5 28.5 Q913 10 882.5 0 Q852 -10 823 -10 Q769 -10 735 16 Q701 42 701 84 Q701 106 709 125 Q717 144 730.5 159.5 Q744 175 761 187 Q778 199 797 207 Q756 235 756 277 Q756 309 771 332 Q786 355 809.5 370 Q833 385 861.5 392 Q890 399 917 399 Q965 399 994.5 378.5 Q1024 358 1024 322 Z M924 113 Q924 125 917 136 Q910 145 894 154.5 Q878 164 844 181 Q830 174 817 166 Q804 158 793.5 148 Q783 138 776.5 124.5 Q770 111 770 94 Q770 71 787.5 57 Q805 43 837 43 Q852 43 867.5 47.5 Q883 52 895.5 61 Q908 70 916 83 Q924 96 924 113 Z M956 309 Q956 326 942.5 336.5 Q929 347 900 347 Q887 347 873.5 343.5 Q860 340 849 333.5 Q838 327 831 316 Q824 305 824 290 Q824 279 830 270.5 Q836 262 844.5 255 Q853 248 863 243.5 Q873 239 882 235 Q893 240 906 247 Q919 254 930 263 Q941 272 948.5 283.5 Q956 295 956 309 Z " />
<glyph glyph-name="uni215F" unicode="&#x215f;" horiz-adv-x="673" d="M237 315 L297 315 L285 260 L95 260 L107 315 L169 315 L223 571 Q201 559 175.5 548.5 Q150 538 124 528 L116 569 L258 652 L309 652 L237 315 Z M164 -154 L98 -154 L820 763 L886 763 L164 -154 Z " />
<glyph glyph-name="uni2189" unicode="&#x2189;" horiz-adv-x="1017" d="M394 519 Q394 502 392 486.5 Q390 471 387 456 Q378 412 359.5 374 Q341 336 315.5 308.5 Q290 281 258.5 265.5 Q227 250 193 250 Q162 250 141.5 262.5 Q121 275 108.5 295.5 Q96 316 91 341.5 Q86 367 86 394 Q86 411 88 428.5 Q90 446 93 461 Q101 500 120 536 Q139 572 164.5 599.5 Q190 627 220 643.5 Q250 660 281 660 Q313 660 334.5 648 Q356 636 369.5 616 Q383 596 388.5 571 Q394 546 394 519 Z M323 524 Q323 537 321 551 Q319 565 313 577 Q307 589 296.5 596.5 Q286 604 270 604 Q240 604 207 561 Q181 526 166 459 Q161 436 158.5 417 Q156 398 156 383 Q156 371 158.5 357.5 Q161 344 167 332 Q173 320 183 312 Q193 304 207 304 Q223 304 242 317.5 Q261 331 277 354 Q289 372 298 398 Q307 424 314 456 Q319 478 321 494 Q323 510 323 524 Z M205 -154 L139 -154 L861 763 L927 763 L205 -154 Z M1017 317 Q1017 282 996 254 Q975 226 943 212 Q965 201 977.5 183.5 Q990 166 990 142 Q990 117 978.5 94.5 Q967 72 949 54 Q931 36 908.5 22 Q886 8 865 0 Q841 -9 809 -14.5 Q777 -20 744 -20 Q733 -20 726.5 -19.5 Q720 -19 707 -17 L701 34 Q714 32 723 31 Q732 30 745 30 Q783 30 814.5 37 Q846 44 876 66 Q893 78 906 98.5 Q919 119 919 141 Q919 174 886 183 Q880 184 875.5 185 Q871 186 864 187 Q857 188 846 188 L801 188 L812 239 L828 239 Q861 239 878 240 Q895 241 905 245 Q922 252 933 267.5 Q944 283 944 301 Q944 319 930.5 330.5 Q917 342 892 342 Q863 342 838 331.5 Q813 321 787 305 L762 342 Q794 366 834.5 382.5 Q875 399 913 399 Q960 399 988.5 377 Q1017 355 1017 317 Z " />
<glyph glyph-name="arrowleft" unicode="&#x2190;" horiz-adv-x="1152" d="M235 395 Q235 375 221.5 360.5 Q208 346 188 346 Q168 346 154 360.5 Q140 375 140 395 Q140 415 153.5 429.5 Q167 444 187 444 Q207 444 221 429.5 Q235 415 235 395 Z M127 277 Q127 257 113.5 242.5 Q100 228 80 228 Q60 228 46 242.5 Q32 257 32 277 Q32 297 45.5 311.5 Q59 326 79 326 Q99 326 113 311.5 Q127 297 127 277 Z M185 159 Q185 139 171 124.5 Q157 110 137 110 Q117 110 103.5 124.5 Q90 139 90 159 Q90 179 104 193.5 Q118 208 138 208 Q158 208 171.5 193.5 Q185 179 185 159 Z M451 631 Q451 611 437.5 596.5 Q424 582 404 582 Q384 582 370 596.5 Q356 611 356 631 Q356 651 369.5 665.5 Q383 680 402 680 Q422 680 436.5 665.5 Q451 651 451 631 Z M343 513 Q343 493 329.5 478.5 Q316 464 296 464 Q276 464 262 478.5 Q248 493 248 513 Q248 533 261.5 547.5 Q275 562 295 562 Q315 562 329 547.5 Q343 533 343 513 Z M994 275 Q994 255 980 240.5 Q966 226 946 226 Q926 226 912 240 Q898 254 898 274 Q898 294 911.5 308.5 Q925 323 945 323 Q965 323 979.5 309 Q994 295 994 275 Z M560 275 Q560 255 546 240.5 Q532 226 512 226 Q492 226 478 240 Q464 254 464 274 Q464 294 477.5 308.5 Q491 323 511 323 Q531 323 545.5 309 Q560 295 560 275 Z M301 -77 Q301 -97 286.5 -111.5 Q272 -126 252 -126 Q233 -126 219.5 -111.5 Q206 -97 206 -77 Q206 -57 220 -43 Q234 -29 254 -29 Q274 -29 287.5 -43 Q301 -57 301 -77 Z M243 41 Q243 21 229 6.5 Q215 -8 195 -8 Q175 -8 161.5 6.5 Q148 21 148 41 Q148 61 162 75 Q176 89 196 89 Q216 89 229.5 75 Q243 61 243 41 Z M270 275 Q270 255 256.5 240.5 Q243 226 223 226 Q203 226 189 240 Q175 254 175 274 Q175 294 188.5 308.5 Q202 323 222 323 Q242 323 256 309 Q270 295 270 275 Z M704 275 Q704 255 690.5 240.5 Q677 226 657 226 Q637 226 623 240 Q609 254 609 274 Q609 294 622.5 308.5 Q636 323 656 323 Q676 323 690 309 Q704 295 704 275 Z M849 275 Q849 255 835.5 240.5 Q822 226 802 226 Q782 226 768 240 Q754 254 754 274 Q754 294 767.5 308.5 Q781 323 801 323 Q821 323 835 309 Q849 295 849 275 Z M415 275 Q415 255 401.5 240.5 Q388 226 368 226 Q348 226 334 240 Q320 254 320 274 Q320 294 333.5 308.5 Q347 323 367 323 Q387 323 401 309 Q415 295 415 275 Z M1138 275 Q1138 255 1124.5 240.5 Q1111 226 1091 226 Q1071 226 1057 240 Q1043 254 1043 274 Q1043 294 1056.5 308.5 Q1070 323 1090 323 Q1110 323 1124 309 Q1138 295 1138 275 Z " />
<glyph glyph-name="arrowup" unicode="&#x2191;" horiz-adv-x="1162" d="M990 533 Q990 513 975.5 499 Q961 485 941 485 Q921 485 907 499 Q893 513 893 533 Q893 553 907 567.5 Q921 582 941 582 Q961 582 975.5 567.5 Q990 553 990 533 Z M630 -233 Q630 -253 615.5 -267 Q601 -281 581 -281 Q561 -281 547 -267 Q533 -253 533 -233 Q533 -213 547 -198.5 Q561 -184 581 -184 Q601 -184 615.5 -198.5 Q630 -213 630 -233 Z M630 -88 Q630 -108 615.5 -122 Q601 -136 581 -136 Q561 -136 547 -122 Q533 -108 533 -88 Q533 -68 547 -53.5 Q561 -39 581 -39 Q601 -39 615.5 -53.5 Q630 -68 630 -88 Z M630 57 Q630 37 615.5 23 Q601 9 581 9 Q561 9 547 23 Q533 37 533 57 Q533 77 547 91.5 Q561 106 581 106 Q601 106 615.5 91.5 Q630 77 630 57 Z M270 533 Q270 513 255.5 499 Q241 485 221 485 Q201 485 187 499 Q173 513 173 533 Q173 553 187 567.5 Q201 582 221 582 Q241 582 255.5 567.5 Q270 553 270 533 Z M630 202 Q630 182 615.5 168 Q601 154 581 154 Q561 154 547 168 Q533 182 533 202 Q533 222 547 236.5 Q561 251 581 251 Q601 251 615.5 236.5 Q630 222 630 202 Z M630 347 Q630 327 615.5 313 Q601 299 581 299 Q561 299 547 313 Q533 327 533 347 Q533 367 547 381.5 Q561 396 581 396 Q601 396 615.5 381.5 Q630 367 630 347 Z M390 616 Q390 596 375.5 582 Q361 568 341 568 Q321 568 307 582 Q293 596 293 616 Q293 636 307 650.5 Q321 665 341 665 Q361 665 375.5 650.5 Q390 636 390 616 Z M630 492 Q630 472 615.5 458 Q601 444 581 444 Q561 444 547 458 Q533 472 533 492 Q533 512 547 526.5 Q561 541 581 541 Q601 541 615.5 526.5 Q630 512 630 492 Z M510 699 Q510 679 495.5 665 Q481 651 461 651 Q441 651 427 665 Q413 679 413 699 Q413 719 427 733.5 Q441 748 461 748 Q481 748 495.5 733.5 Q510 719 510 699 Z M630 637 Q630 617 615.5 603 Q601 589 581 589 Q561 589 547 603 Q533 617 533 637 Q533 657 547 671.5 Q561 686 581 686 Q601 686 615.5 671.5 Q630 657 630 637 Z M630 782 Q630 762 615.5 748 Q601 734 581 734 Q561 734 547 748 Q533 762 533 782 Q533 802 547 816.5 Q561 831 581 831 Q601 831 615.5 816.5 Q630 802 630 782 Z M750 699 Q750 679 735.5 665 Q721 651 701 651 Q681 651 667 665 Q653 679 653 699 Q653 719 667 733.5 Q681 748 701 748 Q721 748 735.5 733.5 Q750 719 750 699 Z M870 616 Q870 596 855.5 582 Q841 568 821 568 Q801 568 787 582 Q773 596 773 616 Q773 636 787 650.5 Q801 665 821 665 Q841 665 855.5 650.5 Q870 636 870 616 Z " />
<glyph glyph-name="arrowright" unicode="&#x2192;" horiz-adv-x="1152" d="M1079 395 Q1079 375 1065 360.5 Q1051 346 1031 346 Q1011 346 997.5 360.5 Q984 375 984 395 Q984 415 998 429.5 Q1012 444 1032 444 Q1052 444 1065.5 429.5 Q1079 415 1079 395 Z M1137 277 Q1137 257 1123 242.5 Q1109 228 1089 228 Q1069 228 1055.5 242.5 Q1042 257 1042 277 Q1042 297 1056 311.5 Q1070 326 1090 326 Q1110 326 1123.5 311.5 Q1137 297 1137 277 Z M1029 159 Q1029 139 1015.5 124.5 Q1002 110 982 110 Q962 110 948 124.5 Q934 139 934 159 Q934 179 947.5 193.5 Q961 208 981 208 Q1001 208 1015 193.5 Q1029 179 1029 159 Z M1021 513 Q1021 493 1007 478.5 Q993 464 973 464 Q953 464 939.5 478.5 Q926 493 926 513 Q926 533 940 547.5 Q954 562 974 562 Q994 562 1007.5 547.5 Q1021 533 1021 513 Z M963 631 Q963 611 949 596.5 Q935 582 915 582 Q895 582 881.5 596.5 Q868 611 868 631 Q868 651 882 665.5 Q896 680 916 680 Q936 680 949.5 665.5 Q963 651 963 631 Z M705 274 Q705 254 691 240 Q677 226 657 226 Q637 226 623 240.5 Q609 255 609 275 Q609 295 623.5 309 Q638 323 658 323 Q678 323 691.5 308.5 Q705 294 705 274 Z M271 274 Q271 254 257 240 Q243 226 223 226 Q203 226 189 240.5 Q175 255 175 275 Q175 295 189.5 309 Q204 323 224 323 Q244 323 257.5 308.5 Q271 294 271 274 Z M921 41 Q921 21 907.5 6.5 Q894 -8 874 -8 Q854 -8 840 6.5 Q826 21 826 41 Q826 61 839.5 75 Q853 89 873 89 Q893 89 907 75 Q921 61 921 41 Z M813 -77 Q813 -97 799.5 -111.5 Q786 -126 766 -126 Q746 -126 732 -111.5 Q718 -97 718 -77 Q718 -57 731.5 -43 Q745 -29 765 -29 Q785 -29 799 -43 Q813 -57 813 -77 Z M126 274 Q126 254 112 240 Q98 226 78 226 Q58 226 44.5 240.5 Q31 255 31 275 Q31 295 45 309 Q59 323 79 323 Q99 323 112.5 308.5 Q126 294 126 274 Z M560 274 Q560 254 546 240 Q532 226 512 226 Q492 226 478.5 240.5 Q465 255 465 275 Q465 295 479 309 Q493 323 513 323 Q533 323 546.5 308.5 Q560 294 560 274 Z M994 274 Q994 254 980 240 Q966 226 946 226 Q926 226 912.5 240.5 Q899 255 899 275 Q899 295 913 309 Q927 323 947 323 Q967 323 980.5 308.5 Q994 294 994 274 Z M415 274 Q415 254 401 240 Q387 226 367 226 Q347 226 333.5 240.5 Q320 255 320 275 Q320 295 334 309 Q348 323 368 323 Q388 323 401.5 308.5 Q415 294 415 274 Z M849 274 Q849 254 835 240 Q821 226 801 226 Q781 226 767.5 240.5 Q754 255 754 275 Q754 295 768 309 Q782 323 802 323 Q822 323 835.5 308.5 Q849 294 849 274 Z " />
<glyph glyph-name="arrowdown" unicode="&#x2193;" horiz-adv-x="1162" d="M630 783 Q630 763 615.5 748.5 Q601 734 581 734 Q561 734 547 748.5 Q533 763 533 783 Q533 803 547 817 Q561 831 581 831 Q601 831 615.5 817 Q630 803 630 783 Z M270 17 Q270 -3 255.5 -17.5 Q241 -32 221 -32 Q201 -32 187 -17.5 Q173 -3 173 17 Q173 37 187 51 Q201 65 221 65 Q241 65 255.5 51 Q270 37 270 17 Z M390 -66 Q390 -86 375.5 -100.5 Q361 -115 341 -115 Q321 -115 307 -100.5 Q293 -86 293 -66 Q293 -46 307 -32 Q321 -18 341 -18 Q361 -18 375.5 -32 Q390 -46 390 -66 Z M510 -149 Q510 -169 495.5 -183.5 Q481 -198 461 -198 Q441 -198 427 -183.5 Q413 -169 413 -149 Q413 -129 427 -115 Q441 -101 461 -101 Q481 -101 495.5 -115 Q510 -129 510 -149 Z M630 -232 Q630 -252 615.5 -266.5 Q601 -281 581 -281 Q561 -281 547 -266.5 Q533 -252 533 -232 Q533 -212 547 -198 Q561 -184 581 -184 Q601 -184 615.5 -198 Q630 -212 630 -232 Z M630 -87 Q630 -107 615.5 -121.5 Q601 -136 581 -136 Q561 -136 547 -121.5 Q533 -107 533 -87 Q533 -67 547 -53 Q561 -39 581 -39 Q601 -39 615.5 -53 Q630 -67 630 -87 Z M750 -149 Q750 -169 735.5 -183.5 Q721 -198 701 -198 Q681 -198 667 -183.5 Q653 -169 653 -149 Q653 -129 667 -115 Q681 -101 701 -101 Q721 -101 735.5 -115 Q750 -129 750 -149 Z M630 58 Q630 38 615.5 23.5 Q601 9 581 9 Q561 9 547 23.5 Q533 38 533 58 Q533 78 547 92 Q561 106 581 106 Q601 106 615.5 92 Q630 78 630 58 Z M870 -66 Q870 -86 855.5 -100.5 Q841 -115 821 -115 Q801 -115 787 -100.5 Q773 -86 773 -66 Q773 -46 787 -32 Q801 -18 821 -18 Q841 -18 855.5 -32 Q870 -46 870 -66 Z M630 203 Q630 183 615.5 168.5 Q601 154 581 154 Q561 154 547 168.5 Q533 183 533 203 Q533 223 547 237 Q561 251 581 251 Q601 251 615.5 237 Q630 223 630 203 Z M630 348 Q630 328 615.5 313.5 Q601 299 581 299 Q561 299 547 313.5 Q533 328 533 348 Q533 368 547 382 Q561 396 581 396 Q601 396 615.5 382 Q630 368 630 348 Z M990 17 Q990 -3 975.5 -17.5 Q961 -32 941 -32 Q921 -32 907 -17.5 Q893 -3 893 17 Q893 37 907 51 Q921 65 941 65 Q961 65 975.5 51 Q990 37 990 17 Z M630 493 Q630 473 615.5 458.5 Q601 444 581 444 Q561 444 547 458.5 Q533 473 533 493 Q533 513 547 527 Q561 541 581 541 Q601 541 615.5 527 Q630 513 630 493 Z M630 638 Q630 618 615.5 603.5 Q601 589 581 589 Q561 589 547 603.5 Q533 618 533 638 Q533 658 547 672 Q561 686 581 686 Q601 686 615.5 672 Q630 658 630 638 Z " />
<glyph glyph-name="uni2196" unicode="&#x2196;" horiz-adv-x="1162" d="M975 -128 Q989 -142 989 -162 Q989 -182 974 -197 Q960 -211 940 -211 Q931 -211 922 -208 Q913 -205 906 -197 Q891 -182 891 -162 Q891 -142 905 -128 Q919 -114 940 -114 Q959 -114 975 -128 Z M231 446 Q245 432 245 412 Q245 392 230 377 Q216 363 196 363 Q187 363 178 366 Q169 369 162 377 Q147 392 147 412 Q147 432 161 446 Q175 460 196 460 Q215 460 231 446 Z M687 599 Q673 585 653 585 Q644 585 635 588 Q626 591 619 599 Q604 614 604 634 Q604 654 618 668 Q632 682 652 682 Q671 682 687 668 Q701 652 701 633 Q701 613 687 599 Z M359 418 Q345 404 325 404 Q316 404 307 407 Q298 410 291 418 Q276 433 276 453 Q276 473 290 487 Q304 501 324 501 Q343 501 359 487 Q373 471 373 452 Q373 432 359 418 Z M769 8 Q755 -6 735 -6 Q726 -6 717 -3 Q708 0 701 8 Q686 23 686 43 Q686 63 700 77 Q714 91 734 91 Q753 91 769 77 Q783 61 783 42 Q783 22 769 8 Z M564 213 Q550 199 530 199 Q521 199 512 202 Q503 205 496 213 Q481 228 481 248 Q481 268 495 282 Q509 296 529 296 Q548 296 564 282 Q578 266 578 247 Q578 227 564 213 Z M178 90 Q164 76 144 76 Q135 76 126 79 Q117 82 110 90 Q95 105 95 125 Q95 145 109 159 Q123 173 143 173 Q162 173 178 159 Q192 143 192 124 Q192 104 178 90 Z M544 642 Q558 628 558 608 Q558 588 543 573 Q529 559 509 559 Q500 559 491 562 Q482 565 475 573 Q461 586 461 607 Q461 616 464 625 Q467 634 475 642 Q489 656 509 656 Q528 656 544 642 Z M257 589 Q271 575 271 556 Q271 536 256 521 Q242 507 222 507 Q213 507 204 510 Q195 513 188 521 Q173 536 173 556 Q173 575 187 589 Q201 603 222 603 Q241 603 257 589 Z M204 234 Q190 220 170 220 Q161 220 152 223 Q143 226 136 234 Q121 249 121 269 Q121 288 135 302 Q149 316 169 316 Q188 316 204 302 Q218 286 218 268 Q218 248 204 234 Z M400 547 Q386 533 366 533 Q357 533 348 536 Q339 539 332 547 Q317 562 317 582 Q317 601 331 615 Q345 629 365 629 Q384 629 400 615 Q414 599 414 581 Q414 561 400 547 Z M667 179 Q681 165 681 146 Q681 126 666 111 Q652 97 632 97 Q623 97 614 100 Q605 103 598 111 Q590 118 587 127 Q584 136 584 145 Q584 165 598 179 Q612 193 632 193 Q651 193 667 179 Z M462 384 Q476 370 476 351 Q476 331 461 316 Q447 302 427 302 Q418 302 409 305 Q400 308 393 316 Q385 323 382 332 Q379 341 379 350 Q379 370 393 384 Q407 398 427 398 Q446 398 462 384 Z M872 -26 Q886 -40 886 -59 Q886 -79 871 -94 Q857 -108 837 -108 Q828 -108 819 -105 Q810 -102 803 -94 Q795 -87 792 -78 Q789 -69 789 -60 Q789 -40 803 -26 Q817 -12 837 -12 Q856 -12 872 -26 Z " />
<glyph glyph-name="uni2197" unicode="&#x2197;" horiz-adv-x="1162" d="M923 446 Q937 432 937 412 Q937 392 922 377 Q908 363 888 363 Q879 363 870 366 Q861 369 854 377 Q839 392 839 412 Q839 432 853 446 Q867 460 888 460 Q907 460 923 446 Z M179 -128 Q193 -142 193 -162 Q193 -182 178 -197 Q164 -211 144 -211 Q135 -211 126 -208 Q117 -205 110 -197 Q95 -182 95 -162 Q95 -142 109 -128 Q123 -114 144 -114 Q163 -114 179 -128 Z M609 573 Q595 559 575 559 Q566 559 557 562 Q548 565 541 573 Q526 588 526 608 Q526 628 540 642 Q554 656 574 656 Q593 656 609 642 Q623 626 623 607 Q623 587 609 573 Z M794 487 Q808 473 808 453 Q808 433 793 418 Q779 404 759 404 Q750 404 741 407 Q732 410 725 418 Q711 431 711 452 Q711 461 714 470 Q717 479 725 487 Q739 501 759 501 Q778 501 794 487 Z M975 159 Q989 145 989 125 Q989 105 974 90 Q960 76 940 76 Q931 76 922 79 Q913 82 906 90 Q892 103 892 124 Q892 133 895 142 Q898 151 906 159 Q920 173 940 173 Q959 173 975 159 Z M589 282 Q603 268 603 248 Q603 228 588 213 Q574 199 554 199 Q545 199 536 202 Q527 205 520 213 Q506 226 506 247 Q506 256 509 265 Q512 274 520 282 Q534 296 554 296 Q573 296 589 282 Z M384 77 Q398 63 398 43 Q398 23 383 8 Q369 -6 349 -6 Q340 -6 331 -3 Q322 0 315 8 Q301 21 301 42 Q301 51 304 60 Q307 69 315 77 Q329 91 349 91 Q368 91 384 77 Z M466 668 Q480 654 480 634 Q480 614 465 599 Q451 585 431 585 Q422 585 413 588 Q404 591 397 599 Q383 612 383 633 Q383 642 386 651 Q389 660 397 668 Q411 682 431 682 Q450 682 466 668 Z M897 589 Q911 575 911 556 Q911 536 896 521 Q882 507 862 507 Q853 507 844 510 Q835 513 828 521 Q813 536 813 556 Q813 575 827 589 Q841 603 862 603 Q881 603 897 589 Z M691 316 Q677 302 657 302 Q648 302 639 305 Q630 308 623 316 Q608 331 608 351 Q608 370 622 384 Q636 398 656 398 Q675 398 691 384 Q705 368 705 350 Q705 330 691 316 Z M486 111 Q472 97 452 97 Q443 97 434 100 Q425 103 418 111 Q403 126 403 146 Q403 165 417 179 Q431 193 451 193 Q470 193 486 179 Q500 163 500 145 Q500 125 486 111 Z M281 -94 Q267 -108 247 -108 Q238 -108 229 -105 Q220 -102 213 -94 Q198 -79 198 -59 Q198 -40 212 -26 Q226 -12 246 -12 Q265 -12 281 -26 Q295 -42 295 -60 Q295 -80 281 -94 Z M949 302 Q963 288 963 269 Q963 249 948 234 Q934 220 914 220 Q905 220 896 223 Q887 226 880 234 Q872 241 869 250 Q866 259 866 268 Q866 288 880 302 Q894 316 914 316 Q933 316 949 302 Z M753 615 Q767 601 767 582 Q767 562 752 547 Q738 533 718 533 Q709 533 700 536 Q691 539 684 547 Q676 554 673 563 Q670 572 670 581 Q670 601 684 615 Q698 629 718 629 Q737 629 753 615 Z " />
<glyph glyph-name="uni2198" unicode="&#x2198;" horiz-adv-x="1162" d="M923 25 Q909 11 888 11 Q866 11 853 25 Q839 39 839 59 Q839 79 854 94 Q868 108 888 108 Q906 108 922 94 Q937 79 937 59 Q937 39 923 25 Z M179 599 Q165 585 144 585 Q122 585 109 599 Q95 613 95 633 Q95 653 110 668 Q124 682 144 682 Q162 682 178 668 Q193 653 193 633 Q193 613 179 599 Z M609 -171 Q601 -179 592 -182 Q583 -185 574 -185 Q553 -185 540 -171 Q526 -157 526 -137 Q526 -117 541 -102 Q555 -88 575 -88 Q593 -88 609 -102 Q623 -118 623 -137 Q623 -157 609 -171 Z M466 -197 Q458 -205 449 -208 Q440 -211 431 -211 Q410 -211 397 -197 Q383 -184 383 -163 Q383 -154 386 -145 Q389 -136 397 -128 Q411 -114 431 -114 Q449 -114 465 -128 Q480 -143 480 -163 Q480 -183 466 -197 Z M589 189 Q581 181 572 178 Q563 175 554 175 Q533 175 520 189 Q506 202 506 223 Q506 232 509 241 Q512 250 520 258 Q534 272 554 272 Q572 272 588 258 Q603 243 603 223 Q603 203 589 189 Z M384 394 Q376 386 367 383 Q358 380 349 380 Q328 380 315 394 Q301 407 301 428 Q301 437 304 446 Q307 455 315 463 Q329 477 349 477 Q367 477 383 463 Q398 448 398 428 Q398 408 384 394 Z M975 312 Q967 304 958 301 Q949 298 940 298 Q919 298 906 312 Q892 325 892 346 Q892 355 895 364 Q898 373 906 381 Q920 395 940 395 Q958 395 974 381 Q989 366 989 346 Q989 326 975 312 Z M794 -16 Q786 -24 777 -27 Q768 -30 759 -30 Q738 -30 725 -16 Q711 -3 711 18 Q711 27 714 36 Q717 45 725 53 Q739 67 759 67 Q777 67 793 53 Q808 38 808 18 Q808 -2 794 -16 Z M897 -118 Q883 -132 862 -132 Q840 -132 827 -118 Q813 -104 813 -85 Q813 -65 828 -50 Q842 -36 862 -36 Q880 -36 896 -50 Q911 -65 911 -85 Q911 -104 897 -118 Z M486 292 Q478 284 469 281 Q460 278 451 278 Q430 278 417 292 Q403 306 403 325 Q403 345 418 360 Q432 374 452 374 Q470 374 486 360 Q500 344 500 326 Q500 306 486 292 Z M281 497 Q273 489 264 486 Q255 483 246 483 Q225 483 212 497 Q198 511 198 530 Q198 550 213 565 Q227 579 247 579 Q265 579 281 565 Q295 549 295 531 Q295 511 281 497 Z M691 87 Q683 79 674 76 Q665 73 656 73 Q635 73 622 87 Q608 101 608 120 Q608 140 623 155 Q637 169 657 169 Q675 169 691 155 Q705 139 705 121 Q705 101 691 87 Z M949 169 Q941 161 932 158 Q923 155 914 155 Q893 155 880 169 Q872 176 869 185 Q866 194 866 203 Q866 223 880 237 Q894 251 914 251 Q932 251 948 237 Q963 222 963 202 Q963 183 949 169 Z M753 -144 Q745 -152 736 -155 Q727 -158 718 -158 Q697 -158 684 -144 Q676 -137 673 -128 Q670 -119 670 -110 Q670 -90 684 -76 Q698 -62 718 -62 Q736 -62 752 -76 Q767 -91 767 -111 Q767 -130 753 -144 Z " />
<glyph glyph-name="uni2199" unicode="&#x2199;" horiz-adv-x="1162" d="M975 599 Q961 585 940 585 Q918 585 905 599 Q891 613 891 633 Q891 653 906 668 Q920 682 940 682 Q958 682 974 668 Q989 653 989 633 Q989 613 975 599 Z M231 25 Q217 11 196 11 Q174 11 161 25 Q147 39 147 59 Q147 79 162 94 Q176 108 196 108 Q214 108 230 94 Q245 79 245 59 Q245 39 231 25 Z M564 189 Q556 181 547 178 Q538 175 529 175 Q508 175 495 189 Q481 203 481 223 Q481 243 496 258 Q510 272 530 272 Q548 272 564 258 Q578 242 578 223 Q578 203 564 189 Z M687 -197 Q679 -205 670 -208 Q661 -211 652 -211 Q631 -211 618 -197 Q604 -183 604 -163 Q604 -143 619 -128 Q633 -114 653 -114 Q671 -114 687 -128 Q701 -144 701 -163 Q701 -183 687 -197 Z M359 -16 Q351 -24 342 -27 Q333 -30 324 -30 Q303 -30 290 -16 Q276 -2 276 18 Q276 38 291 53 Q305 67 325 67 Q343 67 359 53 Q373 37 373 18 Q373 -2 359 -16 Z M769 394 Q761 386 752 383 Q743 380 734 380 Q713 380 700 394 Q686 408 686 428 Q686 448 701 463 Q715 477 735 477 Q753 477 769 463 Q783 447 783 428 Q783 408 769 394 Z M178 312 Q170 304 161 301 Q152 298 143 298 Q122 298 109 312 Q95 326 95 346 Q95 366 110 381 Q124 395 144 395 Q162 395 178 381 Q192 365 192 346 Q192 326 178 312 Z M544 -171 Q536 -179 527 -182 Q518 -185 509 -185 Q488 -185 475 -171 Q461 -158 461 -137 Q461 -128 464 -119 Q467 -110 475 -102 Q489 -88 509 -88 Q527 -88 543 -102 Q558 -117 558 -137 Q558 -157 544 -171 Z M257 -118 Q243 -132 222 -132 Q200 -132 187 -118 Q173 -104 173 -85 Q173 -65 188 -50 Q202 -36 222 -36 Q240 -36 256 -50 Q271 -65 271 -85 Q271 -104 257 -118 Z M400 -144 Q392 -152 383 -155 Q374 -158 365 -158 Q344 -158 331 -144 Q317 -130 317 -111 Q317 -91 332 -76 Q346 -62 366 -62 Q384 -62 400 -76 Q414 -92 414 -110 Q414 -130 400 -144 Z M204 169 Q196 161 187 158 Q178 155 169 155 Q148 155 135 169 Q121 183 121 202 Q121 222 136 237 Q150 251 170 251 Q188 251 204 237 Q218 221 218 203 Q218 183 204 169 Z M667 292 Q659 284 650 281 Q641 278 632 278 Q611 278 598 292 Q590 299 587 308 Q584 317 584 326 Q584 346 598 360 Q612 374 632 374 Q650 374 666 360 Q681 345 681 325 Q681 306 667 292 Z M872 497 Q864 489 855 486 Q846 483 837 483 Q816 483 803 497 Q795 504 792 513 Q789 522 789 531 Q789 551 803 565 Q817 579 837 579 Q855 579 871 565 Q886 550 886 530 Q886 511 872 497 Z M462 87 Q454 79 445 76 Q436 73 427 73 Q406 73 393 87 Q385 94 382 103 Q379 112 379 121 Q379 141 393 155 Q407 169 427 169 Q445 169 461 155 Q476 140 476 120 Q476 101 462 87 Z " />
<glyph glyph-name="partialdiff" unicode="&#x2202;" horiz-adv-x="567" d="M533 330 Q533 284 523 240 Q510 179 484 132 Q458 85 422 52.5 Q386 20 343 3 Q300 -14 253 -14 Q214 -14 182.5 -1 Q151 12 128.5 34.5 Q106 57 94 88.5 Q82 120 82 158 Q82 209 101 255.5 Q120 302 154 337.5 Q188 373 233 393.5 Q278 414 331 414 Q382 414 410 404 Q438 394 443 390 Q437 430 418 470 Q399 510 367 542 Q347 562 323 581 Q299 600 272.5 615 Q246 630 218.5 640 Q191 650 164 653 L214 701 Q243 698 278 686 Q313 674 347.5 654 Q382 634 413.5 606 Q445 578 468 544 Q500 495 516.5 441.5 Q533 388 533 330 Z M445 321 Q439 327 426 333 Q413 339 397 343.5 Q381 348 363 351 Q345 354 328 354 Q289 354 259.5 337 Q230 320 209.5 293 Q189 266 179 231.5 Q169 197 169 162 Q169 111 196.5 81 Q224 51 273 51 Q333 51 376 100 Q419 149 436 231 Q439 243 440.5 257 Q442 271 443 284 Q444 297 444.5 307 Q445 317 445 321 Z " />
<glyph glyph-name="Delta" unicode="&#x2206;" horiz-adv-x="593" d="M527 0 L-23 0 L-23 58 L345 686 L448 686 L545 70 L527 0 Z M381 614 L70 70 L455 70 L381 614 Z " />
<glyph glyph-name="product" unicode="&#x220f;" horiz-adv-x="685" d="M742 617 L670 617 L511 -123 L583 -123 L568 -193 L347 -193 L362 -123 L431 -123 L590 617 L300 617 L141 -123 L210 -123 L195 -193 L-27 -193 L-12 -123 L61 -123 L220 617 L147 617 L161 685 L756 685 L742 617 Z " />
<glyph glyph-name="summation" unicode="&#x2211;" horiz-adv-x="484" d="M303 -193 L-69 -193 L-57 -130 L289 247 L111 617 L149 686 L508 686 L470 617 L206 617 L385 248 L37 -123 L339 -123 L303 -193 Z " />
<glyph glyph-name="minus" unicode="&#x2212;" horiz-adv-x="595" d="M544 250 L59 250 L71 309 L556 309 L544 250 Z " />
<glyph glyph-name="uni2219" unicode="&#x2219;" horiz-adv-x="539" d="M447 354 Q447 317 433.5 285 Q420 253 396 229 Q372 205 340 191 Q308 177 271 177 Q234 177 201.5 191 Q169 205 145 229 Q121 253 107 285 Q93 317 93 354 Q93 391 107 423 Q121 455 145 479 Q169 503 201 517 Q233 531 270 531 Q307 531 339 517 Q371 503 395 479 Q419 455 433 423 Q447 391 447 354 Z " />
<glyph glyph-name="radical" unicode="&#x221a;" horiz-adv-x="537" d="M254 0 L183 0 L127 439 L68 439 L81 498 L201 498 L229 246 Q232 223 234 199.5 Q236 176 238 154.5 Q240 133 240.5 116.5 Q241 100 241 93 Q247 106 264 143 Q281 180 313 236 L571 695 L650 695 L254 0 Z " />
<glyph glyph-name="infinity" unicode="&#x221e;" horiz-adv-x="907" d="M902 301 Q902 256 884.5 219.5 Q867 183 837 156.5 Q807 130 767.5 115.5 Q728 101 685 101 Q641 101 605 117 Q569 133 541 156 L467 217 L370 157 Q324 129 282.5 114.5 Q241 100 198 100 Q175 100 149.5 105.5 Q124 111 103 124 Q82 137 68.5 159 Q55 181 55 215 Q55 260 72.5 297 Q90 334 120 360.5 Q150 387 189.5 401.5 Q229 416 272 416 Q314 416 352.5 399 Q391 382 423 356 L492 300 L589 360 Q632 386 676 401.5 Q720 417 760 417 Q783 417 808 411.5 Q833 406 854 392.5 Q875 379 888.5 357 Q902 335 902 301 Z M351 311 Q331 327 308.5 336.5 Q286 346 258 346 Q234 346 212 338 Q190 330 173.5 315.5 Q157 301 147 281 Q137 261 137 236 Q137 205 158.5 185 Q180 165 219 165 Q247 165 281.5 177.5 Q316 190 347 210 L419 255 L351 311 Z M819 281 Q819 311 798 331 Q777 351 738 351 Q710 351 675.5 338 Q641 325 610 306 L538 261 L608 206 Q628 191 649.5 180.5 Q671 170 699 170 Q723 170 744.5 178 Q766 186 782.5 200.5 Q799 215 809 235.5 Q819 256 819 281 Z " />
<glyph glyph-name="integral" unicode="&#x222b;" horiz-adv-x="232" d="M313 644 Q305 651 289 657 Q273 663 257 663 Q225 663 206.5 640.5 Q188 618 185 575 L143 -45 Q139 -97 122.5 -123 Q106 -149 81 -167 Q63 -180 42 -186.5 Q21 -193 -5 -193 Q-26 -193 -52 -186.5 Q-78 -180 -91 -172 L-63 -112 Q-55 -119 -39 -125 Q-23 -131 -7 -131 Q25 -131 43.5 -109 Q62 -87 65 -44 L107 576 Q111 628 127.5 654 Q144 680 169 698 Q187 711 208 717.5 Q229 724 255 724 Q276 724 302 717.5 Q328 711 341 703 L313 644 Z " />
<glyph glyph-name="approxequal" unicode="&#x2248;" horiz-adv-x="570" d="M567 384 Q537 352 505 334 Q473 316 426 316 Q397 316 372 326.5 Q347 337 323.5 349 Q300 361 275.5 371.5 Q251 382 224 382 Q191 382 171.5 367 Q152 352 130 332 L106 382 Q135 414 167 432 Q199 450 246 450 Q275 450 300 439.5 Q325 429 349 417 Q373 405 397 394.5 Q421 384 448 384 Q481 384 500.5 396.5 Q520 409 543 434 L567 384 Z M528 203 Q498 171 466.5 153 Q435 135 388 135 Q359 135 334 145.5 Q309 156 285.5 168 Q262 180 237.5 190.5 Q213 201 186 201 Q157 201 137.5 188.5 Q118 176 91 151 L68 201 Q97 233 128.5 251 Q160 269 207 269 Q236 269 261 258.5 Q286 248 310 236 Q334 224 358 213.5 Q382 203 409 203 Q442 203 462 215.5 Q482 228 505 253 L528 203 Z " />
<glyph glyph-name="notequal" unicode="&#x2260;" horiz-adv-x="632" d="M621 348 L423 348 L349 258 L602 258 L588 192 L295 192 L148 13 L108 43 L231 192 L66 192 L80 258 L285 258 L359 348 L99 348 L113 414 L413 414 L560 593 L600 563 L477 414 L635 414 L621 348 Z " />
<glyph glyph-name="lessequal" unicode="&#x2264;" horiz-adv-x="467" d="M472 423 L170 299 L424 198 L408 124 L71 263 L84 326 L488 498 L472 423 Z M390 36 L23 36 L38 107 L405 107 L390 36 Z " />
<glyph glyph-name="greaterequal" unicode="&#x2265;" horiz-adv-x="467" d="M438 263 L41 124 L57 198 L355 299 L105 423 L121 498 L451 326 L438 263 Z M390 36 L23 36 L38 107 L405 107 L390 36 Z " />
<glyph glyph-name="dotmath" unicode="&#x22c5;" horiz-adv-x="539" d="M335 279 Q335 252 315.5 232.5 Q296 213 269 213 Q242 213 223 232.5 Q204 252 204 281 Q204 308 223.5 326.5 Q243 345 269 345 Q296 345 315 326 Q334 307 335 279 Z " />
<glyph glyph-name="filledbox" unicode="&#x25a0;" horiz-adv-x="834" d="M45 -18 L45 726 L789 726 L789 -18 L45 -18 Z " />
<glyph glyph-name="H22073" unicode="&#x25a1;" horiz-adv-x="834" d="M45 -18 L45 726 L789 726 L789 -18 L45 -18 Z M689 626 L145 626 L145 82 L689 82 L689 626 Z " />
<glyph glyph-name="uni25B4" unicode="&#x25b4;" horiz-adv-x="516" d="M424 157 L68 157 L246 543 L424 157 Z " />
<glyph glyph-name="uni25B8" unicode="&#x25b8;" horiz-adv-x="516" d="M128 172 L128 528 L514 350 L128 172 Z " />
<glyph glyph-name="uni25BE" unicode="&#x25be;" horiz-adv-x="516" d="M144 543 L500 543 L322 157 L144 543 Z " />
<glyph glyph-name="uni25C2" unicode="&#x25c2;" horiz-adv-x="516" d="M443 528 L443 172 L57 350 L443 528 Z " />
<glyph glyph-name="lozenge" unicode="&#x25ca;" horiz-adv-x="592" d="M307 0 L221 0 L98 344 L367 687 L453 687 L580 344 L307 0 Z M392 615 L181 344 L276 72 L491 344 L392 615 Z " />
<glyph glyph-name="circle" unicode="&#x25cb;" horiz-adv-x="834" d="M789 354 Q789 277 759.5 209.5 Q730 142 679.5 91.5 Q629 41 561.5 11.5 Q494 -18 417 -18 Q340 -18 272.5 11.5 Q205 41 154.5 91.5 Q104 142 74.5 209.5 Q45 277 45 354 Q45 431 74.5 498.5 Q104 566 154.5 616.5 Q205 667 272.5 696.5 Q340 726 417 726 Q494 726 561.5 696.5 Q629 667 679.5 616.5 Q730 566 759.5 498.5 Q789 431 789 354 Z M687 354 Q687 412 666 463.5 Q645 515 608 553 Q571 591 522 613.5 Q473 636 417 636 Q361 636 312 613.5 Q263 591 226 553 Q189 515 168 463.5 Q147 412 147 354 Q147 296 168 244.5 Q189 193 226 155 Q263 117 312 94.5 Q361 72 417 72 Q473 72 522 94.5 Q571 117 608 155 Q645 193 666 244.5 Q687 296 687 354 Z " />
<glyph glyph-name="H18533" unicode="&#x25cf;" horiz-adv-x="834" d="M789 354 Q789 277 759.5 209.5 Q730 142 679.5 91.5 Q629 41 561.5 11.5 Q494 -18 417 -18 Q340 -18 272.5 11.5 Q205 41 154.5 91.5 Q104 142 74.5 209.5 Q45 277 45 354 Q45 431 74.5 498.5 Q104 566 154.5 616.5 Q205 667 272.5 696.5 Q340 726 417 726 Q494 726 561.5 696.5 Q629 667 679.5 616.5 Q730 566 759.5 498.5 Q789 431 789 354 Z " />
<glyph glyph-name="uniFB00" unicode="&#xfb00;" horiz-adv-x="567" d="M680 640 Q646 663 606 663 Q573 663 550.5 640.5 Q528 618 520 575 L506 498 L644 498 L609 439 L495 439 L405 -14 Q391 -83 374 -127.5 Q357 -172 328 -208 L264 -173 Q287 -141 302.5 -103 Q318 -65 329 -7 L416 439 L214 439 L124 -14 Q110 -83 93 -127.5 Q76 -172 47 -208 L-17 -173 Q6 -141 21.5 -103 Q37 -65 48 -7 L135 439 L84 439 L95 498 L146 498 L159 565 Q178 662 235 699 Q255 713 278.5 718.5 Q302 724 330 724 Q362 724 385.5 718 Q409 712 428 699 L399 640 Q365 663 325 663 Q292 663 269.5 640.5 Q247 618 239 575 L225 498 L427 498 L440 565 Q459 662 516 699 Q536 713 559.5 718.5 Q583 724 611 724 Q643 724 666.5 718 Q690 712 709 699 L680 640 Z " />
<glyph glyph-name="fi" unicode="&#xfb01;" horiz-adv-x="554" d="M409 0 L326 0 L420 439 L214 439 L124 -14 Q110 -83 93 -127.5 Q76 -172 47 -208 L-17 -173 Q6 -141 21.5 -103 Q37 -65 48 -7 L135 439 L84 439 L95 498 L146 498 L159 565 Q178 662 235 699 Q255 713 278.5 718.5 Q302 724 330 724 Q362 724 385.5 718 Q409 712 428 699 L399 640 Q365 663 325 663 Q292 663 269.5 640.5 Q247 618 239 575 L225 498 L516 498 L409 0 Z M568 652 Q568 626 550.5 608.5 Q533 591 507 591 Q481 591 463.5 608.5 Q446 626 446 651 Q446 677 463.5 695 Q481 713 507 713 Q533 713 550.5 695.5 Q568 678 568 652 Z " />
<glyph glyph-name="fl" unicode="&#xfb02;" horiz-adv-x="554" d="M399 640 Q365 663 325 663 Q292 663 269.5 640.5 Q247 618 239 575 L225 498 L363 498 L328 439 L214 439 L124 -14 Q110 -83 93 -127.5 Q76 -172 47 -208 L-17 -173 Q6 -141 21.5 -103 Q37 -65 48 -7 L135 439 L84 439 L95 498 L146 498 L159 565 Q178 662 235 699 Q255 713 278.5 718.5 Q302 724 330 724 Q362 724 385.5 718 Q409 712 428 699 L399 640 Z M535 737 Q539 726 540.5 711.5 Q542 697 542 680 Q542 650 537.5 617 Q533 584 527 555 L432 110 Q427 87 427 74 Q427 50 448 50 L458 50 Q463 50 467 52 L472 1 Q456 -6 441.5 -8 Q427 -10 411 -10 Q380 -10 362.5 5 Q345 20 345 49 Q345 59 346.5 69.5 Q348 80 350 92 L448 555 Q453 582 456 605 Q459 628 459 648 Q459 665 457 679.5 Q455 694 452 705 L535 737 Z " />
<glyph glyph-name="uniFB03" unicode="&#xfb03;" horiz-adv-x="845" d="M700 0 L617 0 L711 439 L505 439 L415 -14 Q401 -83 384 -127.5 Q367 -172 338 -208 L274 -173 Q297 -141 312.5 -103 Q328 -65 339 -7 L426 439 L214 439 L124 -14 Q110 -83 93 -127.5 Q76 -172 47 -208 L-17 -173 Q6 -141 21.5 -103 Q37 -65 48 -7 L135 439 L84 439 L95 498 L146 498 L159 565 Q178 662 235 699 Q255 713 278.5 718.5 Q302 724 330 724 Q362 724 385.5 718 Q409 712 428 699 L399 640 Q365 663 325 663 Q292 663 269.5 640.5 Q247 618 239 575 L225 498 L437 498 L450 565 Q469 662 526 699 Q546 713 569.5 718.5 Q593 724 621 724 Q653 724 676.5 718 Q700 712 719 699 L690 640 Q656 663 616 663 Q583 663 560.5 640.5 Q538 618 530 575 L516 498 L807 498 L700 0 Z M859 652 Q859 626 841.5 608.5 Q824 591 798 591 Q772 591 754.5 608.5 Q737 626 737 651 Q737 677 754.5 695 Q772 713 798 713 Q824 713 841.5 695.5 Q859 678 859 652 Z " />
<glyph glyph-name="uniFB04" unicode="&#xfb04;" horiz-adv-x="839" d="M684 640 Q650 663 610 663 Q577 663 554.5 640.5 Q532 618 524 575 L510 498 L648 498 L613 439 L499 439 L409 -14 Q395 -83 378 -127.5 Q361 -172 332 -208 L268 -173 Q291 -141 306.5 -103 Q322 -65 333 -7 L420 439 L214 439 L124 -14 Q110 -83 93 -127.5 Q76 -172 47 -208 L-17 -173 Q6 -141 21.5 -103 Q37 -65 48 -7 L135 439 L84 439 L95 498 L146 498 L159 565 Q178 662 235 699 Q255 713 278.5 718.5 Q302 724 330 724 Q362 724 385.5 718 Q409 712 428 699 L399 640 Q365 663 325 663 Q292 663 269.5 640.5 Q247 618 239 575 L225 498 L431 498 L444 565 Q463 662 520 699 Q540 713 563.5 718.5 Q587 724 615 724 Q647 724 670.5 718 Q694 712 713 699 L684 640 Z M820 737 Q824 726 825.5 711.5 Q827 697 827 680 Q827 650 822.5 617 Q818 584 812 555 L717 110 Q712 87 712 74 Q712 50 733 50 L743 50 Q748 50 752 52 L757 1 Q741 -6 726.5 -8 Q712 -10 696 -10 Q665 -10 647.5 5 Q630 20 630 49 Q630 59 631.5 69.5 Q633 80 635 92 L733 555 Q738 582 741 605 Q744 628 744 648 Q744 665 742 679.5 Q740 694 737 705 L820 737 Z " />
<glyph glyph-name="uniFB06" unicode="&#xfb06;" horiz-adv-x="763" d="M779 439 L671 439 L609 147 Q602 116 602 93 Q602 65 614 54.5 Q626 44 652 44 Q669 44 680.5 46.5 Q692 49 704 54 L704 4 Q683 -6 660.5 -11 Q638 -16 612 -16 Q568 -16 546 5 Q524 26 524 65 Q524 79 526 98.5 Q528 118 532 138 L595 439 L530 439 L541 498 L607 498 L641 652 Q615 662 580.5 669 Q546 676 519 676 Q495 676 470 670 Q445 664 425.5 651 Q406 638 393.5 617 Q381 596 381 566 Q381 545 389 524 Q397 503 417 488 Q421 486 424.5 484 Q428 482 432 480 L400 420 Q371 436 343.5 446 Q316 456 283 456 Q234 456 202 436.5 Q170 417 170 382 Q170 356 181 341 Q192 326 224 312 L287 285 Q345 260 368.5 230.5 Q392 201 392 159 Q392 118 375.5 86 Q359 54 330 32 Q301 10 261.5 -2 Q222 -14 175 -14 Q127 -14 81.5 -1.5 Q36 11 3 34 L35 94 Q103 47 183 47 Q235 47 269.5 70 Q304 93 304 131 Q304 162 291 180 Q278 198 241 215 L182 241 Q130 264 107.5 291.5 Q85 319 85 363 Q85 397 99.5 425.5 Q114 454 141 474.5 Q168 495 205.5 506.5 Q243 518 288 518 Q302 518 315 516.5 Q328 515 342 513 Q336 523 330.5 537.5 Q325 552 325 576 Q325 616 343.5 645 Q362 674 392 693 Q422 712 459 721 Q496 730 534 730 Q566 730 597 725.5 Q628 721 654 715.5 Q680 710 699.5 704.5 Q719 699 728 697 L686 498 L810 498 L779 439 Z " />
</font>
</svg>
